<svg width="64" height="64" viewBox="0 0 64 64" fill="none" xmlns="http://www.w3.org/2000/svg">
<g clip-path="url(#clip0)">
<path d="M61.7726 46.9507C61.7512 47.0765 61.7228 47.2093 61.6944 47.3351C61.6802 47.3211 61.666 47.3071 61.6446 47.2931C61.602 47.2512 61.5523 47.2163 61.5096 47.1743C61.4741 47.1394 61.4385 47.1114 61.403 47.0765C61.3817 47.0555 61.3533 47.0345 61.332 47.0066C61.3248 46.9996 61.3177 46.9926 61.3106 46.9856C61.2893 47.1394 61.2609 47.2931 61.2325 47.4469C61.2822 47.4958 61.3248 47.5378 61.3746 47.5797C61.4457 47.6496 61.5167 47.7125 61.5949 47.7824C61.4457 48.3765 61.2538 48.9636 61.0193 49.5368C60.9198 49.4808 60.8203 49.4319 60.7137 49.376C60.6711 49.5158 60.6213 49.6486 60.5716 49.7814C60.6639 49.8373 60.7563 49.8862 60.8487 49.9352C60.4152 50.9277 59.8609 51.8852 59.2071 52.7589C59.1361 52.724 59.065 52.696 58.9939 52.661C58.8944 52.7589 58.7878 52.8428 58.667 52.9127C58.7665 52.9616 58.8731 53.0175 58.9726 53.0664C58.9868 53.0734 59.0081 53.0804 59.0223 53.0944C58.9939 53.1014 58.9584 53.1154 58.93 53.1223C58.667 53.1992 58.4041 53.2761 58.1411 53.353C57.4447 53.5557 56.7412 53.7724 56.0447 53.9821H56.0376C55.6397 54.1009 55.2417 54.2267 54.8437 54.3455C54.5666 54.4294 54.2965 54.5132 54.0194 54.5901C53.5717 54.7229 53.1169 54.8557 52.6692 54.9885C52.4844 55.0444 52.2996 55.0934 52.1077 55.1493C51.923 55.2052 51.7311 55.2541 51.5463 55.3101C47.787 56.3585 43.9921 57.2951 40.1546 58.0289C32.7781 59.4408 25.1813 60.0209 17.7053 59.0704C14.6921 58.686 11.7714 58.015 8.88614 57.1413C8.76533 57.1063 8.64452 57.0714 8.52371 57.0295C8.45975 57.0504 8.39579 57.0504 8.33183 57.0574C8.14707 57.0714 7.95519 57.0784 7.76332 57.0784C6.80394 57.0644 5.81614 56.7848 5.03443 56.3515C3.53496 55.5197 2.74614 53.989 2.57559 52.3395C2.39792 50.5992 2.75325 48.8588 3.08725 47.1603C3.471 45.1753 3.84765 43.1973 4.25982 41.2193C5.92274 33.2513 7.79174 25.3253 9.68917 17.4062C10.6557 13.3524 11.6648 9.29848 12.5531 5.22363C12.617 5.22363 12.6881 5.22363 12.7521 5.22363C12.8089 5.22363 12.8587 5.22363 12.9155 5.22363C12.9724 5.22363 13.0221 5.22363 13.079 5.22363H13.0932C13.1429 5.22363 13.1998 5.23062 13.2566 5.23062C13.2708 5.23062 13.2922 5.23062 13.3135 5.23062C13.3988 5.23761 13.484 5.23761 13.5693 5.2446C13.5906 5.2446 13.6119 5.2446 13.6262 5.25159C13.6688 5.25858 13.7185 5.25858 13.7612 5.26557C13.818 5.27256 13.8749 5.27955 13.9246 5.27955C13.9815 5.28654 14.0383 5.29353 14.0881 5.30052C14.152 5.30751 14.216 5.3145 14.2729 5.32847C14.3439 5.33546 14.415 5.34944 14.486 5.36342C14.6708 5.39138 14.8556 5.42633 15.0404 5.46826C15.1469 5.48923 15.2535 5.51719 15.3601 5.54515C15.4383 5.56612 15.5236 5.58708 15.6018 5.60805C15.7226 5.643 15.8363 5.67795 15.9571 5.71289C16.021 5.73386 16.085 5.75483 16.1561 5.7758C16.22 5.79677 16.2769 5.81774 16.3337 5.8387C16.3906 5.85967 16.4474 5.88064 16.5043 5.90161C16.5114 5.9086 16.5256 5.9086 16.5327 5.91559C16.5825 5.93656 16.6322 5.95753 16.6891 5.97849C16.7388 5.99946 16.7957 6.02043 16.8454 6.0414C16.9094 6.06936 16.9733 6.09731 17.0444 6.13226C18.3804 6.74733 19.5245 7.65596 20.5123 8.71836C19.8514 10.4168 19.3042 12.1432 18.9489 13.9465C18.487 16.2949 18.2525 18.6853 18.2525 21.0757C18.2525 23.5011 18.487 25.9194 18.9702 28.2958C19.4677 30.7701 20.2778 33.1605 20.9387 35.5858C21.3154 36.9697 21.6494 38.3676 21.8128 39.7865C21.9336 40.793 21.9478 41.7994 21.9265 42.8059C21.6067 42.8898 21.2941 42.9876 20.9814 43.0995C19.1763 43.7425 17.3855 45.1893 17.2291 47.1883C17.2291 47.1953 17.2434 47.2023 17.2434 47.1883C17.6413 45.1404 19.5032 43.8054 21.4504 43.2812C21.6067 43.2393 21.7631 43.2043 21.9194 43.1624C22.0473 43.1344 22.1824 43.1065 22.3103 43.0785C23.1986 42.9038 24.1153 42.8059 25.0107 42.6871C26.1833 42.5333 27.3346 42.3167 28.4787 42.0231C30.767 41.422 32.9842 40.5763 35.2867 40.0241C37.6816 39.444 40.1404 39.2483 42.5851 39.0386C44.9302 38.8429 47.2824 38.6332 49.5707 38.088C51.6956 37.5848 53.7351 36.816 55.7747 36.0541C55.8102 36.0401 55.8529 36.0261 55.8884 36.0122C55.9737 35.9842 56.0518 35.9493 56.1371 35.9213C57.1178 36.096 58.0559 36.5224 58.8589 37.1375C60.4436 38.3397 61.3533 40.101 61.7583 42.0021C62.0923 43.6377 62.071 45.371 61.7726 46.9507Z" fill="#F0A771"/>
<path d="M61.6518 47.3003C61.6091 47.2584 61.5594 47.2234 61.5167 47.1815C61.4812 47.1466 61.4457 47.1186 61.4101 47.0837C61.3888 47.0627 61.3604 47.0417 61.3391 47.0138C61.3107 47.1605 61.2751 47.3073 61.2325 47.4541C61.2822 47.503 61.3249 47.545 61.3746 47.5869C61.4457 47.6568 61.5167 47.7197 61.5949 47.7896C61.6091 47.7267 61.6233 47.6638 61.6447 47.6079C61.666 47.524 61.6873 47.4331 61.7015 47.3423C61.6802 47.3283 61.666 47.3143 61.6518 47.3003ZM60.6071 49.3273C60.5574 49.4601 60.5005 49.5859 60.4437 49.7187C60.4792 49.7397 60.5147 49.7606 60.5503 49.7816C60.6498 49.8375 60.7421 49.8934 60.8416 49.9493C60.8985 49.8165 60.9553 49.6837 61.0122 49.5509C60.8772 49.474 60.7421 49.3972 60.6071 49.3273ZM58.7665 52.5704C58.6955 52.6682 58.6173 52.7661 58.5391 52.8639C58.6813 52.9338 58.8234 53.0037 58.9655 53.0736C59.0437 52.9758 59.1219 52.8709 59.2 52.7661C59.0579 52.7032 58.9087 52.6403 58.7665 52.5704ZM58.127 53.3532C55.9311 54.0032 53.7423 54.6952 51.5321 55.3102C47.7728 56.3587 43.978 57.2952 40.1405 58.0291C32.7639 59.441 25.1671 60.0211 17.6911 59.0706C14.6779 58.6861 11.7572 58.0152 8.87195 57.1415C8.75114 57.1065 8.63033 57.0716 8.50952 57.0296C8.45978 57.0506 8.39582 57.0506 8.33186 57.0576C8.14709 57.0716 7.95522 57.0786 7.76334 57.0786C6.80397 57.0646 5.81617 56.785 5.03445 56.3517C3.53499 55.5199 2.74617 53.9892 2.57561 52.3397C2.39795 50.5994 2.75327 48.859 3.08728 47.1605C3.47103 45.1755 3.84767 43.1975 4.25985 41.2195C5.92276 33.2515 7.79177 25.3255 9.6892 17.4064C10.6557 13.3526 11.6648 9.29868 12.5531 5.22383C12.6171 5.22383 12.6881 5.22383 12.7521 5.22383C12.8089 5.22383 12.8587 5.22383 12.9155 5.22383C12.9724 5.22383 13.0221 5.22383 13.079 5.22383H13.0932C13.1429 5.22383 13.1998 5.23082 13.2566 5.23082C13.2709 5.23082 13.2922 5.23082 13.3135 5.23082C13.3988 5.23781 13.4841 5.23781 13.5693 5.2448C13.5907 5.2448 13.612 5.2448 13.6262 5.25179C13.6688 5.25878 13.7186 5.25878 13.7612 5.26577C13.8181 5.27276 13.8749 5.27276 13.9247 5.27975C13.9815 5.28674 14.0384 5.29373 14.0881 5.30072C14.1521 5.30771 14.216 5.31469 14.2729 5.32867C14.3439 5.33566 14.415 5.34964 14.4861 5.36362C14.6708 5.39158 14.8556 5.42653 15.0404 5.46846C15.147 5.48943 15.2536 5.51739 15.3602 5.54535C15.4383 5.56632 15.5236 5.58728 15.6018 5.60825C15.7226 5.6432 15.8363 5.67815 15.9571 5.71309C16.0211 5.73406 16.085 5.75503 16.1561 5.776C16.2201 5.79697 16.2769 5.81794 16.3338 5.8389C16.3906 5.85987 16.4475 5.88084 16.5043 5.90181C16.5114 5.9088 16.5256 5.9088 16.5327 5.91579C16.5825 5.93676 16.6322 5.95772 16.6891 5.97869C16.7388 5.99966 16.7957 6.02063 16.8454 6.0416C16.9094 6.06956 16.9733 6.09751 17.0444 6.13246C18.3804 6.74753 19.5246 7.65616 20.5124 8.71856C19.8515 10.417 19.3043 12.1434 18.9489 13.9467C18.487 16.2951 18.2525 18.6855 18.2525 21.0759C18.2525 23.5012 18.487 25.9196 18.9703 28.296C19.4677 30.7703 20.2779 33.1607 20.9388 35.586C21.3154 36.9699 21.6494 38.3678 21.8129 39.7867C21.9337 40.7932 21.9479 41.7996 21.9266 42.8061C21.6068 42.89 21.2941 42.9878 20.9814 43.0997C19.1763 43.7427 17.3855 45.1895 17.2292 47.1885C17.2292 47.1955 17.2434 47.2025 17.2434 47.1885C17.6413 45.1406 19.5032 43.8056 21.4504 43.2814C21.6068 43.2395 21.7631 43.2045 21.9194 43.1626C22.0474 43.1346 22.1824 43.1067 22.3103 43.0787C23.1986 42.904 24.1154 42.8061 25.0108 42.6873C26.1833 42.5335 27.3346 42.3169 28.4787 42.0233C30.767 41.4222 32.9842 40.5765 35.2867 40.0243C37.6816 39.4442 40.1405 39.2485 42.5851 39.0388C44.9302 38.8431 47.2825 38.6334 49.5708 38.0882C51.6956 37.585 53.7351 36.8162 55.7747 36.0543C55.8102 36.0403 55.8529 36.0263 55.8884 36.0124C55.9737 35.9844 56.0519 35.9495 56.1371 35.9215C55.7889 35.8586 55.4336 35.8306 55.0854 35.8306C54.9361 35.8866 54.794 35.9355 54.6448 35.9914C53.522 36.4038 52.3991 36.8092 51.2479 37.1516C48.8246 37.8855 46.3444 38.242 43.8216 38.4727C41.3272 38.6963 38.8187 38.8431 36.3598 39.3184C33.8939 39.8006 31.5416 40.6743 29.1325 41.3663C27.8036 41.7507 26.4605 42.0373 25.0889 42.233C24.1722 42.3588 23.2626 42.4846 22.3601 42.6943C22.5804 40.8071 22.2037 38.8221 21.7773 37.0119C21.1946 34.5376 20.3489 32.1402 19.7378 29.6729C18.5652 24.9201 18.3875 19.9226 19.1692 15.0929C19.5104 13.0031 19.9794 10.8853 20.6332 8.85136C20.6403 8.8234 20.6545 8.78845 20.6616 8.76049C20.6971 8.65565 20.7327 8.54382 20.7682 8.43898C20.7327 8.39704 20.6971 8.35511 20.6616 8.31317C19.7022 7.19486 18.4444 6.32118 17.0728 5.74804C15.6231 5.14695 14.1165 4.90931 12.6029 5.00716C12.5531 5.00716 12.4963 5.01415 12.4465 5.02114C12.4323 5.07006 12.4181 5.11899 12.4039 5.16792C12.3968 5.1819 12.3968 5.19587 12.3897 5.21684C11.3379 8.97717 10.3927 12.7724 9.45468 16.5607C8.41714 20.7264 7.42223 24.8921 6.45575 29.0718C5.49637 33.2445 4.56543 37.4242 3.69844 41.6179C3.27205 43.6868 2.82434 45.7487 2.42638 47.8175C2.10658 49.488 1.82943 51.2214 2.1279 52.9198C2.41927 54.6183 3.39286 56.121 4.9705 56.9108C6.08621 57.47 7.22325 57.5748 8.35318 57.3092C10.8547 58.2318 13.477 58.8539 16.085 59.2803C19.7378 59.8744 23.4402 60.091 27.1427 59.9932C34.9101 59.7835 42.578 58.2528 50.0398 56.2049C52.1646 55.6248 54.2681 54.9957 56.3788 54.3667C56.7625 54.2548 57.1392 54.136 57.5229 54.0242C57.8072 53.9403 58.0914 53.8564 58.3757 53.7656C58.5676 53.5629 58.7452 53.3532 58.9158 53.1365C58.6599 53.1994 58.397 53.2763 58.127 53.3532Z" fill="#C47B4E"/>
<path opacity="0.1" d="M18.0819 7.78888C17.0586 8.18029 11.5369 23.8856 10.7694 35.9005C10.4922 40.2898 11.2029 44.2668 13.2779 45.2384C15.353 46.2029 16.6606 41.3732 16.9875 38.9059C17.6413 41.6947 18.622 42.1281 19.3895 41.9114C20.1499 41.6947 20.6971 37.9414 19.4961 33.6499C18.2951 29.3583 16.8809 22.921 17.8616 16.5886C18.5794 11.9476 20.0433 7.04101 18.0819 7.78888Z" fill="white"/>
<path opacity="0.1" d="M21.1377 44.7003C17.9683 46.7343 18.9561 50.3897 20.8108 51.571C22.6656 52.7522 47.4317 49.7467 51.9017 45.1337C56.3717 40.5206 45.4632 40.304 40.8795 40.947C36.2959 41.59 23.6463 43.0928 21.1377 44.7003Z" fill="white"/>
<path opacity="0.05" d="M61.7726 46.9507C61.7512 47.0765 61.7228 47.2093 61.6944 47.3351C61.6802 47.3211 61.666 47.3071 61.6446 47.2931C61.602 47.2512 61.5523 47.2163 61.5096 47.1743C61.4741 47.1394 61.4385 47.1114 61.403 47.0765C61.3817 47.0555 61.3533 47.0345 61.332 47.0066C61.3248 46.9996 61.3177 46.9926 61.3106 46.9856C61.2893 47.1394 61.2609 47.2931 61.2325 47.4469C61.2822 47.4958 61.3248 47.5378 61.3746 47.5797C61.4457 47.6496 61.5167 47.7125 61.5949 47.7824C61.4457 48.3765 61.2538 48.9636 61.0193 49.5368C60.9198 49.4808 60.8203 49.4319 60.7137 49.376C60.6711 49.5158 60.6213 49.6486 60.5716 49.7814C60.6639 49.8373 60.7563 49.8862 60.8487 49.9352C60.4152 50.9277 59.8609 51.8852 59.2071 52.7589C59.1361 52.724 59.065 52.696 58.9939 52.661C58.8944 52.7589 58.7878 52.8428 58.667 52.9127C58.7665 52.9616 58.8731 53.0175 58.9726 53.0664C58.9868 53.0734 59.0081 53.0804 59.0223 53.0944C58.9939 53.1014 58.9584 53.1154 58.93 53.1223C58.667 53.1992 58.4041 53.2761 58.1411 53.353C57.4447 53.5557 56.7412 53.7724 56.0447 53.9821H56.0376C55.6397 54.1009 55.2417 54.2267 54.8437 54.3455C54.5666 54.4294 54.2965 54.5132 54.0194 54.5901C53.5717 54.7229 53.1169 54.8557 52.6692 54.9885C52.4844 55.0444 52.2996 55.0934 52.1077 55.1493C51.923 55.2052 51.7311 55.2541 51.5463 55.3101C47.787 56.3585 43.9921 57.2951 40.1546 58.0289C32.7781 59.4408 25.1813 60.0209 17.7053 59.0704C14.6921 58.686 11.7714 58.015 8.88614 57.1413C8.76533 57.1063 8.64452 57.0714 8.52371 57.0295C8.45975 57.0504 8.39579 57.0504 8.33183 57.0574C8.14707 57.0714 7.95519 57.0784 7.76332 57.0784C6.80394 57.0644 5.81614 56.7848 5.03443 56.3515C3.53496 55.5197 2.74614 53.989 2.57559 52.3395C2.39792 50.5992 2.75325 48.8588 3.08725 47.1603C3.471 45.1753 3.84765 43.1973 4.25982 41.2193C5.92274 33.2513 7.79174 25.3253 9.68917 17.4062C10.6557 13.3524 11.6648 9.29848 12.5531 5.22363C12.617 5.22363 12.6881 5.22363 12.7521 5.22363C12.8089 5.22363 12.8587 5.22363 12.9155 5.22363C12.9724 5.22363 13.0221 5.22363 13.079 5.22363H13.0932C13.1429 5.22363 13.1998 5.23062 13.2566 5.23062C13.2708 5.23062 13.2922 5.23062 13.3135 5.23062C13.3988 5.23761 13.484 5.23761 13.5693 5.2446C13.5906 5.2446 13.6119 5.2446 13.6262 5.25159C13.6688 5.25858 13.7185 5.25858 13.7612 5.26557C13.818 5.27256 13.8749 5.27955 13.9246 5.27955C13.9815 5.28654 14.0383 5.29353 14.0881 5.30052C12.0556 12.7233 4.43748 40.8069 3.67709 47.4958C2.80299 55.2192 5.53188 55.8622 6.95318 56.2886C8.37447 56.7149 9.78866 53.8213 9.78866 53.8213C9.78866 53.8213 23.2057 56.9316 30.7386 56.9316C34.0644 56.9316 37.3973 56.4563 40.6592 55.8692C44.1272 55.2471 47.5738 54.4573 50.9423 53.4159C53.3869 52.661 56.0376 51.8852 57.8498 50.019C58.7168 49.1244 59.4203 48.083 60.0457 47.0066C60.9482 45.4619 61.7299 43.7705 61.7583 42.0021C62.0923 43.6377 62.071 45.371 61.7726 46.9507Z" fill="black"/>
<path d="M61.7726 46.951C61.7513 47.0768 61.7229 47.2096 61.6944 47.3354C61.6731 47.4263 61.6518 47.5102 61.6376 47.601C61.6234 47.664 61.6091 47.7269 61.5878 47.7828C61.4386 48.3769 61.2467 48.964 61.0122 49.5371C60.9625 49.6699 60.9056 49.8027 60.8417 49.9355C60.4082 50.928 59.8538 51.8856 59.2001 52.7593C59.1219 52.8641 59.0437 52.962 58.9655 53.0668C58.9513 53.0878 58.9371 53.1017 58.9229 53.1227C58.7523 53.3394 58.5676 53.5491 58.3828 53.7518C58.0985 53.8356 57.8143 53.9265 57.53 54.0104C57.7361 53.8007 57.9422 53.577 58.1341 53.3534C58.2762 53.1926 58.4112 53.0249 58.5463 52.8571C58.6244 52.7593 58.7026 52.6614 58.7737 52.5636C58.9087 52.3888 59.0366 52.2141 59.1574 52.0324C59.6549 51.3055 60.0884 50.5226 60.4508 49.7119C60.5076 49.5861 60.5645 49.4533 60.6142 49.3205C60.7208 49.0618 60.8203 48.7962 60.9127 48.5306C60.9767 48.3419 61.0406 48.1532 61.0904 47.9645C61.1401 47.7898 61.1899 47.615 61.2325 47.4473C61.268 47.3005 61.3036 47.1537 61.3391 47.0069C61.3462 46.958 61.3604 46.9091 61.3675 46.8672C61.7086 45.2176 61.7442 43.5192 61.396 41.8837C60.998 40.0175 60.0457 38.2142 58.4183 37.1099C57.6295 36.5717 56.7199 36.2082 55.7747 36.0615C55.3981 36.0055 55.0214 35.9846 54.6377 35.9986C54.7869 35.9426 54.9291 35.8867 55.0783 35.8378C55.4336 35.8308 55.7818 35.8658 56.1301 35.9287C57.1107 36.1034 58.0488 36.5298 58.8518 37.1448C61.7868 39.3745 62.4122 43.5262 61.7726 46.951Z" fill="#C47B4E"/>
</g>
<defs>
<clipPath id="clip0">
<rect width="60" height="55" fill="white" transform="translate(2 5)"/>
</clipPath>
</defs>
</svg>
