<svg width="64" height="64" viewBox="0 0 64 64" fill="none" xmlns="http://www.w3.org/2000/svg">
<g clip-path="url(#clip0)">
<path d="M60.0729 47.4888C59.808 42.3187 58.637 37.3565 56.9014 32.4983C55.2913 27.9727 53.4371 23.5718 52.9004 18.7552C52.5171 15.2761 52.7053 11.7901 53.3953 8.38724C51.4367 7.72192 49.471 7.08432 47.4566 6.55067C46.655 6.33583 45.8395 6.13484 45.017 5.96158C42.194 5.3517 39.378 4.98439 36.5481 4.72103C35.0425 4.58242 33.523 4.46461 32.0034 4.37451C30.6372 4.46461 29.285 4.5547 27.9258 4.67945C24.9355 4.94281 21.9662 5.31705 18.9829 5.96158C17.9931 6.1695 17.0242 6.41206 16.0623 6.68235C14.2222 7.18827 12.4099 7.77736 10.6046 8.38724C11.2946 11.7901 11.4828 15.2692 11.0995 18.7552C10.5627 23.5718 8.70863 27.9657 7.09849 32.4983C5.35591 37.3634 4.19187 42.3256 3.92003 47.4888C3.89215 47.9947 3.8782 48.5076 3.87123 49.0135C3.85032 50.2402 3.89215 51.4599 3.97579 52.6728C4.02458 52.6936 4.07337 52.7144 4.1152 52.7282C9.83783 55.0776 15.7696 56.7063 22.008 57.5518C25.3328 58.0023 28.6577 58.231 31.9895 58.3627C31.9965 58.3696 32.0034 58.3696 32.0034 58.3627C35.3352 58.2379 38.6601 58.0023 41.9849 57.5518C48.2721 56.6994 54.2527 55.0499 60.0171 52.6728C60.038 52.4163 60.052 52.153 60.0659 51.8966C60.0868 51.4877 60.1008 51.0788 60.1077 50.6768C60.1426 49.6234 60.1287 48.5561 60.0729 47.4888ZM31.4458 34.3487C31.4179 34.3903 31.3343 34.3695 31.3552 34.314C31.4528 34.0784 31.5364 33.8497 31.6131 33.6279C31.2855 33.8081 30.8045 33.7319 30.5397 33.42C29.9054 32.6646 30.3584 31.2161 30.8045 30.4815C30.8185 30.4676 30.8464 30.4746 30.8394 30.4954C30.6233 31.0221 30.456 31.5557 30.4421 32.1309C30.4351 32.4705 30.456 32.8586 30.6512 33.1428C30.9788 33.621 31.411 33.5032 31.7386 33.2052C32.0522 32.0616 32.0662 30.9943 31.5852 29.7399H31.5922C32.3589 31.1052 32.4216 33.0735 31.4458 34.3487Z" fill="#F0A771"/>
<path opacity="0.05" d="M29.3827 8.5809C27.5216 9.98778 26.4412 12.1778 25.6117 14.354C24.7892 16.5301 24.141 18.8033 22.8724 20.7577C21.2692 23.2249 18.7251 25.1169 17.7283 27.8822C16.6409 30.8831 17.6377 34.2166 18.8854 37.1551C20.4258 40.7867 22.4611 44.3697 25.6396 46.7261C28.8181 49.0824 33.3627 49.9556 36.806 48.0013C40.333 45.9914 43.0236 41.4451 44.6128 37.8482C45.7768 35.2007 46.3624 32.2206 45.7141 29.4069C44.9962 26.309 42.8842 23.7516 40.9813 21.2012C39.7824 19.5934 38.6253 17.9023 37.9213 16.0103C37.2382 14.1668 37.3916 12.3164 37.0221 10.4175C36.3042 6.74433 32.0871 6.53641 29.3827 8.5809Z" fill="white"/>
<path opacity="0.03" d="M60.0659 51.8963C59.5711 50.0459 58.5325 47.5925 56.8875 46.8925C54.3363 45.8045 43.4139 53.7745 34.5476 54.62C34.3803 54.6338 34.234 54.6477 34.0736 54.6616C33.5718 54.717 32.9863 54.7517 32.3241 54.7517H32.0592C31.3901 54.7517 30.8115 54.717 30.3097 54.6616C30.1563 54.6477 30.003 54.6338 29.8427 54.62C20.9764 53.7745 10.047 45.8114 7.50279 46.8925C5.59292 47.7034 4.49858 50.8775 4.12916 52.728C4.08036 52.7072 4.03157 52.6864 3.98975 52.6725C3.87822 50.9607 3.84337 49.235 3.93399 47.4885C4.19886 42.3184 5.36987 37.3562 7.10548 32.498C8.71562 27.9724 10.5697 23.5716 11.1064 18.7549C11.4898 15.2758 11.3016 11.7898 10.6115 8.38699C13.3579 7.45138 16.1181 6.57814 18.9899 5.96133C21.9732 5.32373 24.9425 4.94256 27.9328 4.6792C25.068 6.25934 20.9346 10.1543 19.5196 15.5046C17.7004 22.3865 12.9605 23.7171 11.2668 25.7616C9.55903 27.82 10.6534 38.5621 19.0317 45.3193C26.3226 51.2033 28.9226 51.5082 32.1986 51.6468C35.4677 51.5082 38.0676 51.1963 45.3655 45.3193C53.7439 38.5621 54.8382 27.813 53.1374 25.7616C51.4367 23.7102 46.7038 22.3796 44.8776 15.5046C43.4627 10.1958 39.392 6.32864 36.5411 4.72771C39.3711 4.99107 42.1871 5.35838 45.0101 5.96826C47.8818 6.58507 50.6421 7.45831 53.3884 8.39392C52.6983 11.7968 52.5101 15.2758 52.8935 18.7619C53.4302 23.5785 55.2843 27.9724 56.8944 32.5049C58.6301 37.3701 59.7941 42.3323 60.0659 47.4955C60.1496 48.9717 60.1426 50.4409 60.0659 51.8963Z" fill="black"/>
<path opacity="0.05" d="M30.93 30.3982C30.7837 30.5714 30.707 30.7932 30.6373 31.0081C30.4909 31.4378 30.3654 31.8813 30.3445 32.3318C30.3376 32.6229 30.3794 32.9278 30.5327 33.1704C30.6861 33.4199 30.9719 33.6001 31.2646 33.5654C31.6689 33.5238 31.9338 33.1149 32.0592 32.7268C32.2683 32.0615 32.2126 31.4031 32.0244 30.7447C31.871 30.2249 31.3692 29.8576 30.93 30.3982Z" fill="black"/>
<path opacity="0.3" d="M31.1043 30.7171C30.9998 30.8002 30.9371 30.9181 30.8813 31.0428C30.6652 31.5418 30.6443 32.1309 30.8325 32.6437C30.8952 32.8239 31.0207 33.0249 31.2159 33.0318C31.4319 33.0457 31.5783 32.8239 31.6689 32.6299C31.8083 32.3111 31.9129 31.9646 31.9129 31.618C31.9059 31.2577 31.6411 30.2943 31.1043 30.7171Z" fill="#C47B4E"/>
<path d="M31.5852 29.7467C32.0662 31.0011 32.0522 32.0684 31.7386 33.212C31.411 33.51 30.9788 33.6278 30.6512 33.1496C30.4491 32.8585 30.4351 32.4704 30.4421 32.1377C30.456 31.5625 30.6233 31.0289 30.8394 30.5022C30.8533 30.4814 30.8185 30.4744 30.8045 30.4883C30.3584 31.2229 29.8984 32.6714 30.5397 33.4268C30.8045 33.7387 31.2925 33.808 31.6131 33.6347C31.5364 33.8565 31.4528 34.0852 31.3552 34.3208C31.3343 34.3763 31.411 34.3971 31.4458 34.3555C32.4217 33.0733 32.3589 31.1051 31.5852 29.7467C31.5852 29.7398 31.5852 29.7467 31.5852 29.7467Z" fill="#C47B4E"/>
<path d="M58.4273 34.8059C56.9217 30.0793 55.0676 25.5052 54.1824 20.6054C53.4714 16.6273 53.3878 12.5592 53.8966 8.5603C53.9245 8.33853 53.9524 8.10982 53.9872 7.88805C53.8409 7.83261 53.6875 7.77716 53.5342 7.72172C50.7042 6.67522 47.7418 5.93366 44.8492 5.33072C40.6949 4.46441 36.2896 3.90304 31.9959 4.01393C27.7022 3.90304 23.2969 4.46441 19.1426 5.33072C16.25 5.93366 13.2876 6.67522 10.4576 7.72172C10.3043 7.77023 10.1579 7.82568 10.0046 7.88805V7.89498C10.0394 8.11675 10.0673 8.34546 10.0952 8.56723C10.604 12.5661 10.5204 16.6273 9.80939 20.6123C8.93113 25.5191 7.07005 30.0932 5.56446 34.8128C3.83583 40.2463 2.79725 46.3382 3.02727 52.2775C3.04121 52.4785 3.04818 52.6795 3.05515 52.8805C3.37579 53.033 3.69642 53.1785 4.01705 53.3171C9.55846 55.7774 15.6366 57.1912 21.5753 58.0298C22.8369 58.21 24.0985 58.3694 25.3671 58.5011C27.5698 58.7298 29.7793 58.8961 31.9959 59.007C34.2125 58.903 36.4221 58.7367 38.6247 58.5011C39.8933 58.3694 41.1549 58.21 42.4165 58.0298C48.3483 57.1843 54.4264 55.7774 59.9747 53.3171C60.3024 53.1785 60.616 53.033 60.9367 52.8805C60.9506 52.6795 60.9576 52.4855 60.9645 52.2775C61.1946 46.3312 60.156 40.2394 58.4273 34.8059ZM60.0166 52.6726C54.2521 55.0566 48.2716 56.7061 41.9844 57.5516C38.6595 58.0021 35.3347 58.2308 32.0029 58.3625C31.9959 58.3694 31.9889 58.3694 31.9889 58.3625C28.6571 58.2377 25.3323 58.0021 22.0074 57.5516C15.7202 56.6992 9.73968 55.0497 3.97523 52.6726C3.86371 50.9608 3.82886 49.2351 3.91947 47.4886C4.18434 42.3185 5.35535 37.3563 7.09096 32.4981C8.70111 27.9725 10.5552 23.5716 11.0919 18.755C11.4753 15.2759 11.2871 11.7899 10.597 8.38704C13.3433 7.45143 16.1036 6.5782 18.9754 5.96139C23.3039 5.03271 27.6116 4.65153 31.9959 4.37431C36.3802 4.65153 40.6809 5.03271 45.0164 5.96139C47.8882 6.5782 50.6485 7.45143 53.3948 8.38704C52.7047 11.7899 52.5165 15.269 52.8999 18.755C53.4366 23.5716 55.2907 27.9655 56.9008 32.4981C58.6364 37.3632 59.8005 42.3254 60.0723 47.4886C60.1629 49.2351 60.1351 50.9608 60.0166 52.6726Z" fill="#C47B4E"/>
<path opacity="0.05" d="M16.0623 6.68896C15.0029 7.84635 14.3337 9.41956 13.9922 10.972C13.4694 13.363 13.5321 15.851 12.9675 18.2351C11.9359 22.5735 8.88292 26.3298 8.42985 30.7653C8.19286 33.087 8.69472 35.4434 8.38803 37.7581C8.03254 40.4472 6.61757 42.8659 5.39776 45.2915C4.80529 46.4836 4.24069 47.738 3.87823 49.0201C3.88521 48.5142 3.89915 48.0013 3.92703 47.4954C4.1919 42.3253 5.36291 37.3631 7.09852 32.5049C8.70866 27.9793 10.5628 23.5785 11.0995 18.7618C11.4828 15.2827 11.2947 11.7967 10.6046 8.39385C12.4029 7.77704 14.2152 7.18796 16.0623 6.68896Z" fill="black"/>
<path opacity="0.05" d="M60.1078 50.6764C59.8708 48.8121 59.0971 46.9894 58.2398 45.2845C57.0199 42.852 55.605 40.4402 55.2495 37.7512C54.9428 35.4433 55.4447 33.08 55.2146 30.7583C54.7616 26.3228 51.7086 22.5665 50.677 18.2281C50.1054 15.8509 50.1681 13.356 49.6454 10.965C49.2899 9.35019 48.5789 7.71461 47.4497 6.55029C49.4572 7.08394 51.4298 7.72154 53.3884 8.38686C52.6984 11.7897 52.5102 15.2688 52.8935 18.7548C53.4302 23.5715 55.2843 27.9654 56.8945 32.4979C58.6301 37.363 59.7941 42.3252 60.066 47.4884C60.1287 48.5557 60.1426 49.623 60.1078 50.6764Z" fill="black"/>
</g>
<defs>
<clipPath id="clip0">
<rect width="58" height="55" fill="white" transform="translate(3 4)"/>
</clipPath>
</defs>
</svg>
