<svg width="64" height="64" viewBox="0 0 64 64" fill="none" xmlns="http://www.w3.org/2000/svg">
<g clip-path="url(#clip0)">
<path d="M54.0964 36.7003C54.0964 36.8124 54.0964 36.9244 54.0898 37.0365C54.0569 38.6644 53.7344 40.2594 52.8262 41.6896C52.405 42.3553 51.8917 42.9419 51.3191 43.456C51.2335 43.5351 51.1414 43.6141 51.0493 43.6866C49.5488 44.9323 47.6534 45.6903 45.7185 45.9407C43.1387 46.2703 40.4865 45.7628 38.262 44.405C37.0708 43.6801 36.0047 42.7046 35.1162 41.5776C35.0965 41.5578 35.0833 41.538 35.0636 41.5117C35.0307 41.4655 34.9912 41.426 34.9583 41.3798C34.8727 41.3601 34.7872 41.3469 34.7082 41.3337C34.649 41.3205 34.5963 41.3139 34.5371 41.3074C33.925 41.2085 33.313 41.136 32.6878 41.103C32.464 41.0899 32.2337 41.0833 32.0033 41.0767C31.773 41.0833 31.5426 41.0899 31.3189 41.103C31.0885 41.1162 30.8648 41.1294 30.6344 41.1558C30.2396 41.1953 29.8513 41.2414 29.463 41.3074C29.4037 41.3139 29.3511 41.3271 29.2919 41.3337C29.2063 41.3469 29.1208 41.3667 29.0418 41.3798C29.0089 41.426 28.976 41.4721 28.9365 41.5117C28.9167 41.5314 28.9036 41.5512 28.8838 41.5776C27.9954 42.698 26.9292 43.6801 25.738 44.405C23.5136 45.7628 20.8548 46.2703 18.2815 45.9407C16.3467 45.6903 14.4513 44.9323 12.9508 43.6866C12.8586 43.6141 12.7731 43.5351 12.6809 43.456C12.1084 42.9419 11.5951 42.3487 11.1739 41.6896C10.5289 40.6746 10.1801 39.574 10.0221 38.4403V38.4337C9.95634 37.9724 9.92343 37.5044 9.91027 37.0299C9.91027 36.9178 9.90369 36.8058 9.90369 36.6938C9.90369 36.2192 9.93001 35.7513 9.9695 35.2767C9.9695 35.2372 9.97608 35.1976 9.98266 35.1581C10.0419 34.4792 10.1274 33.807 10.2196 33.1479C10.3117 32.5217 10.4039 31.889 10.4894 31.2497C10.7527 30.5445 11.062 29.8459 11.3779 29.167C12.2005 27.4072 13.0627 25.6804 13.7339 23.8614C15.1357 20.0782 16.0044 16.0776 16.5507 12.0835C16.7679 10.5083 16.9719 8.9265 17.143 7.34469C17.143 7.3381 17.143 7.32492 17.143 7.31833C17.6497 7.2656 18.1499 7.1997 18.6501 7.12061C17.6695 13.4874 14.629 19.5246 15.0831 26.0759C15.2937 29.0681 16.3335 31.9088 18.1828 34.2749C19.9532 36.5356 22.3224 38.2953 24.9746 39.3696C26.1329 39.8376 27.3307 40.1803 28.5614 40.3912C28.9102 40.4505 29.2655 40.5033 29.6209 40.5362C29.7065 40.5494 29.7986 40.556 29.8842 40.5626C30.0026 40.5758 30.1211 40.5824 30.2396 40.5889C30.2461 40.5889 30.2461 40.5889 30.2527 40.5889C30.437 40.6087 30.6213 40.6153 30.8121 40.6285C31.207 40.6483 31.6019 40.6614 31.9967 40.6549H32.1349C32.668 40.6549 33.2077 40.6351 33.7342 40.5889C33.7407 40.5889 33.7408 40.5889 33.7473 40.5889C33.8658 40.5824 33.9843 40.5692 34.1027 40.5626C34.1883 40.556 34.2804 40.5494 34.366 40.5362C35.9586 40.3714 37.5249 39.9694 39.0123 39.3696C41.6711 38.2887 44.0337 36.5356 45.8041 34.2749C47.6534 31.9088 48.6932 29.0681 48.9038 26.0759C49.3579 19.518 46.3174 13.4808 45.3368 7.12061C45.837 7.1997 46.3437 7.2656 46.8439 7.31833C46.8439 7.32492 46.8439 7.3381 46.8439 7.34469C47.015 8.9265 47.219 10.5083 47.4362 12.0835C47.989 16.0776 48.8577 20.0782 50.253 23.8614C50.9242 25.6804 51.7864 27.4072 52.609 29.167C52.9249 29.8459 53.2342 30.5379 53.4975 31.2497C53.583 31.889 53.6817 32.5217 53.7673 33.1479C53.945 34.3079 54.0898 35.5074 54.0964 36.7003Z" fill="#B8569B"/>
<path d="M15.32 17.4151C16.0703 14.0801 16.531 10.7056 17.0246 7.33105C16.2677 7.41014 15.5109 7.47605 14.754 7.54196C12.0097 7.78582 9.05473 8.17468 6.78422 9.88171C4.40183 11.681 3.55944 14.6667 3.40807 17.5271C3.09218 23.4786 5.1126 29.4038 4.54662 35.3356C5.38901 35.9222 6.34987 36.344 7.32388 36.5747C8.04781 36.7394 8.79149 36.7922 9.522 36.7328C9.52858 35.6454 9.6602 34.5447 9.81815 33.4374C9.91687 32.7717 10.0222 32.1127 10.1209 31.447C10.496 28.9293 10.7593 26.4116 9.83131 24.0323C9.81815 23.9993 9.8708 23.9795 9.88396 24.0125C10.8119 25.97 10.8251 28.0725 10.6013 30.1749C10.7856 29.7399 10.983 29.305 11.1805 28.8765C12.0426 27.0377 12.9311 25.2318 13.6221 23.3139C14.3263 21.3893 14.8725 19.4121 15.32 17.4151Z" fill="#F0A771"/>
<path d="M60.5854 17.5271C60.4341 14.6667 59.5917 11.681 57.2093 9.88171C54.9453 8.17468 51.9904 7.78582 49.246 7.54196C48.4892 7.47605 47.7324 7.41014 46.9755 7.33105C47.4691 10.7056 47.9298 14.0867 48.6801 17.4151C49.1276 19.4121 49.6738 21.3828 50.3583 23.3139C51.0427 25.2318 51.9312 27.0377 52.7999 28.8765C53.0039 29.305 53.1947 29.7334 53.379 30.1749C53.1553 28.0791 53.1684 25.97 54.0964 24.0125C54.1095 23.9861 54.1622 24.0059 54.149 24.0323C53.2277 26.4116 53.4843 28.9293 53.8594 31.447C53.9582 32.1127 54.07 32.7783 54.1622 33.4374C54.3201 34.5447 54.4518 35.6454 54.4583 36.7328C55.1888 36.7856 55.9325 36.7394 56.6565 36.5747C57.637 36.3506 58.5913 35.9222 59.4337 35.3356C58.8809 29.4038 60.9013 23.4852 60.5854 17.5271Z" fill="#F0A771"/>
<path d="M50.8914 44.306C50.1016 47.3378 49.3645 50.3827 48.6932 53.4475C48.2326 53.6518 47.7653 53.8429 47.298 54.0341C42.395 55.9718 37.2091 56.499 31.9968 56.7034C26.7845 56.499 21.6051 55.9718 16.7021 54.0341C16.5244 53.9616 16.3401 53.8891 16.1624 53.8166C15.8729 53.6979 15.5899 53.5793 15.3069 53.4541C14.6356 50.3959 13.8985 47.3444 13.1088 44.3126C16.5047 46.8434 21.5524 47.0478 25.2905 45.0903C26.587 44.4114 27.7519 43.4755 28.7062 42.3551C28.9299 42.0914 29.1405 41.8146 29.3248 41.5312C29.7263 41.4851 30.1277 41.4455 30.5292 41.4126C30.8187 41.3928 31.1083 41.373 31.3979 41.3599C31.5953 41.3533 31.7862 41.3467 31.9836 41.3467H32.0099C32.2074 41.3467 32.3982 41.3533 32.5957 41.3599C33.2867 41.3862 33.9843 41.439 34.6753 41.5246C34.8662 41.808 35.0702 42.0849 35.2939 42.3485C36.2416 43.4689 37.4065 44.4048 38.7096 45.0837C42.4477 47.0412 47.4955 46.8369 50.8914 44.306Z" fill="#F0A771"/>
<path d="M15.478 26.4973C15.7676 29.5423 16.9851 32.3566 18.9528 34.6832C20.8548 36.9241 23.4149 38.5652 26.1987 39.4813C27.357 39.8636 28.568 40.1338 29.7855 40.292C29.8645 40.3052 29.9369 40.3118 30.0158 40.3184C30.3383 40.3579 30.6542 40.3909 30.9767 40.4106C31.2268 40.4304 31.4703 40.4436 31.7204 40.4436C31.8586 40.4436 32.0033 40.4502 32.1415 40.4436C32.1942 40.4436 32.2403 40.4436 32.2929 40.4436C32.543 40.437 32.7865 40.4304 33.0366 40.4106C33.3525 40.3843 33.675 40.3579 33.9974 40.3184C34.0764 40.3118 34.1488 40.2986 34.2278 40.292C35.4453 40.1272 36.6497 39.857 37.8145 39.4813C40.5984 38.5718 43.1585 36.9241 45.0604 34.6832C47.0348 32.3566 48.2457 29.5423 48.5353 26.4973C48.8643 23.0306 48.1667 19.544 47.3046 16.2024C46.528 13.1904 45.6659 10.2048 45.2644 7.12684C45.2644 7.12025 45.2644 7.10707 45.2579 7.10047C44.863 7.03457 44.4681 6.96207 44.0798 6.87639C43.6915 6.84343 43.3032 6.81048 42.915 6.78411C39.2887 6.51389 35.6559 6.37548 32.0165 6.32275C28.3771 6.38207 24.7509 6.51389 21.1181 6.78411C20.7298 6.81048 20.3415 6.84343 19.9532 6.87639C19.5649 6.96207 19.17 7.03457 18.7752 7.10047C18.7752 7.10707 18.7752 7.12025 18.7686 7.12684C18.3605 10.2048 17.4984 13.1904 16.7284 16.2024C15.8465 19.544 15.1489 23.0306 15.478 26.4973Z" fill="#F0A771"/>
<path opacity="0.07" d="M58.3676 15.8861C58.0714 14.1923 57.3146 12.5182 55.9852 11.4373C54.5242 10.251 52.5827 9.91483 50.7268 9.61165C47.3704 9.06461 43.9877 8.52416 40.5918 8.12212C40.5918 8.10235 40.5918 8.07598 40.5918 8.05621C37.7816 7.6344 34.9583 7.48281 32.1284 7.52235C29.2985 7.48281 26.4751 7.62781 23.665 8.05621C23.665 8.07598 23.665 8.10235 23.665 8.12212C20.2757 8.51757 16.8929 9.06461 13.5299 9.61165C11.6806 9.91483 9.7326 10.251 8.27816 11.4373C6.95534 12.5182 6.20508 14.1923 5.90893 15.8861C5.61277 17.58 5.71807 19.32 5.82337 21.0336C6.07346 24.9683 6.31696 28.9031 6.56705 32.8378C6.59337 33.2596 6.66576 33.7605 7.03431 33.9583C7.38969 34.1494 7.85038 33.9517 8.0873 33.6287C8.32422 33.2992 8.38345 32.8839 8.4361 32.4885C8.87046 28.9888 8.71251 25.5022 8.62696 21.9893C8.6138 21.4488 8.64012 20.8227 9.07448 20.4997C9.72602 20.0252 10.6145 20.6513 11.0686 21.317C13.0561 24.184 12.7863 28.0001 12.4111 31.4735C12.1216 34.1955 11.4964 37.4514 12.9113 39.9362C14.2012 42.1968 16.6034 43.8577 19.2227 44.0423C22.8292 44.2927 26.4356 41.7157 27.3702 38.2159C27.9296 36.1201 27.8769 34.0703 27.436 31.9612C27.1398 30.564 26.9424 29.0085 27.6861 27.7826C28.4034 26.5963 29.8381 26.0361 31.207 25.812C32.2337 25.6406 33.3064 25.6208 34.3002 25.9372C35.2939 26.2535 36.1956 26.9522 36.5904 27.921C36.9458 28.791 36.8537 29.7797 36.6167 30.6892C36.3798 31.5987 35.9981 32.4621 35.7612 33.3717C35.2742 35.2698 35.465 37.3328 36.2943 39.1057C36.9919 40.5952 38.3147 42.2825 39.8744 42.9284C41.421 43.5677 43.3427 44.1477 45.0275 44.0291C47.6468 43.8445 50.0489 42.1836 51.3389 39.923C52.7472 37.4448 52.1286 34.1889 51.839 31.4603C51.4705 27.9869 51.1941 24.1708 53.1816 21.3038C53.6423 20.6447 54.5307 20.012 55.1757 20.4866C55.6101 20.8029 55.6364 21.4356 55.6232 21.9761C55.5377 25.489 55.3797 28.9756 55.8141 32.4753C55.8667 32.8774 55.9259 33.2926 56.1629 33.6155C56.3998 33.9451 56.8605 34.1428 57.2159 33.9451C57.591 33.7408 57.6568 33.2464 57.6831 32.8246C57.9332 28.8899 58.1767 24.9552 58.4268 21.0204C58.5584 19.32 58.6703 17.58 58.3676 15.8861Z" fill="white"/>
<path opacity="0.08" d="M12.0754 38.5193C13.0692 41.1952 15.4516 43.3834 18.2683 43.8579C20.8482 44.2863 23.5793 43.2384 25.3629 41.3139C27.1464 39.3959 27.9887 36.6871 27.8176 34.0705C27.6465 31.4539 26.5146 28.9494 24.8166 26.9524C23.1976 25.041 20.0255 22.7804 17.5115 24.4017C14.879 26.1022 12.569 29.4833 11.8253 32.4887C11.3318 34.4726 11.3647 36.6014 12.0754 38.5193Z" fill="white"/>
<path opacity="0.08" d="M22.4869 28.9163C22.9739 29.0612 23.4412 29.3117 23.8624 29.6874C25.5471 31.2099 26.2908 34.0835 26.0078 36.3771C25.7841 38.1962 24.9614 39.9296 23.6978 41.1291C22.4277 42.3286 20.71 42.9745 19.0384 42.8098C15.1555 42.4275 12.2071 38.0709 13.9116 34.0505C14.6948 32.2051 16.1821 30.8012 17.8208 29.8258C19.1766 29.0217 20.9535 28.4615 22.4869 28.9163Z" fill="white"/>
<path opacity="0.08" d="M52.2141 38.5193C51.2204 41.1952 48.838 43.3834 46.0212 43.8579C43.4414 44.2863 40.7102 43.2384 38.9267 41.3139C37.1432 39.3959 36.3074 36.6871 36.4719 34.0705C36.643 31.4539 37.775 28.9494 39.4729 26.9524C41.0919 25.041 44.264 22.7804 46.7781 24.4017C49.4105 26.1022 51.7205 29.4833 52.4642 32.4887C52.9578 34.4726 52.9249 36.6014 52.2141 38.5193Z" fill="white"/>
<path opacity="0.08" d="M41.8027 28.9163C41.3157 29.0612 40.8484 29.3117 40.4272 29.6874C38.7424 31.2099 37.9988 34.0835 38.2818 36.3771C38.5055 38.1962 39.3282 39.9296 40.5917 41.1291C41.8619 42.3286 43.5796 42.9745 45.2512 42.8098C49.1341 42.4275 52.0825 38.0709 50.378 34.0505C49.5948 32.2051 48.1075 30.8012 46.4688 29.8258C45.1064 29.0217 43.3361 28.4615 41.8027 28.9163Z" fill="white"/>
<path opacity="0.05" d="M29.3247 41.5249C29.7262 41.4787 30.1277 41.4392 30.5291 41.4062C30.1342 42.3685 29.5814 43.2649 28.8838 44.0294C27.1661 45.9144 24.8166 47.1469 22.3553 47.7928C20.7889 48.2014 19.0778 48.4321 17.8537 49.4932C16.7678 50.4357 16.2545 51.9055 16.1755 53.3423C16.1624 53.5005 16.1624 53.6521 16.1624 53.8102C15.8728 53.6916 15.5898 53.573 15.3068 53.4477C14.6355 50.3896 13.8984 47.338 13.1087 44.3062C16.5046 46.8371 21.5524 47.0414 25.2905 45.0839C26.587 44.4051 27.7518 43.4692 28.7061 42.3487C28.9299 42.0851 29.1339 41.8083 29.3247 41.5249Z" fill="black"/>
<path opacity="0.05" d="M30.8845 40.411C30.8648 40.4835 30.8385 40.556 30.8187 40.6351C30.7595 40.8131 30.7002 40.9844 30.6344 41.1558C30.2396 41.1954 29.8513 41.2415 29.463 41.3074C29.4038 41.314 29.3511 41.3272 29.2919 41.3338C29.2063 41.3469 29.1208 41.3667 29.0418 41.3799C29.0089 41.426 28.976 41.4722 28.9365 41.5117C28.9167 41.5315 28.9036 41.5513 28.8838 41.5776C27.9954 42.6981 26.9292 43.6801 25.738 44.4051C23.5136 45.7628 20.8548 46.2703 18.2815 45.9408C16.3467 45.6903 14.4513 44.9324 12.9508 43.6867C12.8586 43.6142 12.7731 43.5351 12.681 43.456C12.1084 42.9419 11.5951 42.3488 11.1739 41.6897C10.5289 40.6747 10.1801 39.574 10.0222 38.4404C10.779 41.8017 13.7208 44.4974 17.3141 45.3212C20.8482 46.1253 24.7706 44.9126 27.232 42.2433C27.7519 41.6831 28.1994 41.0569 28.5745 40.3913C28.6272 40.3056 28.6732 40.2133 28.7193 40.121C29.3643 38.8951 29.7723 37.5308 29.9039 36.1534C30.0224 34.9538 29.9105 33.7872 29.6473 32.6141C29.3906 31.4738 28.7983 30.5907 28.2784 29.5757C28.9628 30.36 29.871 31.5398 30.3383 32.5482C30.9108 33.7806 31.2465 35.1186 31.332 36.4763C31.411 37.7879 31.2662 39.139 30.8845 40.411Z" fill="black"/>
<path opacity="0.05" d="M34.6752 41.5249C34.2738 41.4787 33.8723 41.4392 33.4709 41.4062C33.8658 42.3685 34.4186 43.2649 35.1162 44.0294C36.8339 45.9144 39.1834 47.1469 41.6447 47.7928C43.211 48.2014 44.9222 48.4321 46.1463 49.4932C47.2322 50.4357 47.7455 51.9055 47.8245 53.3423C47.831 53.4939 47.8376 53.6455 47.8376 53.797C48.1272 53.6784 48.4102 53.5598 48.6932 53.4346C49.3645 50.3764 50.1015 47.3248 50.8913 44.293C47.4954 46.8239 42.4476 47.0282 38.7095 45.0708C37.413 44.3919 36.2481 43.456 35.2939 42.3356C35.0701 42.0851 34.8661 41.8083 34.6752 41.5249Z" fill="black"/>
<path opacity="0.05" d="M33.1155 40.411C33.1353 40.4835 33.1616 40.556 33.1814 40.6351C33.2406 40.8131 33.2998 40.9844 33.3656 41.1558C33.7605 41.1954 34.1488 41.2415 34.5305 41.3074C34.5897 41.314 34.6424 41.3272 34.7016 41.3338C34.7872 41.3469 34.8727 41.3667 34.9517 41.3799C34.9846 41.426 35.0175 41.4722 35.057 41.5117C35.0767 41.5315 35.0899 41.5513 35.1096 41.5776C35.9981 42.6981 37.0643 43.6801 38.2554 44.4051C40.4799 45.7628 43.1387 46.2703 45.7119 45.9408C47.6468 45.6903 49.5422 44.9324 51.0427 43.6867C51.1348 43.6142 51.2204 43.5351 51.3125 43.456C51.8851 42.9419 52.3984 42.3488 52.8196 41.6897C53.4646 40.6747 53.8134 39.574 53.9713 38.4404C53.2145 41.8017 50.2727 44.4974 46.6794 45.3212C43.1453 46.1253 39.2229 44.9126 36.7615 42.2433C36.2416 41.6831 35.7941 41.0569 35.419 40.3913C35.3663 40.3056 35.3202 40.2133 35.2742 40.121C34.6292 38.8951 34.2212 37.5308 34.0896 36.1534C33.9711 34.9538 34.083 33.7872 34.3462 32.6141C34.6029 31.4738 35.1952 30.5907 35.7151 29.5757C35.0307 30.36 34.1225 31.5398 33.6552 32.5482C33.0826 33.7806 32.747 35.1186 32.6614 36.4763C32.589 37.7879 32.7338 39.139 33.1155 40.411Z" fill="black"/>
<path d="M56.8811 9.20974C55.8939 8.57702 54.8014 8.14862 53.676 7.84544C53.3338 7.75317 52.9916 7.68067 52.6494 7.60817C51.5372 7.39067 50.4052 7.27203 49.293 7.18635C49.293 7.18635 49.293 7.18635 49.2864 7.18635C49.0297 7.1534 48.7665 7.12704 48.5098 7.09408C47.9833 7.03476 47.4502 6.97545 46.9237 6.92272C46.8843 6.91613 46.8514 6.91613 46.8119 6.90954C46.3051 6.85681 45.7984 6.81067 45.2916 6.76454C45.2653 6.75795 45.2324 6.75795 45.1995 6.75795C44.8309 6.72499 44.4558 6.69204 44.0807 6.65909C44.0675 6.65909 44.0544 6.65909 44.0346 6.65249C43.6463 6.61954 43.258 6.58659 42.8697 6.56022C41.2705 6.435 39.6713 6.32954 38.0655 6.24386C37.3481 6.20432 36.6374 6.16477 35.92 6.13182C34.6103 6.06591 33.3073 6.01977 31.9976 6C30.6945 6.01977 29.3915 6.06591 28.0818 6.12523C27.3645 6.15818 26.6537 6.19773 25.9363 6.23727C24.3371 6.32954 22.7313 6.42841 21.1321 6.55363C20.7438 6.57999 20.3555 6.61295 19.9672 6.6459C19.9475 6.65909 19.9343 6.65909 19.9146 6.65909C19.5394 6.69204 19.1709 6.72499 18.7958 6.75795C18.7694 6.75795 18.7365 6.76454 18.7036 6.76454C18.1969 6.81067 17.6901 6.85681 17.1834 6.90954C17.1439 6.91613 17.111 6.91613 17.0715 6.92272C16.545 6.97545 16.0119 7.03476 15.4854 7.09408C15.2353 7.12704 14.9787 7.15999 14.7154 7.18635C14.7154 7.18635 14.7154 7.18635 14.7088 7.18635C13.5966 7.27203 12.4647 7.39067 11.3524 7.60817C11.0102 7.67408 10.6614 7.75317 10.3258 7.84544C9.1938 8.14203 8.10791 8.57043 7.12073 9.20974C1.77681 12.637 2.92193 20.2296 3.5998 25.5616C4.00125 28.745 4.4027 31.9548 4.31714 35.1645C4.31714 35.2172 4.31714 35.2766 4.31056 35.3293C4.31056 35.3688 4.31056 35.4084 4.30398 35.4479C4.37638 35.5072 4.45535 35.5666 4.52774 35.6259C5.33723 36.2454 6.27176 36.6936 7.31158 36.9243C8.0421 37.089 8.79893 37.1352 9.53603 37.0759C9.56235 38.6643 9.87167 40.2197 10.7535 41.7026C11.3064 42.6319 12.0106 43.4228 12.8135 44.0753C12.8332 44.1676 12.8529 44.2599 12.8727 44.3587C13.5111 47.3444 14.1955 50.3235 14.9458 53.2828C14.9655 53.375 14.9918 53.4607 15.0182 53.553C15.084 53.5859 15.1498 53.6189 15.2156 53.6453C15.2682 53.6716 15.3209 53.698 15.3735 53.7178C17.1176 54.5416 18.9471 55.1743 20.8491 55.6489C23.271 56.2486 25.7389 56.598 28.22 56.8023H28.2266C29.4836 56.9011 30.7472 56.967 32.0108 57C33.2744 56.9605 34.538 56.9011 35.795 56.8023H35.8015C38.2826 56.6045 40.7506 56.2552 43.1725 55.6489C45.0744 55.1743 46.904 54.5416 48.648 53.7178C48.7007 53.6914 48.7533 53.665 48.806 53.6453C48.8718 53.6123 48.9376 53.5859 49.0034 53.553C49.0297 53.4607 49.0495 53.375 49.0758 53.2828C49.8261 50.3235 50.5105 47.3444 51.1489 44.3587C51.1686 44.2665 51.1884 44.1742 51.2081 44.0753C52.011 43.4228 52.7086 42.6319 53.268 41.7026C54.1499 40.2197 54.4592 38.6643 54.4855 37.0759C55.2292 37.1352 55.9795 37.089 56.71 36.9243C57.7498 36.6936 58.6843 36.2454 59.4938 35.6259C59.5333 35.5995 59.5662 35.5666 59.6057 35.5402C59.6452 35.5138 59.6781 35.4809 59.7176 35.4479C59.711 35.3556 59.711 35.2568 59.711 35.1645C59.6189 31.9548 60.0269 28.745 60.4283 25.5616C61.0799 20.2296 62.2316 12.637 56.8811 9.20974ZM18.7563 7.10067C19.1511 7.03476 19.546 6.96226 19.9343 6.87658C20.3226 6.84363 20.7109 6.81067 21.0992 6.78431C24.7254 6.51409 28.3582 6.37568 31.9976 6.32295C35.637 6.38227 39.2632 6.51409 42.8961 6.78431C43.2844 6.81067 43.6726 6.84363 44.0609 6.87658C44.4492 6.96226 44.8441 7.03476 45.239 7.10067C45.239 7.10726 45.239 7.12044 45.2455 7.12704C45.6536 10.205 46.5157 13.1906 47.2857 16.2026C48.1479 19.5442 48.8455 23.0308 48.5164 26.4975C48.2268 29.5425 47.0093 32.3568 45.0415 34.6834C43.1396 36.9243 40.5795 38.5654 37.7956 39.4815C36.6374 39.8638 35.4264 40.134 34.2089 40.2922C34.1299 40.3054 34.0575 40.312 33.9786 40.3186C33.6561 40.3581 33.3402 40.3911 33.0177 40.4108C32.7676 40.4306 32.5241 40.4438 32.274 40.4438C32.2214 40.4438 32.1753 40.4438 32.1227 40.4438C31.9845 40.4438 31.8397 40.4438 31.7015 40.4438C31.4514 40.4372 31.2079 40.4306 30.9578 40.4108C30.6419 40.3845 30.3194 40.3581 29.9969 40.3186C29.918 40.312 29.8456 40.2988 29.7666 40.2922C28.5491 40.1274 27.3447 39.8572 26.1798 39.4815C23.396 38.572 20.8359 36.9243 18.934 34.6834C16.9596 32.3568 15.7487 29.5425 15.4591 26.4975C15.13 23.0308 15.8276 19.5442 16.6898 16.2026C17.4664 13.1906 18.3285 10.205 18.7299 7.12704C18.7497 7.12044 18.7563 7.10726 18.7563 7.10067ZM9.83218 33.4443C9.67423 34.5516 9.54261 35.6522 9.53603 36.7397C8.80551 36.7925 8.06184 36.7463 7.33791 36.5815C6.35731 36.3575 5.40304 35.9291 4.56065 35.3425C5.12663 29.4107 3.10621 23.4921 3.4221 17.534C3.57347 14.6736 4.41586 11.6879 6.79825 9.8886C9.06218 8.18157 12.0171 7.79271 14.7615 7.54885C15.5183 7.48294 16.2752 7.41703 17.032 7.33794C16.5384 10.7125 16.0777 14.0936 15.3275 17.4219C14.8799 19.419 14.3337 21.3896 13.6493 23.3208C12.9648 25.2387 12.0764 27.0446 11.2076 28.8834C11.0036 29.3118 10.8128 29.7402 10.6285 30.1818C10.8523 28.0859 10.8391 25.9769 9.91115 24.0194C9.89799 23.993 9.84534 24.0128 9.8585 24.0392C10.7799 26.4185 10.5232 28.9362 10.1481 31.4539C10.0362 32.1129 9.9309 32.7786 9.83218 33.4443ZM48.6941 53.4409C48.2334 53.6453 47.7661 53.8364 47.2989 54.0275C42.3959 55.9652 37.2099 56.4925 31.9976 56.6968C26.7853 56.4925 21.6059 55.9652 16.7029 54.0275C16.2357 53.843 15.7684 53.6453 15.3077 53.4409C14.6364 50.3828 13.8994 47.3312 13.1096 44.2994C16.5055 46.8303 21.5533 47.0346 25.2914 45.0772C26.5879 44.3983 27.7528 43.4624 28.707 42.3419C28.9308 42.0783 29.1414 41.8015 29.3257 41.5181C30.0167 41.4324 30.7143 41.3797 31.4053 41.3533C31.6027 41.3467 31.7936 41.3401 31.991 41.3401H32.0174C32.2148 41.3401 32.4057 41.3467 32.6031 41.3533C33.2941 41.3797 33.9917 41.4324 34.6827 41.5181C34.8736 41.8015 35.0776 42.0783 35.3014 42.3419C36.2491 43.4624 37.4139 44.3983 38.717 45.0772C42.4551 47.0346 47.5029 46.8303 50.8988 44.2994C50.109 47.3378 49.3654 50.3828 48.6941 53.4409ZM54.0907 37.0363C54.0578 38.6643 53.7353 40.2592 52.8271 41.6895C52.4059 42.3551 51.8925 42.9417 51.32 43.4558C51.2344 43.5349 51.1423 43.614 51.0502 43.6865C49.5496 44.9322 47.6543 45.6901 45.7194 45.9406C43.1396 46.2701 40.4874 45.7626 38.2629 44.4049C37.0717 43.6799 36.0056 42.7044 35.1171 41.5774C35.0974 41.5576 35.0842 41.5379 35.0644 41.5115C35.0315 41.4654 34.9921 41.4258 34.9592 41.3797C34.8736 41.3599 34.788 41.3467 34.7091 41.3335C34.6498 41.3204 34.5972 41.3138 34.538 41.3072C33.9259 41.2083 33.3139 41.1358 32.6886 41.1029C32.4649 41.0897 32.2345 41.0831 32.0042 41.0765C31.7739 41.0831 31.5435 41.0897 31.3198 41.1029C30.6945 41.1358 30.0825 41.2083 29.4704 41.3072C29.4112 41.3138 29.3586 41.327 29.2993 41.3335C29.2138 41.3467 29.1282 41.3665 29.0492 41.3797C29.0163 41.4258 28.9834 41.472 28.9439 41.5115C28.9242 41.5313 28.911 41.551 28.8913 41.5774C28.0028 42.6979 26.9367 43.6799 25.7455 44.4049C23.521 45.7626 20.8622 46.2701 18.289 45.9406C16.3541 45.6901 14.4588 44.9322 12.9582 43.6865C12.8661 43.614 12.7806 43.5349 12.6884 43.4558C12.1159 42.9417 11.6025 42.3485 11.1813 41.6895C10.2731 40.2592 9.95064 38.6643 9.91774 37.0363C9.91774 36.9243 9.91115 36.8122 9.91115 36.7002C9.91115 35.5138 10.0559 34.3143 10.2205 33.1477C10.3126 32.5216 10.4047 31.8889 10.4903 31.2495C10.7535 30.5443 11.0629 29.8457 11.3788 29.1668C12.2014 27.4071 13.0635 25.6803 13.7348 23.8612C15.1366 20.0781 16.0053 16.0774 16.5516 12.0834C16.7688 10.5081 16.9728 8.92634 17.1439 7.34453C17.1439 7.33794 17.1439 7.32476 17.1439 7.31817C17.6506 7.26544 18.1508 7.19953 18.651 7.12044C17.6704 13.4872 14.6299 19.5244 15.084 26.0757C15.2946 29.068 16.3344 31.9086 18.1837 34.2747C19.954 36.5354 22.3233 38.2952 24.9755 39.3695C26.4628 39.9758 28.0226 40.3713 29.6218 40.5361C29.7074 40.5492 29.7995 40.5558 29.8851 40.5624C30.0035 40.5756 30.122 40.5822 30.2404 40.5888C30.247 40.5888 30.247 40.5888 30.2536 40.5888C30.8327 40.6415 31.4119 40.6613 31.991 40.6547C32.0371 40.6547 32.0832 40.6547 32.1292 40.6547C32.6623 40.6547 33.202 40.6349 33.7285 40.5888C33.7351 40.5888 33.7351 40.5888 33.7416 40.5888C33.8601 40.5822 33.9786 40.569 34.097 40.5624C34.1826 40.5558 34.2747 40.5492 34.3603 40.5361C35.9529 40.3713 37.5192 39.9692 39.0066 39.3695C41.6654 38.2886 44.028 36.5354 45.7984 34.2747C47.6477 31.9086 48.6875 29.068 48.8981 26.0757C49.3522 19.5178 46.3117 13.4806 45.3311 7.12044C45.8313 7.19953 46.338 7.26544 46.8382 7.31817C46.8382 7.32476 46.8382 7.33794 46.8382 7.34453C47.0093 8.92634 47.2133 10.5081 47.4305 12.0834C47.9833 16.0774 48.852 20.0781 50.2472 23.8612C50.9185 25.6803 51.7807 27.4071 52.6033 29.1668C52.9192 29.8457 53.2285 30.5377 53.4918 31.2495C53.5773 31.8889 53.676 32.5216 53.7616 33.1477C53.9261 34.3143 54.0709 35.5138 54.0709 36.7002C54.0972 36.8122 54.0907 36.9243 54.0907 37.0363ZM59.4477 35.3359C58.6054 35.9225 57.6445 36.3443 56.6705 36.575C55.9466 36.7397 55.2029 36.7925 54.4724 36.7331C54.4658 35.6456 54.3342 34.545 54.1762 33.4377C54.0775 32.772 53.9722 32.1129 53.8735 31.4473C53.4984 28.9296 53.2351 26.4119 54.1631 24.0326C54.1762 23.9996 54.1236 23.9798 54.1104 24.0128C53.1825 25.9703 53.1693 28.0728 53.3931 30.1752C53.2088 29.7402 53.0113 29.3052 52.8139 28.8768C51.9518 27.038 51.0633 25.2321 50.3723 23.3142C49.6813 21.3896 49.1416 19.4124 48.6941 17.4154C47.9438 14.0804 47.4831 10.7059 46.9896 7.33135C47.7464 7.41044 48.5032 7.47635 49.2601 7.54226C52.0044 7.78612 54.9594 8.17498 57.2233 9.88201C59.6057 11.6813 60.4481 14.667 60.5995 17.5274C60.9022 23.4855 58.8818 29.4041 59.4477 35.3359Z" fill="#C47B4E"/>
</g>
<defs>
<clipPath id="clip0">
<rect width="58" height="51" fill="white" transform="translate(3 6)"/>
</clipPath>
</defs>
</svg>
