<svg width="64" height="64" viewBox="0 0 64 64" fill="none" xmlns="http://www.w3.org/2000/svg">
<g clip-path="url(#clip0)">
<path d="M55.4825 25.0944C55.475 25.0871 55.4675 25.0798 55.46 25.0724C54.0156 23.3337 52.2569 21.8885 50.2212 20.9201C47.1453 19.4529 43.5979 19.2181 40.3872 20.3699C36.9446 21.6024 34.4075 24.3168 33.1801 27.8602C31.8031 31.8365 31.4738 36.6637 32.3195 40.7941C32.6862 42.5914 33.3298 44.3815 34.2429 45.9881C33.7863 46.0835 33.3373 46.1349 32.8808 46.1569C32.4242 46.1789 31.9677 46.1715 31.5037 46.1275C31.0397 46.1715 30.5757 46.1862 30.1192 46.1569C29.6626 46.1349 29.2061 46.0835 28.7571 45.9955C29.6776 44.3888 30.3138 42.5988 30.6805 40.8014C31.5262 36.6711 31.1969 31.8438 29.8198 27.8676C28.5924 24.3241 26.0554 21.6097 22.6127 20.3772C19.4021 19.2254 15.8546 19.4529 12.7787 20.9274C10.7431 21.8958 8.98432 23.3411 7.53991 25.0798C7.53242 25.0871 7.52494 25.0944 7.51746 25.1018C7.76443 24.5369 8.01888 23.9867 8.28083 23.4291C8.77477 22.3654 9.28368 21.3089 9.77763 20.2452C9.85995 20.2012 9.94976 20.1571 10.0321 20.1131C12.659 18.7559 15.6002 18.0223 18.5115 17.5528C20.3226 17.2593 22.1562 17.0466 23.9972 16.8998C24.0122 16.8998 24.0272 16.8998 24.0422 16.8998C25.7335 16.8045 27.4249 16.7091 29.1238 16.6724C29.9171 16.6504 30.7029 16.6431 31.4962 16.6431C32.2895 16.6431 33.0828 16.6577 33.8687 16.6724C35.56 16.7164 37.2589 16.8045 38.9503 16.8998C38.9653 16.8998 38.9802 16.8998 38.9952 16.8998C40.8363 17.0466 42.6624 17.2593 44.481 17.5528C47.2052 17.9929 49.9518 18.6605 52.4515 19.8564C52.7059 19.9811 52.9679 20.1058 53.2148 20.2452C53.6339 21.1475 54.068 22.0426 54.4871 22.9449C54.8314 23.6565 55.1607 24.3682 55.4825 25.0944Z" fill="#B8569B"/>
<path d="M53.0352 19.8416C52.8855 19.7609 52.7359 19.6728 52.5862 19.5995C51.95 19.262 51.2989 18.9612 50.6329 18.6898C50.6029 18.6751 50.5655 18.6604 50.5281 18.6531C48.1332 17.6994 45.5812 17.1565 42.9992 16.8264C41.7643 16.665 40.5145 16.5549 39.2796 16.4595C38.404 16.3642 37.5209 16.2908 36.6303 16.2395C34.9239 16.1367 33.2026 16.1001 31.4962 16.1221C29.9471 16.1074 28.3904 16.1294 26.8412 16.2174C25.7934 16.2761 24.7457 16.3568 23.7054 16.4669C22.3508 16.5622 20.9812 16.6943 19.6266 16.8777C17.1344 17.2225 14.6722 17.7654 12.3521 18.6971C12.0603 18.8145 11.7759 18.9392 11.4915 19.0639C10.9676 19.2987 10.4512 19.5628 9.94977 19.8489C10.3764 18.9319 10.788 18.0148 11.1771 17.0831C12.2923 14.4127 13.1903 11.6029 13.4598 8.71978C14.2755 8.41899 15.1063 8.14021 15.9445 7.87611C18.3842 7.11313 20.8914 6.54091 23.4135 6.14475C24.2442 6.01269 25.0675 5.90265 25.8982 5.80728C27.7617 5.60186 29.6252 5.45514 31.4888 5.41846C31.5112 5.41846 31.5411 5.41846 31.5636 5.41846C32.6039 5.44047 33.6516 5.49916 34.6844 5.57985C35.4852 5.63855 36.2785 5.71924 37.0793 5.80728C38.1944 5.932 39.3021 6.08606 40.4097 6.28414C42.6325 6.67296 44.8327 7.19383 46.9881 7.86143C47.8413 8.12554 48.687 8.41165 49.5177 8.71978C49.5177 8.74912 49.5252 8.7858 49.5252 8.81515C49.8021 11.669 50.6927 14.4494 51.7929 17.0831C52.197 18.0075 52.6161 18.9245 53.0352 19.8416Z" fill="#F0A771"/>
<path d="M21.0561 20.3993C15.9594 19.2182 11.1472 21.4924 7.77194 25.2633C7.53993 25.5274 7.30793 25.7915 7.09089 26.0702C6.91876 26.4884 6.74663 26.8992 6.57449 27.3247C5.1675 30.8902 4.42658 34.6023 4.40413 38.4612C4.3742 45.2472 6.4323 51.5491 8.37066 57.9096C11.3867 59.0908 14.6198 59.685 17.8379 59.575C19.8287 59.5089 21.8119 59.1862 23.7278 58.6066C24.9403 58.2324 26.0928 57.7336 27.2304 57.1907C26.6766 54.4323 26.6092 51.5051 26.7439 48.6733C26.1152 49.3262 25.4043 49.8911 24.6259 50.3606C24.5286 50.4193 24.4538 50.2726 24.5436 50.2066C25.3818 49.5536 26.1302 48.82 26.7813 48.0277C26.8487 47.947 26.916 47.8663 26.9834 47.7783C27.3651 47.2941 27.7168 46.7879 28.0312 46.267C28.1135 46.1423 28.1883 46.0102 28.2557 45.8782C29.4606 43.7433 30.1641 41.315 30.4111 38.7547C30.7928 34.7931 30.4111 30.3179 28.7571 26.6792C27.2603 23.3925 24.4688 21.1916 21.0561 20.3993Z" fill="#F0A771"/>
<path d="M58.5959 38.4609C58.6258 45.2469 56.5677 51.5488 54.6219 57.9093C54.3824 58.0047 54.1354 58.0927 53.8959 58.1808C51.0894 59.1785 48.1183 59.6774 45.1546 59.5747C43.1639 59.5086 41.1806 59.1858 39.2722 58.6063C38.9279 58.5036 38.5911 58.3862 38.2544 58.2615C37.4087 57.946 36.5779 57.5792 35.7622 57.1904C36.316 54.4319 36.3833 51.5048 36.2486 48.673C36.8848 49.3259 37.5883 49.8908 38.3666 50.3603C38.4639 50.419 38.5387 50.2723 38.4489 50.2062C37.6107 49.5533 36.8623 48.8197 36.2112 48.0274C36.1439 47.9467 36.0765 47.866 36.0091 47.7779C35.6275 47.2937 35.2757 46.7875 34.9614 46.2667C34.8865 46.142 34.8042 46.0099 34.7369 45.8778C33.5319 43.743 32.8284 41.3147 32.5815 38.7543C32.1998 34.7927 32.5815 30.3176 34.2354 26.6788C35.7322 23.3848 38.5238 21.1766 41.9365 20.3917C42.2358 20.3256 42.5277 20.2669 42.8271 20.2229C46.4344 19.6654 49.8621 20.8025 52.6985 22.93C53.6041 23.6123 54.4498 24.3973 55.2281 25.2556C55.4601 25.5197 55.6921 25.7838 55.9091 26.0626C56.0888 26.4808 56.2609 26.8916 56.4255 27.3171C57.8325 30.8899 58.5734 34.6093 58.5959 38.4609Z" fill="#F0A771"/>
<path d="M58.97 37.2431C58.8278 33.8244 58.0944 30.5451 56.867 27.3831C56.8072 27.2217 56.7398 27.053 56.6724 26.8916C56.6051 26.7302 56.5377 26.5615 56.4704 26.4001C55.6471 24.4266 54.6892 22.4825 53.7462 20.5311L53.5666 20.1569C51.8228 16.5034 50.1988 12.7986 49.7348 8.78569C49.7198 8.69765 49.7123 8.60228 49.7048 8.51425C49.6375 8.4849 49.5701 8.46289 49.5028 8.43355C45.641 6.85625 41.5922 5.77782 37.3862 5.27895C35.4403 5.05153 33.472 4.97083 31.5037 5.00751H31.4813C29.5205 4.97817 27.5447 5.05153 25.5988 5.27895C21.3928 5.77782 17.3515 6.85625 13.4822 8.43355C13.4149 8.46289 13.3475 8.4849 13.2802 8.51425C13.2727 8.57294 13.2727 8.63163 13.2652 8.69032C13.2652 8.71966 13.2577 8.75634 13.2502 8.78569C12.7862 12.7986 11.1622 16.5034 9.4184 20.1569L9.23879 20.5311C8.30328 22.4825 7.33785 24.4266 6.51461 26.4001C6.44725 26.5615 6.37989 26.7229 6.31254 26.8916C6.24518 27.053 6.18531 27.2217 6.11795 27.3831C4.89057 30.5451 4.15714 33.8244 4.01495 37.2431C3.85778 41.0579 4.35173 44.8801 5.17497 48.5849C5.8635 51.6662 6.76906 54.7181 7.83179 57.6966C7.86173 57.792 7.89915 57.88 7.92908 57.968C8.04134 58.0194 8.1536 58.0707 8.26586 58.1221C8.33322 58.1514 8.39309 58.1808 8.46045 58.2101C11.4017 59.516 14.6123 60.0882 17.8304 59.9855C20.9812 59.8901 24.4388 59.2005 27.3127 57.6232C27.4249 57.5572 27.5372 57.4985 27.6495 57.4325C27.6345 57.2931 27.612 57.1537 27.5971 57.007C27.4025 55.5691 27.2004 54.1312 27.0882 52.6859C26.9834 51.3507 26.9385 50.0155 26.9534 48.6803C26.9534 48.5996 26.9534 48.5262 26.9534 48.4456C27.5222 47.8366 28.0237 47.1617 28.4652 46.4428C29.4381 46.7655 30.4709 46.8903 31.4813 46.8903C32.4991 46.8903 33.5319 46.7582 34.4973 46.4428C34.9389 47.1617 35.4478 47.8366 36.0166 48.4456C36.0166 48.5262 36.0166 48.5996 36.0166 48.6803C36.0315 50.0155 35.9866 51.358 35.8819 52.6859C35.7621 54.1385 35.5601 55.5691 35.373 57.007C35.358 57.1464 35.3355 57.2858 35.3206 57.4325C35.4328 57.4985 35.5451 57.5645 35.6573 57.6232C38.5312 59.2005 41.9963 59.8901 45.1396 59.9855C48.3652 60.0882 51.5684 59.516 54.5096 58.2101C54.5769 58.1808 54.6368 58.1514 54.7042 58.1221C54.8164 58.0707 54.9287 58.0194 55.0409 57.968C55.0709 57.88 55.1083 57.7846 55.1382 57.6966C56.1935 54.7181 57.099 51.6662 57.7876 48.5849C58.6333 44.8728 59.1272 41.0506 58.97 37.2431ZM11.1921 17.0757C12.3072 14.4053 13.2053 11.5955 13.4747 8.71233C17.4637 7.23774 21.6847 6.26935 25.9132 5.79983C27.7767 5.59441 29.6402 5.44769 31.5037 5.41101C33.3747 5.44769 35.2382 5.59441 37.0943 5.79983C41.3227 6.26935 45.5437 7.23774 49.5327 8.71233C49.5327 8.74167 49.5402 8.77835 49.5402 8.8077C49.8171 11.6615 50.7077 14.442 51.8078 17.0757C52.197 18.0074 52.6086 18.9244 53.0352 19.8414C52.8855 19.7607 52.7359 19.6727 52.5862 19.5993C51.95 19.2619 51.2989 18.9611 50.6329 18.6896C47.0555 17.2517 43.1339 16.7382 39.2871 16.4594C36.7126 16.1806 34.1007 16.0926 31.5037 16.1146C28.9068 16.0853 26.2948 16.1806 23.7129 16.4594C19.8586 16.7382 15.9445 17.2517 12.3671 18.6896C11.5364 19.0198 10.7356 19.4086 9.96474 19.8414C10.3838 18.9244 10.8029 18.0074 11.1921 17.0757ZM28.2557 45.8852C28.1808 46.0172 28.106 46.1493 28.0311 46.274C27.7168 46.7949 27.3651 47.3011 26.9834 47.7853C26.916 47.866 26.8561 47.9467 26.7813 48.0347C26.1302 48.827 25.3818 49.5607 24.5436 50.2136C24.4613 50.2796 24.5286 50.4263 24.6259 50.3677C25.4042 49.8981 26.1077 49.3259 26.7439 48.6803C26.6092 51.5121 26.6765 54.4393 27.2304 57.1977C26.0928 57.7406 24.9402 58.2395 23.7278 58.6136C21.8119 59.1932 19.8361 59.516 17.8379 59.582C14.6198 59.6921 11.3867 59.0978 8.37064 57.9167C6.4248 51.5561 4.36669 45.2543 4.40411 38.4682C4.41908 34.6094 5.16748 30.8972 6.57448 27.3318C6.73913 26.9136 6.91126 26.4954 7.09087 26.0773C7.3154 25.7985 7.53992 25.5344 7.77192 25.2703C11.1472 21.4994 15.9594 19.2252 21.056 20.4063C24.4688 21.1987 27.2603 23.3995 28.7646 26.6935C30.4185 30.3323 30.8002 34.8074 30.4185 38.769C30.1641 41.322 29.4606 43.7503 28.2557 45.8852ZM32.8808 46.1566C32.4243 46.1786 31.9677 46.1713 31.5037 46.1273C31.0397 46.1713 30.5757 46.186 30.1192 46.1566C29.6627 46.1346 29.2061 46.0833 28.7571 45.9952C29.6776 44.3886 30.3138 42.5985 30.6805 40.8012C31.5262 36.6708 31.1969 31.8436 29.8198 27.8673C28.5924 24.3239 26.0554 21.6095 22.6127 20.377C19.4021 19.2252 15.8547 19.4526 12.7787 20.9272C10.7431 21.8956 8.98433 23.3408 7.53992 25.0795C7.53243 25.0869 7.52495 25.0942 7.51746 25.1015C8.24341 23.4656 9.02175 21.8663 9.77763 20.2449C9.85996 20.2009 9.94977 20.1569 10.0321 20.1129C12.659 18.7557 15.6002 18.022 18.5115 17.5525C20.3226 17.2591 22.1562 17.0463 23.9973 16.8996C24.0122 16.8996 24.0272 16.8996 24.0422 16.8996C25.7335 16.8042 27.4249 16.7089 29.1238 16.6722C29.9171 16.6502 30.7029 16.6428 31.4962 16.6428C32.2895 16.6428 33.0828 16.6575 33.8687 16.6722C35.5601 16.7162 37.2589 16.8042 38.9503 16.8996C38.9653 16.8996 38.9802 16.8996 38.9952 16.8996C40.8363 17.0463 42.6624 17.2591 44.481 17.5525C47.2052 17.9927 49.9518 18.6603 52.4515 19.8561C52.7059 19.9808 52.9679 20.1055 53.2148 20.2449C53.9707 21.8663 54.7565 23.4729 55.475 25.1015C55.4675 25.0942 55.46 25.0869 55.4526 25.0795C54.0081 23.3408 52.2494 21.8956 50.2137 20.9272C47.1378 19.46 43.5904 19.2252 40.3798 20.377C36.9371 21.6095 34.4 24.3239 33.1727 27.8673C31.7956 31.8436 31.4663 36.6708 32.312 40.8012C32.6787 42.5985 33.3223 44.3886 34.2354 45.9952C33.7863 46.0833 33.3373 46.1346 32.8808 46.1566ZM54.6218 57.9093C51.6058 59.0905 48.3727 59.6847 45.1546 59.5747C43.1638 59.5086 41.1805 59.1858 39.2721 58.6063C38.0597 58.2321 36.9072 57.7333 35.7696 57.1904C36.3234 54.4319 36.3908 51.5048 36.2561 48.673C36.8922 49.3259 37.5957 49.8908 38.374 50.3603C38.4713 50.419 38.5462 50.2723 38.4564 50.2063C37.6182 49.5533 36.8698 48.8197 36.2186 48.0274C36.1513 47.9467 36.0839 47.866 36.0166 47.778C35.6349 47.2938 35.2831 46.7876 34.9688 46.2667C34.894 46.142 34.8117 46.0099 34.7443 45.8779C33.5394 43.743 32.8359 41.3147 32.5889 38.7543C32.2072 34.7928 32.5889 30.3176 34.2429 26.6788C35.7397 23.3849 38.5312 21.1766 41.9439 20.3917C47.0405 19.2105 51.8527 21.4848 55.228 25.2556C55.46 25.5197 55.692 25.7838 55.9091 26.0626C56.0887 26.4808 56.2608 26.8916 56.4255 27.3171C57.8325 30.8825 58.5809 34.5947 58.5958 38.4536C58.6258 45.2469 56.5677 51.5561 54.6218 57.9093Z" fill="#C47B4E"/>
<path opacity="0.1" d="M42.2208 22.0861C37.1242 22.9078 32.5964 34.3157 39.3769 42.0261C46.1574 49.7365 54.779 38.7468 53.7686 32.4303C52.7658 26.1137 47.3249 21.2718 42.2208 22.0861Z" fill="white"/>
<path opacity="0.1" d="M20.7866 22.0861C25.8833 22.9078 30.4111 34.3157 23.6306 42.0261C16.8501 49.7439 8.22847 38.7468 9.23882 32.4303C10.2492 26.1137 15.6825 21.2718 20.7866 22.0861Z" fill="white"/>
<g opacity="0.1">
<path opacity="0.1" d="M55.4825 25.0944C55.475 25.0871 55.4675 25.0798 55.46 25.0724C54.0156 23.3337 52.2569 21.8885 50.2212 20.9201C47.1453 19.4529 43.5979 19.2181 40.3872 20.3699C36.9446 21.6024 34.4075 24.3168 33.1801 27.8602C31.8031 31.8365 31.4738 36.6637 32.3195 40.7941C32.6862 42.5914 33.3298 44.3815 34.2429 45.9881C33.7863 46.0835 33.3373 46.1349 32.8808 46.1569C32.4242 46.1789 30.5757 46.1789 30.1192 46.1569C29.6626 46.1349 29.2061 46.0835 28.7571 45.9955C29.6776 44.3888 30.3138 42.5988 30.6805 40.8014C31.5262 36.6711 31.1969 31.8438 29.8198 27.8676C28.5924 24.3241 26.0554 21.6097 22.6127 20.3772C19.4021 19.2254 15.8546 19.4529 12.7787 20.9274C10.7431 21.8958 8.98432 23.3411 7.53991 25.0798C7.53242 25.0871 7.52494 25.0944 7.51746 25.1018C7.76443 24.5369 8.01888 23.9867 8.28083 23.4291C9.73272 22.0646 11.4091 20.9274 13.2502 20.1498C15.8322 19.064 18.7584 18.7046 21.4976 19.3355C23.87 19.8857 26.003 21.1402 28.076 22.3947C29.1762 23.0623 30.3811 23.7519 31.6609 23.5978C32.7161 23.4658 33.5918 22.7762 34.4674 22.1893C38.157 19.7316 42.8644 18.7853 47.2426 19.6289C49.8844 20.1425 52.3841 21.2943 54.4946 22.9376C54.8314 23.6565 55.1607 24.3682 55.4825 25.0944Z" fill="black"/>
<path opacity="0.1" d="M51.7704 48.189C50.9173 50.1551 48.4101 50.7347 46.2472 50.9988C44.0844 51.2629 41.7419 51.2849 39.9906 52.5614C38.2468 53.8306 37.5358 56.2809 38.2618 58.269C37.4161 57.9536 36.5854 57.5867 35.7696 57.1979C36.3234 54.4395 36.3908 51.5123 36.2561 48.6805C36.8922 49.3334 37.5957 49.8983 38.3741 50.3679C38.4713 50.4266 38.5462 50.2798 38.4564 50.2138C37.6182 49.5609 36.8698 48.8272 36.2187 48.0349C36.1513 47.9542 36.0839 47.8735 36.0166 47.7855C35.6349 47.3013 35.2832 46.7951 34.9688 46.2742C34.894 46.1495 34.8117 46.0175 34.7443 45.8854C33.5394 43.7505 32.8359 41.3222 32.5889 38.7619C32.2072 34.8003 32.5889 30.3252 34.2429 26.6864C35.7397 23.3924 38.5312 21.1842 41.9439 20.3992C42.2433 20.3332 42.5352 20.2745 42.8345 20.2305C40.5744 20.744 38.5237 22.1232 37.0494 23.8986C35.2757 26.0335 34.2578 28.7039 33.719 31.4036C33.0829 34.5949 33.0754 37.9476 34.0932 41.0435C35.111 44.1394 37.2065 46.9418 40.1103 48.5118C42.2358 49.6562 45.177 50.1771 47.5569 49.6856C49.0163 49.3775 50.4009 48.7832 51.7704 48.189Z" fill="black"/>
<path opacity="0.1" d="M58.5958 38.461C58.6258 45.2471 56.5677 51.5489 54.6218 57.9095C54.3823 58.0049 54.1354 58.0929 53.8959 58.1809C54.0905 56.0901 54.2925 53.9919 54.4871 51.9011C54.5694 51.0134 54.6518 50.1257 54.8987 49.2674C55.2355 48.0936 55.8642 47.0225 56.2982 45.878C57.3385 43.1709 57.2487 40.1851 57.1364 37.2946C57.0092 34.0299 56.8521 30.7066 55.7145 27.64C55.0634 25.894 54.0455 24.2287 52.6984 22.9375C53.604 23.6198 54.4497 24.4048 55.228 25.2631C55.46 25.5272 55.692 25.7913 55.9091 26.0701C56.0887 26.4883 56.2608 26.8991 56.4255 27.3246C57.8325 30.89 58.5734 34.6095 58.5958 38.461Z" fill="black"/>
<path opacity="0.1" d="M11.237 48.189C12.0902 50.1551 14.5973 50.7347 16.7602 50.9988C18.9231 51.2629 21.2656 51.2849 23.0168 52.5614C24.7606 53.8306 25.4716 56.2809 24.7456 58.269C25.5913 57.9536 26.4221 57.5867 27.2378 57.1979C26.684 54.4395 26.6166 51.5123 26.7514 48.6805C26.1152 49.3334 25.4117 49.8983 24.6334 50.3679C24.5361 50.4266 24.4612 50.2798 24.5511 50.2138C25.3893 49.5609 26.1377 48.8272 26.7888 48.0349C26.8561 47.9542 26.9235 47.8735 26.9908 47.7855C27.3725 47.3013 27.7243 46.7951 28.0386 46.2742C28.1134 46.1495 28.1958 46.0175 28.2631 45.8854C29.468 43.7505 30.1715 41.3222 30.4185 38.7619C30.8002 34.8003 30.4185 30.3252 28.7646 26.6864C27.2678 23.3924 24.4762 21.1842 21.0635 20.3992C20.7641 20.3332 20.4723 20.2745 20.1729 20.2305C22.4331 20.744 24.4837 22.1232 25.958 23.8986C27.7318 26.0335 28.7496 28.7039 29.2884 31.4036C29.9246 34.5949 29.9321 37.9476 28.9142 41.0435C27.8964 44.1394 25.8009 46.9418 22.8971 48.5118C20.7716 49.6562 17.8304 50.1771 15.4505 49.6856C13.9836 49.3775 12.6066 48.7832 11.237 48.189Z" fill="black"/>
<path opacity="0.1" d="M4.41158 38.461C4.38164 45.2471 6.43974 51.5489 8.38559 57.9095C8.62508 58.0049 8.87205 58.0929 9.11154 58.1809C8.91695 56.0901 8.71488 53.9919 8.5203 51.9011C8.43798 51.0134 8.35565 50.1257 8.10868 49.2674C7.7719 48.0936 7.14324 47.0225 6.70917 45.878C5.66889 43.1709 5.7587 40.1851 5.87096 37.2946C5.99819 34.0299 6.15535 30.7066 7.29292 27.64C7.94403 25.894 8.96186 24.2287 10.309 22.9375C9.40341 23.6198 8.55772 24.4048 7.77938 25.2631C7.54738 25.5272 7.31537 25.7913 7.09834 26.0701C6.92621 26.4883 6.74659 26.8991 6.58194 27.3246C5.17495 30.89 4.43403 34.6095 4.41158 38.461Z" fill="black"/>
<path opacity="0.1" d="M14.3653 14.3906C13.6244 16.0633 12.6664 17.6405 11.4989 19.0638C10.975 19.2985 10.4586 19.5627 9.95721 19.8488C10.3838 18.9317 10.7954 18.0147 11.1846 17.083C12.2997 14.4126 13.1978 11.6028 13.4672 8.71965C14.283 8.41886 15.1137 8.14008 15.9519 7.87598C15.9744 7.99336 15.9818 8.11074 15.9893 8.24279C16.0941 10.2162 15.1586 12.6005 14.3653 14.3906Z" fill="black"/>
<path opacity="0.1" d="M53.0352 19.8415C52.8855 19.7608 52.7358 19.6727 52.5862 19.5994C51.95 19.2619 51.2989 18.9611 50.6328 18.6897C50.6029 18.675 50.5655 18.6603 50.5281 18.653C50.094 17.978 49.7123 17.2664 49.3755 16.5401C48.7319 15.1683 48.2454 13.723 47.8413 12.2631C47.4896 10.9792 46.8235 9.27723 46.9806 7.94936C46.9806 7.92002 46.9881 7.89067 46.9956 7.86133C47.8488 8.12543 48.6945 8.41155 49.5252 8.71967C49.5252 8.74902 49.5327 8.7857 49.5327 8.81504C49.8096 11.6689 50.7002 14.4493 51.8003 17.083C52.197 18.0074 52.6161 18.9244 53.0352 19.8415Z" fill="black"/>
</g>
<path opacity="0.1" d="M31.5785 5.41114C31.0696 8.34565 30.0443 11.1921 28.5475 13.7818C28.0536 14.6328 27.5072 15.4692 26.8561 16.2101C25.8084 16.2688 24.7606 16.3495 23.7203 16.4596C22.3657 16.5549 20.9961 16.687 19.6415 16.8704C19.6565 16.8264 19.6715 16.7824 19.6864 16.7383C20.9363 13.2169 22.0664 9.61483 23.4285 6.1301C24.2592 5.99805 25.0824 5.888 25.9131 5.79263C27.7767 5.58722 29.6402 5.44049 31.5037 5.40381C31.5262 5.40381 31.5486 5.41114 31.5785 5.41114Z" fill="white"/>
<path opacity="0.1" d="M43.0067 16.8188C41.7718 16.6574 40.522 16.5473 39.2871 16.452C38.4115 16.3566 37.5284 16.2832 36.6378 16.2319C35.8445 14.7646 35.5152 13.0626 35.3505 11.3973C35.1559 9.44583 35.1484 7.47237 34.6994 5.56494C35.5002 5.62363 36.2935 5.70433 37.0943 5.79237C38.2094 5.91708 39.317 6.07114 40.4247 6.26922C40.6118 6.72407 40.7839 7.17892 40.9485 7.62643C41.7793 9.84932 42.6175 12.0869 43.0067 14.4198C43.1264 15.1975 43.1713 16.0558 43.0067 16.8188Z" fill="white"/>
</g>
<defs>
<clipPath id="clip0">
<rect width="55" height="55" fill="white" transform="translate(4 5)"/>
</clipPath>
</defs>
</svg>
