<svg width="64" height="64" viewBox="0 0 64 64" fill="none" xmlns="http://www.w3.org/2000/svg">
<mask id="mask0" mask-type="alpha" maskUnits="userSpaceOnUse" x="4" y="4" width="56" height="56">
<rect x="4" y="4" width="56" height="56" fill="#C4C4C4"/>
</mask>
<g mask="url(#mask0)">
<path fill-rule="evenodd" clip-rule="evenodd" d="M52.4319 75C55.8804 65.4434 57.7041 57.5404 57.9504 50.4712C58.3199 39.9717 56.1835 32.0734 52.7824 22.8295C51.9297 20.5174 51.4181 18.082 51.1623 15.5614C51.0108 14.0737 50.9918 12.6286 51.2287 11.2308C51.5129 9.54884 51.726 7.84315 51.8776 6.11851C56.0509 4.27067 56.4867 -0.121481 54.3361 -5.06325C53.4977 -6.99636 52.5503 -9.03846 51.9392 -11H12.897C12.2386 -9.12848 11.2391 -7.20484 10.4149 -5.30015C8.31637 -0.467358 7.97531 4.46967 11.8928 6.39805C12.1533 8.95185 13.3565 15.3956 12.7597 18.0631C11.8596 22.0999 9.35377 27.9087 7.97531 32.8552C3.85414 47.6805 7.0137 61.743 12.0491 75H52.4319Z" fill="#DEB192"/>
<path fill-rule="evenodd" clip-rule="evenodd" d="M7.66269 34.0399C4.02469 48.4341 7.1511 62.0986 12.0491 75.0002H14.716C14.6355 70.7692 13.4986 66.5144 11.8218 62.8187C7.00899 52.215 7.06583 43.1606 7.70058 33.9404L7.66269 34.0399Z" fill="#CFA284"/>
<path fill-rule="evenodd" clip-rule="evenodd" d="M52.4319 75.0002C55.8804 65.4436 57.7041 57.5406 57.9504 50.4714C58.1494 44.7242 57.6046 39.7493 56.5057 34.9117C56.392 34.5895 56.2783 34.2674 56.1599 33.9404C56.7899 43.1606 56.8515 52.215 52.0434 62.8187C50.3665 66.5144 49.2297 70.7692 49.1491 75.0002H52.4319Z" fill="#CFA284"/>
<path fill-rule="evenodd" clip-rule="evenodd" d="M36.7193 -6.14352C37.0319 -7.72128 38.1025 -9.46014 39.4146 -11H49.4902C49.5186 -8.25668 50.1912 -5.4186 51.2713 -3.01168C52.3513 -0.604759 52.6355 0.9351 52.4081 2.13856C51.9771 4.43177 49.1254 5.10457 45.8332 4.71131C41.4183 4.19013 35.625 -0.666354 36.7193 -6.14352Z" fill="#E6BA9C"/>
<path fill-rule="evenodd" clip-rule="evenodd" d="M52.3617 0.442658C52.248 -0.0690491 52.049 -0.580757 51.7837 -1.0593C49.1875 -5.65519 44.1135 -2.8408 46.3686 1.47081C48.2305 5.02433 53.295 4.69267 52.3617 0.442658Z" fill="#DEB192"/>
<path fill-rule="evenodd" clip-rule="evenodd" d="M32.0869 -2.2395C32.1011 -2.2395 32.1105 -2.2395 32.12 -2.2395C33.0769 -2.23003 33.9722 -0.998138 35.4548 0.991835C37.6196 3.89151 41.5656 7.94253 46.3167 8.1889H46.3688H46.4067H46.4115C47.5105 8.1889 48.6379 7.98991 49.7795 7.53979V7.54453L49.7937 7.53979L49.7842 7.66772C49.8458 7.64403 49.9074 7.62508 49.9689 7.60139V7.60613L49.9832 7.60139C49.5284 10.0652 49.5521 12.7422 49.8174 15.5234H49.8553L49.86 15.5613C50.1253 18.0819 50.6558 20.522 51.5369 22.8294C52.5411 25.4685 53.4412 27.9986 54.2038 30.5098C55.9091 36.1338 55.8428 40.1232 52.2664 44.9418C50.2484 47.6614 47.8136 50.5516 45.0472 53.2286C40.4524 57.6776 36.2933 60.781 32.3237 60.402C24.8961 59.696 18.198 52.2384 11.7178 44.9418C7.72458 40.4454 8.07511 36.1338 9.78043 30.5098C10.5431 27.9986 11.4384 25.4685 12.4473 22.8294C13.3284 20.5173 13.859 18.0819 14.1242 15.5613L14.129 15.5234H14.1621C14.4274 12.7374 14.4511 10.0652 13.9963 7.60139L14.0105 7.60613V7.60139C14.0721 7.62508 14.1337 7.64403 14.1953 7.66772L14.1858 7.53979L14.2 7.54453V7.53979C15.3416 7.98991 16.469 8.1889 17.568 8.1889H17.5728H17.6107H17.6628C22.4139 7.94253 26.3598 3.89625 28.5246 0.991835C30.0073 -0.9934 30.9073 -2.22529 31.8595 -2.2395C31.869 -2.2395 31.8784 -2.2395 31.8926 -2.2395C31.9258 -2.2395 31.959 -2.2395 31.9921 -2.23476C32.0205 -2.23476 32.0537 -2.2395 32.0869 -2.2395Z" fill="#EBC0A4"/>
<path fill-rule="evenodd" clip-rule="evenodd" d="M32.3708 58.905C32.2571 58.905 32.1481 58.905 32.0392 58.9003C31.9255 58.905 31.8165 58.905 31.7029 58.905V58.8766C29.5381 58.6823 27.4064 57.5026 25.6537 55.3325C23.3374 52.466 21.1536 49.4005 19.4672 46.1171C13.9108 35.3001 16.6772 22.5312 19.8983 11.3399C20.2536 10.1223 20.571 9.12253 21.0352 7.49738L21.1583 7.08044C23.1526 6.99515 25.1374 6.16599 27.0038 5.08099C28.2307 4.36554 28.7991 3.60272 29.6565 2.51771C30.5186 1.4327 31.1723 0.797806 31.8544 0.78833C31.8639 0.78833 31.8734 0.78833 31.8876 0.78833C31.9018 0.78833 31.9113 0.78833 31.9255 0.78833H31.9539C31.9634 0.78833 31.9729 0.78833 31.9871 0.78833C32.0013 0.78833 32.0202 0.78833 32.0345 0.78833C32.0487 0.78833 32.0676 0.78833 32.0818 0.78833C32.0913 0.78833 32.1008 0.78833 32.115 0.78833H32.1434C32.1576 0.78833 32.1671 0.78833 32.1813 0.78833C32.1908 0.78833 32.2002 0.78833 32.2145 0.78833C32.8918 0.797806 33.5408 1.41375 34.384 2.47981C35.2556 3.57429 35.8288 4.35607 37.0651 5.08099C38.9315 6.16599 40.9163 6.99515 42.9106 7.08044L43.0337 7.49738C43.4979 9.12253 43.8153 10.1223 44.1706 11.3399C47.3917 22.5312 50.1581 35.3049 44.6017 46.1171C42.9153 49.4005 40.7315 52.4613 38.4152 55.3325C36.6625 57.5026 34.5308 58.6823 32.366 58.8766V58.905H32.3708Z" fill="#FCECE2"/>
<path fill-rule="evenodd" clip-rule="evenodd" d="M33.9102 1.90147L29.988 2.10521C30.0969 1.97728 30.2012 1.85409 30.3054 1.74038L33.5976 1.56981C33.7018 1.66931 33.806 1.78302 33.9102 1.90147ZM33.4128 1.38503L30.5375 1.49874C30.6796 1.3566 30.8217 1.23815 30.9591 1.13391L33.0007 1.05811C33.1334 1.14339 33.2707 1.2571 33.4128 1.38503ZM34.796 2.98648L29.0311 3.29919C29.1259 3.18074 29.2253 3.06229 29.3248 2.9391L34.5355 2.65956C34.6208 2.76853 34.7108 2.88225 34.796 2.98648ZM34.5118 2.63587L34.3887 2.48425C34.3413 2.42266 34.2939 2.36106 34.2465 2.30421L29.6375 2.54111C29.538 2.6643 29.4432 2.78749 29.3532 2.9012L34.5118 2.63587ZM30.0069 12.3867L22.2478 12.7895L27.2263 12.9506L36.9703 12.4483L36.3877 12.401L33.5739 12.4862L33.5692 12.3915L30.0069 12.3867ZM21.2909 12.8369L19.4435 12.9316L19.543 12.581L23.4557 12.3773L19.6045 12.3725C19.6472 12.2209 19.6898 12.0646 19.7372 11.9129L35.8619 11.2638L36.2124 11.2259L26.1416 11.2117V11.1501L19.8793 11.406L19.8982 11.3444C19.9267 11.2449 19.9551 11.1501 19.9835 11.0554L23.2425 10.9227L20.0167 10.9369C20.083 10.7095 20.1493 10.4868 20.2204 10.2594L34.8671 9.74292L20.353 9.80925L20.4572 9.46337L25.72 9.43968L25.7105 9.17909L38.6046 8.72424L37.3303 8.58684L37.3872 8.2457L41.0299 8.64369L43.3558 8.56315C43.3889 8.6816 43.4221 8.79531 43.4552 8.90428L43.4221 8.89955H43.4552L43.5642 9.25964L41.0062 8.98009L34.6113 9.20752L36.2171 9.38756L43.5879 9.3544L43.7158 9.77608L40.5894 9.88506L42.7684 10.1314L43.8105 10.0888C43.8863 10.3352 43.9573 10.5768 44.0284 10.8232L42.9531 10.8279L42.4605 10.88H44.0473C44.0852 11.008 44.1231 11.1359 44.161 11.2638L43.2894 11.297L43.5831 11.3302L44.1705 11.3017L44.18 11.3302C44.2226 11.4723 44.2605 11.6144 44.3031 11.7566L43.5689 11.676L39.0735 11.9082L39.9309 11.9366L44.3126 11.804C44.431 12.2114 44.5447 12.6189 44.6584 13.0311L42.2899 12.8463L35.6345 13.2064L40.253 13.358L44.6821 13.1164C44.7674 13.4149 44.8479 13.7181 44.9284 14.0166L40.3193 14.2583L43.8437 14.4857L45.0421 14.4241C45.0847 14.5899 45.1321 14.7558 45.1747 14.9216L43.8389 14.8363L31.9396 15.457L33.5407 15.5944L45.1984 15.0021C45.2269 15.1158 45.26 15.2296 45.2884 15.3433L36.0892 15.8123L39.1919 16.0777L45.3927 15.7602C45.4211 15.8739 45.4495 15.9876 45.4779 16.1014L41.7357 16.2909L45.6106 16.6225C45.6579 16.8121 45.7053 17.0063 45.7527 17.1958L36.3877 17.5986L39.6325 17.9539L45.8664 17.6839C45.8948 17.7976 45.9185 17.9113 45.9469 18.025L41.9631 18.1956L42.8205 18.2856L45.8285 18.1624L45.98 18.1434C46.0085 18.2619 46.0369 18.3803 46.0606 18.4941L45.8569 18.5035L45.4069 18.5557L46.089 18.6267C46.25 19.3327 46.4016 20.0387 46.5485 20.7494L43.4884 20.9152L46.5816 20.901C46.6574 21.2848 46.7332 21.6685 46.8043 22.0571L44.1516 22.1945L46.738 22.474L46.8801 22.4645C46.9369 22.7915 46.9938 23.1184 47.0506 23.4453L46.6006 23.4169L45.5727 23.469L47.0743 23.5874C47.1216 23.8907 47.169 24.1939 47.2164 24.4971L43.1284 24.3645L39.4714 24.5493L40.3478 24.6251L42.0531 24.4356L42.1005 24.7719L43.3984 24.8809L47.2495 24.7246C47.2922 25.0041 47.3301 25.2837 47.3632 25.5679L45.1416 25.3784L34.1186 25.8522L35.8429 26.0417L40.6367 25.8475L40.6462 26.0607L47.3822 25.7717C47.3964 25.8901 47.4106 26.0038 47.4248 26.1223L40.1393 26.4966L44.7342 26.9799L47.5101 26.8283C47.5243 26.9704 47.5385 27.1173 47.5527 27.2594L47.439 27.2642L47.5574 27.2784C47.5669 27.3968 47.5811 27.5153 47.5906 27.629L44.9568 27.3542L42.9247 27.4252L38.4956 27.6621L40.9399 27.9275L42.271 27.8564L42.2805 27.9891L47.6096 27.7996C47.6285 28.0365 47.6474 28.2734 47.6664 28.5055L46.7143 28.5576L47.3301 28.624L47.2732 28.9698L44.5447 28.6714L40.8973 28.8609V28.913L39.4667 28.9367L38.5667 28.9841L40.253 29.1736L43.0147 29.1594L43.5737 29.1309V29.1594L47.709 29.1404C47.7138 29.2541 47.7232 29.3726 47.728 29.4863L43.1852 29.5052L43.9716 29.5953L46.16 29.6L47.7327 29.5195C47.7422 29.6616 47.7469 29.8037 47.7517 29.9459H46.7664L46.7143 30.2586L44.6489 30.0217L40.0778 30.2539L42.7494 30.5381L46.4869 30.3486L46.5058 30.6945L45.0895 30.7656L47.7848 30.7703C47.7896 30.9882 47.7943 31.2062 47.799 31.4241L38.2256 31.1209L36.615 31.2015L43.1663 31.7132L47.7896 31.5142C47.7896 31.6279 47.7896 31.7463 47.7896 31.86L46.0274 31.9359H46.0416L45.999 32.2817L43.1521 32.059L39.3862 32.2201L45.7811 32.4286L47.7801 32.3433C47.7801 32.5092 47.7753 32.675 47.7706 32.8408L45.7763 32.7745L28.6948 33.5089L33.9765 34.068L47.7469 33.5847C47.7422 33.6984 47.7375 33.8169 47.7327 33.9306L36.4398 34.3286L37.5008 34.4423L37.4487 34.7834L33.9576 34.4138L26.9184 34.6602L30.6843 35.0724L47.6996 34.4754C47.6901 34.5891 47.6853 34.7076 47.6759 34.8213L40.9067 35.0582L47.6569 35.0298C47.6475 35.1435 47.638 35.2619 47.6285 35.3757L34.0192 35.4373L36.3261 35.6884L36.2692 36.0342L30.9401 35.4515L29.6327 35.4562L24.0857 35.6505L29.2538 36.238L47.548 36.1574C47.5338 36.2712 47.5196 36.3896 47.5053 36.5033L33.4886 36.5649L33.5028 36.6597L38.4577 36.6644L39.7699 36.6123V36.6644L47.4817 36.6739C47.4674 36.7876 47.4485 36.906 47.4343 37.0198L38.4482 37.0055L35.7434 37.1145L35.7103 37.3135L34.4265 37.1666L29.5617 37.3609L33.8628 37.8205L36.1982 37.8252L39.1825 37.6736L39.1919 37.83L47.3017 37.8394C47.2827 37.9532 47.2638 38.0716 47.2401 38.1853L38.0267 38.1711L47.188 38.4649C47.1643 38.5786 47.1453 38.6923 47.1216 38.8107L41.3899 38.6259L41.4089 38.9529L34.9997 39.2988L34.995 39.3272L34.7818 39.3082L32.8823 39.4125L46.8848 39.8626C46.8564 39.9763 46.828 40.09 46.7995 40.2085L42.6926 40.0758L42.702 40.2274L32.2949 40.7723V40.8244L30.8643 40.8434L18.4677 41.4925L21.992 41.7199L34.9713 41.0424L34.9902 41.3882L24.9526 41.9141L27.0321 42.0658L45.6106 41.1182L45.6295 41.464L30.0306 42.2553L32.2286 42.3974L32.2096 42.568L37.8988 42.279L37.9177 42.6249L19.8935 43.544L25.5779 44.0273L45.909 43.1508C45.8663 43.2692 45.8237 43.3877 45.7763 43.5014L28.2779 44.2547L30.5801 44.449L30.5564 44.6385L41.982 44.1458L41.9962 44.4916L20.1209 45.4345L25.4026 45.9936L45.0042 45.3018C44.9474 45.4203 44.8953 45.5387 44.8337 45.6525L27.8611 46.2494L28.9222 46.3632L28.8701 46.7043L25.3789 46.3347L19.6803 46.5337C19.6188 46.42 19.5619 46.3063 19.5003 46.1926L22.9157 46.0741L19.2493 45.6856C19.1593 45.5008 19.0693 45.3161 18.984 45.1313L29.3201 44.6859L25.5589 44.3637L18.7661 44.6575C18.7187 44.5438 18.6666 44.43 18.6193 44.3163L22.8588 44.1315L18.3919 43.7525C18.3303 43.5914 18.264 43.4303 18.2071 43.2692L30.6749 42.6343L27.0179 42.3974L18.0508 42.8523C18.0082 42.7386 17.9703 42.6249 17.9324 42.5111L24.0194 42.2032L21.992 42.0705L17.8566 42.2885C17.8187 42.1747 17.7808 42.061 17.7429 41.9473L19.0266 41.881L17.6955 41.7957C17.634 41.5967 17.5724 41.3977 17.5155 41.2034L21.5704 40.9902L17.4729 41.0518C17.435 40.9192 17.3971 40.7865 17.364 40.6538L33.4886 39.782L28.8701 39.6304L17.2597 40.2558C17.2313 40.1421 17.2029 40.0284 17.1745 39.9147L18.7377 39.8294L17.1745 39.91C17.1461 39.7962 17.1224 39.6825 17.0939 39.5688L18.0413 39.5214L17.0892 39.5499C17.0324 39.3035 16.9803 39.0619 16.9329 38.8155L23.8347 38.4601L23.6641 38.4459L16.9139 38.716C16.8808 38.5359 16.8429 38.3606 16.8145 38.1806L17.1603 38.1427H16.8097C16.7718 37.9247 16.7339 37.702 16.7008 37.4793L17.3734 37.503L24.8484 37.1998L22.7688 36.9771L16.625 36.9676C16.5918 36.7402 16.5634 36.5081 16.535 36.2759L17.9229 36.2711L17.9466 36.1101L19.4009 36.2664L26.2884 36.238L21.7314 35.7215L16.4876 35.9063C16.4734 35.7926 16.4639 35.6789 16.4497 35.5604L18.3492 35.4941L16.445 35.5036C16.4355 35.3899 16.426 35.2714 16.4166 35.1577H16.805L16.8287 35.0061L16.4023 35.0203C16.3929 34.9066 16.3834 34.7881 16.3739 34.6744L22.1009 34.4849L20.8267 34.3475L20.8835 34.0064L24.5263 34.4044L31.5038 34.158L26.3547 33.6131L16.3502 34.0443C16.3455 33.9306 16.336 33.8121 16.3313 33.6984L24.0241 33.3667L20.7793 33.0256L16.3123 33.2199C16.3076 33.1061 16.3029 32.9877 16.3029 32.874L18.4487 32.7792L18.5008 32.4381L20.7935 32.6797L30.2059 32.2723L21.2767 31.9832L16.2934 32.2391C16.2934 32.1254 16.2934 32.0069 16.2934 31.8932L17.1129 31.8506L16.2934 31.8221C16.2934 31.7084 16.2934 31.59 16.2934 31.4763L21.2767 31.6374L23.3752 31.5284L20.2725 31.2631L16.2981 31.4668C16.2981 31.3531 16.2981 31.2346 16.3029 31.1209L17.0987 31.0783H16.3029C16.3076 30.903 16.3123 30.7324 16.3171 30.5571L27.6242 29.9648L26.9042 29.9175L20.7888 29.908L16.336 30.1401C16.3408 30.0264 16.3455 29.908 16.3502 29.7943L19.8935 29.6095L16.3597 29.6237C16.3645 29.5005 16.3739 29.3726 16.3787 29.2494L16.7671 29.2304L16.3787 29.2447C16.3834 29.1309 16.3929 29.0125 16.3976 28.8988L29.358 28.4439L23.522 28.4724L16.3976 28.8561C16.4071 28.7424 16.4166 28.624 16.4213 28.5103L16.5208 28.5055H16.4213C16.4308 28.3823 16.4402 28.2591 16.4497 28.136L20.2014 27.9417V27.8801L24.0336 27.7474L26.639 27.6148L20.3246 27.8043L20.3151 27.5247L16.4876 27.7237C16.516 27.4252 16.5445 27.1268 16.5776 26.8283L22.5983 26.5866L25.8905 26.2265L16.5966 26.6293C16.6202 26.4113 16.6487 26.1934 16.6724 25.9802L29.4811 25.4637L29.4954 25.3879L30.0117 25.4447L34.8434 25.2505L38.5619 24.843L36.9135 24.7009L16.7055 25.729C16.7197 25.6106 16.7339 25.4969 16.7529 25.3784L34.3697 24.4829L31.267 24.2176L16.8145 24.952C16.8287 24.8335 16.8476 24.7198 16.8666 24.6014L28.8322 23.9949L28.8417 23.9191L27.1458 23.8622L16.895 24.3976C16.9139 24.2792 16.9329 24.1655 16.9471 24.047L23.0483 23.7296L18.0461 23.5685L18.065 23.2226L27.1458 23.5164L35.734 23.0663L33.1002 22.8625H31.807L22.7641 23.3363L22.7452 22.9904L25.341 22.853L21.883 22.8483L17.0987 23.1042C17.1318 22.9004 17.1697 22.6967 17.2029 22.493L21.8688 22.4977L25.7626 22.2892L25.7768 22.0618L28.4248 22.1471L28.5716 22.1376V21.8675L35.5303 21.7633L36.2977 21.7207L36.0419 21.6922L29.5806 21.6828L17.2266 22.3508C17.2455 22.2324 17.2692 22.1187 17.2929 22.0002L23.3231 21.6733H22.9062V21.6591L17.3071 21.9481C17.3308 21.8296 17.3497 21.7159 17.3734 21.5975L21.6746 21.3748L17.4113 21.3937C17.4587 21.1616 17.5013 20.9294 17.5487 20.6972L25.1136 20.4319L29.3675 20.214L24.4078 20.2377L17.5866 20.5125C17.6292 20.3135 17.6671 20.1192 17.7098 19.9202L22.4846 19.8965L22.4752 19.6359L35.3692 19.1811L34.095 19.0437L34.1044 18.9963L17.7666 19.6549C17.7903 19.5364 17.8187 19.4227 17.8424 19.3043L40.4283 18.3946L39.6183 18.3093L17.8519 19.2474C17.8755 19.129 17.904 19.0152 17.9277 18.8968L37.2829 18.0629L34.0381 17.7218L18.0413 18.4135C18.0698 18.2951 18.0934 18.1813 18.1219 18.0629L31.7123 17.4754L31.7644 17.1342L34.0571 17.3759L44.7105 16.9163L39.1777 16.433L18.2498 17.4991C18.2782 17.3806 18.3066 17.2669 18.335 17.1485L36.6292 16.2198L33.5265 15.9545L18.695 16.7078L18.6761 16.3619L31.0917 15.7318L31.1201 15.5138L18.5814 16.1677C18.6098 16.0492 18.6429 15.9355 18.6714 15.8171L40.8736 14.6563L37.3493 14.4288L25.0236 15.0732L25.0047 14.7273L34.3839 14.2393L33.3181 14.1682L33.3276 14.0924L18.9177 14.8695C18.9508 14.751 18.9793 14.6326 19.0124 14.5189L30.8407 13.8792L30.8359 13.6091L34.9618 13.5476L31.6223 13.4386L19.1214 14.1114L19.2161 13.7608L27.61 13.3059L27.2311 13.2917L19.2351 13.7039L19.3298 13.3533L23.0957 13.1638L21.2767 13.1069L21.2909 12.8369ZM43.1521 7.88087C43.1142 7.75768 43.081 7.62975 43.0431 7.49709V7.49235L42.8726 7.50183L39.6277 7.16069L42.3847 7.04224C41.8873 6.99012 41.3946 6.89062 40.902 6.75796L37.2924 6.91431L34.9997 6.67267L34.9476 7.01381L20.9972 7.61554C20.9641 7.73399 20.9309 7.85244 20.8977 7.96615L37.2782 7.26019L40.523 7.60133L20.7556 8.45417L20.6514 8.80479L42.8536 7.8477L43.1521 7.88087ZM39.1683 6.14675L21.7314 7.03276C22.4088 6.95695 23.0815 6.8006 23.7494 6.58265L38.4861 5.83404C38.7135 5.94301 38.9409 6.04725 39.1683 6.14675ZM38.0314 5.60661C37.7377 5.455 37.4487 5.29864 37.1645 5.13281L36.7761 5.15176L35.175 5.01436L36.8235 4.92908C36.6577 4.82484 36.5013 4.71586 36.3592 4.60689L26.9611 5.09965C26.7337 5.23231 26.5063 5.36024 26.2742 5.48343L34.3508 5.06174L34.3223 5.27969L25.8337 5.71085C25.5589 5.84825 25.2842 5.97618 25.0094 6.09937L36.7571 5.50238L38.0314 5.60661ZM35.8997 4.21837L28.2637 4.61637L28.2448 4.27049L35.5634 3.88671C35.6724 4.00516 35.7861 4.11413 35.8997 4.21837ZM35.3929 3.70193C35.2318 3.52188 35.0802 3.3371 34.9192 3.14284L34.076 3.15705L34.0807 3.42712L28.6759 3.72088C28.5622 3.84881 28.4485 3.96726 28.3253 4.08571L35.3929 3.70193ZM19.7988 46.7469C19.9172 46.9696 20.0403 47.1923 20.1635 47.415L21.0588 47.3818L22.3662 47.3771L27.6953 47.9599L27.7521 47.6187L25.4452 47.3676L43.9858 47.2823C44.0521 47.1686 44.1137 47.0502 44.1752 46.9365L32.3328 46.9886L44.3742 46.5622C44.4358 46.4437 44.4974 46.3253 44.5589 46.2115L22.1104 47.0028L19.7988 46.7469ZM20.5898 48.1589L20.6751 48.1683L43.5358 48.0641C43.4694 48.1826 43.3984 48.2963 43.3321 48.41L23.6073 48.5L24.3936 48.59L43.2089 48.6137C43.1379 48.7274 43.0668 48.8459 42.9957 48.9596L27.7569 48.9406L27.7711 49.2676L22.622 49.476L25.2889 49.7603L42.4747 49.784C42.3989 49.8977 42.3231 50.0162 42.2473 50.1299L29.4527 50.1109L41.9868 50.5137C41.911 50.6274 41.8352 50.7411 41.7594 50.8548L26.5868 50.3668L22.1957 50.5942L26.4732 50.9259L26.4542 51.087L29.3864 50.9306L29.4054 51.2765L26.5726 51.4281L41.0394 51.8972C40.9588 52.0109 40.8783 52.1246 40.7978 52.2336L22.8636 51.6555C22.7783 51.5371 22.6931 51.4186 22.6125 51.2954L25.0663 51.1628L22.3757 50.9543C22.2194 50.7221 22.063 50.4947 21.9115 50.2626L22.4657 50.2341L21.8783 50.2152C21.7788 50.0636 21.6793 49.9119 21.5799 49.7556H21.9967L21.5514 49.7082C21.4378 49.5329 21.3288 49.3623 21.2199 49.187L25.18 49.0259L24.3652 48.9359L21.4899 48.9312L21.5041 49.0212L21.1393 49.0591C21.0398 48.9027 20.9451 48.7416 20.8504 48.5853H21.2862L20.8219 48.5332C20.7414 48.4052 20.6656 48.2821 20.5898 48.1589ZM30.0022 12.0409L30.8122 11.9982L28.9932 11.9414L28.998 11.8845L25.2984 12.0314L30.0022 12.0409ZM34.9381 11.785L41.3852 11.4533L40.9209 11.406L35.8855 11.6097L34.7345 11.7376L34.725 11.6571L33.0055 11.7282L34.9381 11.785ZM39.3246 10.8848L39.642 10.8516L39.0072 10.8564L39.3056 10.8895H39.3246V10.8848ZM42.7494 10.482L42.5931 10.4868H42.7968L42.7494 10.482ZM32.9012 10.5294L34.436 10.4678L34.455 10.3589L35.1797 10.4347L40.4946 10.2215L38.2398 9.9656L20.7225 10.5815L32.9012 10.5294ZM31.6223 13.0927L31.3617 13.0832L39.6514 12.6568H39.6704L31.6223 13.0927ZM28.4343 9.42547L33.3134 9.40178L33.337 9.25016L28.4343 9.42547ZM36.004 10.88L35.8761 10.8658L33.5644 10.8753L36.004 10.88ZM42.7826 13.7987L42.2852 13.7797L37.8088 13.8461L35.6061 13.9645L37.3635 14.0782L42.7826 13.7987ZM25.1421 20.7683L20.1398 21.0289L29.0122 20.991L31.2054 20.8773L31.2149 20.8204L31.5844 20.8583L36.5534 20.6025L36.3924 20.5835L31.3049 20.7351L31.3001 20.5551L25.1421 20.7683ZM36.724 19.8254L39.8599 19.6644L39.4572 19.6217L34.0665 19.8397L36.724 19.8254ZM42.0389 19.5506L45.2079 19.3895L41.802 19.527L42.0389 19.5506ZM37.6098 19.0721L40.8404 18.7167L36.1082 18.9063L37.6098 19.0721ZM43.7868 18.7404L41.9441 18.9442L44.7626 18.8447L43.7868 18.7404ZM36.4871 21.299L35.9897 21.3274L36.0703 21.3369L43.0431 21.3464L43.0952 21.3416L42.4889 21.2705L36.4871 21.299ZM36.4824 20.9531L38.3156 20.8536L36.3829 20.9531H36.4824ZM46.6669 23.071L46.43 23.0615L46.6006 23.071H46.6669ZM37.8514 22.8578H37.6335L38.4009 22.9194L38.6046 22.9099L37.8514 22.8578ZM41.0631 23.1231L42.8726 23.2653L43.5926 23.2274L41.5652 23.0947L41.0631 23.1231ZM46.1458 23.867L42.8631 23.6111L38.0456 23.8575L43.1236 24.0233L46.1458 23.867ZM40.1725 23.4027L38.3914 23.2653L31.2386 23.6396L33.8771 23.7248L40.1725 23.4027ZM28.1358 22.4977H28.9506L28.4248 22.4787L28.1358 22.4977ZM38.9409 22.474L40.1299 22.5119L43.8294 22.5166L41.9536 22.3176L38.9409 22.474ZM39.7888 22.0855L39.372 22.0428L35.535 22.0997L33.3323 22.2134L35.0897 22.3271L39.7888 22.0855ZM38.9551 24.2318L33.8771 24.066L33.8155 24.0707L36.9182 24.3361L38.9551 24.2318ZM40.343 24.9757L39.8551 25.0278L40.613 24.9946L40.343 24.9757ZM31.1107 25.9896L27.61 26.3734L33.4413 26.1365L31.7596 25.9612L31.1107 25.9896ZM37.913 26.6103L23.3278 27.3637L31.8449 27.1078L31.8733 26.942L33.0481 27.0699L40.2293 26.8567L37.913 26.6103ZM42.4463 27.0888V27.0936H42.4936L42.4463 27.0888ZM36.3498 27.7759L30.6512 28.0838L30.708 28.0886L38.5714 28.0554L38.794 28.0412L36.3498 27.7759ZM23.5078 28.1217L24.4552 28.0696L24.0241 28.0838L23.3089 28.1217H23.5078ZM42.3894 28.4345L41.9347 28.3871L40.6273 28.3918L35.2413 28.5813L35.0992 28.5908L35.6108 28.6477L39.4477 28.5908L42.3894 28.4345ZM39.5283 29.9364L37.065 29.9317L37.8798 30.017L39.5283 29.9364ZM40.2909 31.8364L33.915 31.3389L28.4769 31.6137L33.2565 32.0211L34.7913 32.0733L40.2909 31.8364ZM31.2243 31.1304L30.8217 31.0972L23.721 31.0877L22.8257 31.1351L25.9284 31.4005L31.2243 31.1304ZM19.5288 30.7371L23.7162 30.7419L24.82 30.685L23.4794 30.6424L23.4841 30.5287L19.5288 30.7371ZM26.2458 30.3865L28.9885 30.4765L32.6028 30.2918L30.5801 30.1591L26.2458 30.3865ZM33.1523 30.6092L37.8609 30.7608H38.453L39.2583 30.7182L35.6013 30.4813L33.1523 30.6092ZM35.6676 30.1354L34.1565 29.9743L33.5502 30.0075L35.6108 30.1401L35.6676 30.1354ZM30.4949 29.5811L30.367 29.5668L28.0553 29.5763L30.4949 29.5811ZM35.7576 29.5431L33.4981 29.5526L33.7965 29.5858H34.9192L35.7576 29.5431ZM28.9317 29.1404L28.9411 29.093L24.5452 29.1594L22.802 29.2541L27.1269 29.2352L28.9317 29.1404ZM29.1922 29.093L29.4196 29.1167L30.1585 29.0741L29.1922 29.093ZM34.3839 29.202L37.2877 29.1878L36.4492 29.093L34.3839 29.202ZM41.191 32.6276L39.1541 32.5613L39.1351 32.7176L41.191 32.6276ZM25.4358 31.77L26.6674 31.8079L25.9142 31.7416L25.4358 31.77ZM26.9137 37.0861L27.7142 37.0008L26.0753 36.9961L26.9137 37.0861ZM27.1979 37.4699L26.2884 37.5078L24.171 37.7399L26.8663 37.8252L30.5659 37.83L27.1979 37.4699ZM20.1114 38.1806L19.0361 38.299L20.7462 38.228L20.1114 38.1806ZM32.7544 38.3606L29.2111 38.5454L32.0912 38.7681L33.8581 38.716L33.8628 38.9055L34.8055 38.9766L41.2052 38.6307L32.7544 38.3606ZM26.5205 38.6828L20.064 39.0145L21.8972 39.0761L28.8606 38.8676L26.5205 38.6828ZM32.167 39.1234L32.0723 39.114L31.4944 39.1329V39.1566L32.167 39.1234ZM23.1241 32.9214L26.3689 33.2625L37.9035 32.765L34.1423 32.4428L23.1241 32.9214ZM18.1077 34.9729L19.7135 35.153L27.8943 35.1151L24.4978 34.7455L18.1077 34.9729ZM19.5051 36.6407L19.3772 36.6265L17.0655 36.636L19.5051 36.6407ZM29.8601 36.6549L29.2253 36.5839L22.5036 36.617L22.802 36.6502L29.8601 36.6549ZM40.433 40.0189L33.6876 39.801L33.7065 40.1326L24.8389 40.6112L30.8691 40.5212L40.433 40.0189ZM27.1884 48.9454L27.3637 48.9406H27.1884V48.9454ZM23.5315 52.5842C23.612 52.6979 23.6973 52.8069 23.7778 52.9159L30.708 52.5558L30.6891 52.2099L23.5315 52.5842ZM24.5168 53.8919L33.6023 53.4276L33.6213 53.7734L24.7726 54.2236C24.6873 54.1146 24.6021 54.0009 24.5168 53.8919ZM25.0947 54.631L25.8905 54.5884L25.9095 54.9343L25.36 54.9627C25.27 54.8537 25.18 54.74 25.0947 54.631ZM26.0516 55.7966L37.6856 55.2943L37.6998 55.6402L26.3547 56.1282C26.2553 56.024 26.151 55.9103 26.0516 55.7966ZM26.8332 56.5926L29.9738 56.4552L29.988 56.801L27.2074 56.9195C27.0795 56.82 26.9563 56.7063 26.8332 56.5926ZM28.4058 57.7771L36.0987 57.507C35.9045 57.6397 35.7055 57.7629 35.5113 57.8718L29.0027 58.0993C28.799 57.9998 28.6001 57.8908 28.4058 57.7771ZM30.2627 58.6015L34.0239 58.4688V58.5352C33.5028 58.7057 32.9723 58.8194 32.4418 58.8716L31.7028 58.8953V58.8763C31.2196 58.8337 30.7412 58.7389 30.2627 58.6015Z" fill="#F7DFCF"/>
<path fill-rule="evenodd" clip-rule="evenodd" d="M33.9103 1.90147L32.2381 1.98676V1.64088L33.6024 1.56981C33.7018 1.66931 33.8061 1.78302 33.9103 1.90147ZM33.4129 1.38503L32.2381 1.43241V1.08653L33.0008 1.05811C33.1334 1.14339 33.2708 1.2571 33.4129 1.38503ZM34.7961 2.98648L32.2381 3.12389V2.77801L34.5308 2.65482C34.6208 2.76853 34.7108 2.88225 34.7961 2.98648ZM34.5119 2.63587L34.3887 2.48425C34.3413 2.42266 34.294 2.36106 34.2466 2.30421L32.2381 2.40844V2.75432L34.5119 2.63587ZM32.2381 12.69L36.9704 12.4483L36.3877 12.4009L33.5739 12.4862L33.5692 12.3915H32.2334V11.4107L35.8477 11.2638L36.1982 11.2259L32.2286 11.2212V10.5342L32.8918 10.5294L34.4266 10.4678L34.4455 10.3589L35.1703 10.4347L40.4852 10.2215L38.2304 9.9656L32.2286 10.1788V9.83294L34.8529 9.74291L32.2286 9.75239V9.40651L33.3087 9.40178L33.3324 9.25016L32.2286 9.28806V8.94692L38.5904 8.72424L37.3162 8.58683L37.373 8.2457L41.0157 8.64369L43.3416 8.56315C43.3747 8.6816 43.4079 8.79531 43.4411 8.90428L43.4221 8.89955H43.4553L43.5642 9.25963L41.0063 8.98009L34.6113 9.20752L36.2172 9.38756L43.5879 9.3544L43.7158 9.77608L40.5894 9.88506L42.7684 10.1314L43.8106 10.0888C43.8863 10.3352 43.9574 10.5768 44.0285 10.8232L42.9532 10.8279L42.4605 10.88H44.0474C44.0853 11.008 44.1232 11.1359 44.1611 11.2638L43.2895 11.297L43.5832 11.3302L44.1706 11.3017L44.18 11.3302C44.2227 11.4723 44.2606 11.6144 44.3032 11.7566L43.569 11.676L39.0736 11.9082L39.931 11.9366L44.3127 11.804C44.4311 12.2114 44.5448 12.6189 44.6585 13.0311L42.29 12.8463L35.6345 13.2064L40.2531 13.358L44.6822 13.1164C44.7674 13.4149 44.8479 13.7181 44.9285 14.0166L40.3194 14.2583L43.8437 14.4857L45.0422 14.4241C45.0848 14.5899 45.1322 14.7557 45.1748 14.9216L43.839 14.8363L32.2381 15.4428V15.1064L40.8736 14.6563L37.3493 14.4288L32.2334 14.6942V14.3483L34.384 14.2346L33.3181 14.1635L33.3276 14.0877L32.2381 14.1445V13.5807L34.9619 13.5381L32.2381 13.4481V13.0501L39.6657 12.6473H39.6467L32.2381 13.0311V12.69ZM32.2381 15.4949V16.0208L33.5266 15.9545L36.6293 16.2198L32.2381 16.4425V16.7884L39.1778 16.433L44.7058 16.9021L34.0524 17.3617L32.2334 17.1721V17.7881L34.0334 17.7123L37.2783 18.0534L32.2334 18.2714V18.6172L39.6088 18.2998L40.4189 18.3851L32.2334 18.7167V19.0626L34.0903 18.9868L34.0808 19.0342L35.355 19.1716L32.2334 19.2806V20.702L36.3877 20.5788L36.5488 20.5977L32.2334 20.8204V21.678L36.0324 21.6828L36.2882 21.7112L35.5208 21.7538L32.2381 21.8012V22.8483H33.0908L35.7245 23.052L32.2334 23.2321V23.578L38.3867 23.2558L40.1678 23.3932L33.8724 23.7154L32.2334 23.6632V24.2792L34.3555 24.4592L32.2334 24.5682V24.9141L36.8993 24.6772L38.5478 24.8193L34.8292 25.2268L32.2286 25.331V26.0038L33.4366 26.1318L32.2286 26.1791V26.8946L37.9035 26.6008L40.2199 26.8472L33.0481 27.0699L32.2381 26.9799V27.9985L36.3498 27.7759L38.7941 28.0412L38.5715 28.0554L32.2381 28.0838V30.2633L32.6029 30.287L32.2381 30.306V31.4194L33.915 31.3341L40.291 31.8316L34.7913 32.0685L33.2566 32.0164L32.2381 31.9311V32.5234L34.1471 32.4428L37.9083 32.765L32.2428 33.0114V33.3573L45.7906 32.7745L47.7849 32.8408C47.7896 32.675 47.7896 32.5091 47.7944 32.3433L45.7953 32.4286L39.4004 32.2201L43.1663 32.059L46.0132 32.2817L46.0559 31.9358H46.0417L47.8038 31.86C47.8038 31.7463 47.8038 31.6279 47.8038 31.5142L43.1805 31.7132L36.6293 31.2015L38.2399 31.1209L47.8038 31.4289C47.7991 31.2109 47.7991 30.993 47.7896 30.775L45.0943 30.7703L46.5106 30.6992L46.4917 30.3533L42.7542 30.5429L40.0825 30.2586L44.6537 30.0264L46.7191 30.2633L46.7712 29.9506H47.7565C47.7517 29.8085 47.7422 29.6663 47.7375 29.5242L46.1648 29.6047L43.9763 29.6L43.19 29.51L47.7328 29.491C47.728 29.3773 47.7186 29.2589 47.7138 29.1451L43.5784 29.1641V29.1357L43.0195 29.1641L40.2578 29.1783L38.5715 28.9888L39.4715 28.9414L40.902 28.9177V28.8656L44.5495 28.6761L47.278 28.9746L47.3349 28.6287L46.7191 28.5624L47.6712 28.5103C47.6522 28.2733 47.6333 28.0412 47.6143 27.8043L42.2852 27.9938L42.2758 27.8611L40.9447 27.9322L38.5004 27.6669L42.9295 27.43L44.9616 27.3589L47.5954 27.6337C47.5859 27.5153 47.5717 27.3968 47.5622 27.2831L47.4438 27.2689L47.5575 27.2642C47.5433 27.122 47.5291 26.9751 47.5149 26.833L44.739 26.9846L40.1441 26.5013L47.4296 26.127C47.4154 26.0086 47.4012 25.8949 47.387 25.7764L40.651 26.0654L40.6415 25.8522L35.843 26.0417L34.114 25.857L45.1369 25.3832L47.3585 25.5727C47.3207 25.2931 47.2828 25.0136 47.2449 24.7293L43.3937 24.8857L42.0958 24.7767L42.0484 24.4403L40.3431 24.6298L39.4667 24.554L43.1237 24.3692L47.2117 24.5019C47.1691 24.1986 47.1217 23.8954 47.0696 23.5922L45.568 23.4737L46.5959 23.4216L47.0459 23.45C46.9938 23.1231 46.937 22.7962 46.8754 22.4693L46.7333 22.4787L44.1469 22.1992L46.7996 22.0618C46.7285 21.678 46.6527 21.2895 46.5769 20.9057L43.4837 20.9199L46.5438 20.7541C46.4017 20.0434 46.2454 19.3374 46.0843 18.6315L45.4022 18.5604L45.8522 18.5083L46.0559 18.4988C46.0275 18.3803 46.0038 18.2619 45.9753 18.1482L45.8238 18.1671L42.8158 18.2903L41.9584 18.2003L45.9422 18.0297C45.9138 17.916 45.8901 17.8023 45.8617 17.6886L39.6325 17.9539L36.3877 17.6128L45.7527 17.2101C45.7053 17.0205 45.658 16.8263 45.6106 16.6367L41.7358 16.3051L45.478 16.1156C45.4495 16.0019 45.4211 15.8881 45.3927 15.7744L39.192 16.0919L36.0893 15.8265L45.2885 15.3575C45.2601 15.2438 45.2269 15.1301 45.1985 15.0163L33.5408 15.6086L32.2381 15.4949ZM32.2381 33.8832L33.9861 34.068L47.7565 33.5847C47.7517 33.6984 47.747 33.8168 47.7422 33.9306L36.4493 34.3286L37.5104 34.4423L37.4583 34.7834L33.9671 34.4138L32.2428 34.4754V33.8832H32.2381ZM32.2381 35.0203V35.5936L36.274 36.0342L36.3309 35.6884L34.024 35.4373L47.6333 35.3757C47.6428 35.2619 47.6522 35.1435 47.6617 35.0298L40.9115 35.0582L47.6807 34.8213C47.6901 34.7076 47.6996 34.5891 47.7043 34.4754L32.2381 35.0203ZM32.2381 36.2238L47.5528 36.1527C47.5386 36.2664 47.5243 36.3849 47.5101 36.4986L33.4934 36.5602L33.5076 36.6549L38.4625 36.6597L39.7746 36.6075V36.6597L47.4864 36.6691C47.4722 36.7829 47.4533 36.9013 47.4391 37.015L38.453 37.0008L35.7482 37.1098L35.7151 37.3088L34.4313 37.1619L32.2334 37.2519V36.2238H32.2381ZM32.2381 37.6594L33.8724 37.8347L36.2077 37.8394L39.192 37.6878L39.2015 37.8442L47.3112 37.8536C47.2922 37.9674 47.2733 38.0858 47.2496 38.1995L38.0362 38.1853L47.1975 38.4791C47.1738 38.5928 47.1549 38.7065 47.1312 38.8249L41.3994 38.6402L41.4184 38.9671L35.0092 39.313L35.0045 39.3414L34.7913 39.3224L32.8918 39.4267L46.8943 39.8768C46.8659 39.9905 46.8375 40.1042 46.8091 40.2227L42.7021 40.09L42.7116 40.2416L32.3044 40.7865V40.8386H32.2286V40.4406L40.4236 40.0142L33.6782 39.7962L33.6971 40.1279L32.2286 40.2085V39.8626L33.4887 39.7962L32.2286 39.7536V38.7634L33.8487 38.716L33.8534 38.9055L34.7961 38.9766L41.1957 38.6307L32.745 38.3559L32.2286 38.3843V37.6594H32.2381ZM32.2381 41.2034L34.9903 41.0613L35.0092 41.4072L32.2381 41.5541V41.2034ZM32.2381 41.8004V42.1463L45.6343 41.464L45.6106 41.1182L32.2381 41.8004ZM32.2381 42.568L37.8988 42.279L37.9177 42.6248L32.2381 42.9139V42.568ZM32.2381 43.743L45.9138 43.1555C45.8711 43.274 45.8285 43.3924 45.7811 43.5061L32.2381 44.0889V43.743ZM32.2381 44.5722L41.9868 44.1505L42.001 44.4964L32.2381 44.918V44.5722ZM32.2381 45.7567L45.009 45.3066C44.9522 45.425 44.9001 45.5435 44.8385 45.6572L32.2381 46.1026V45.7567ZM43.1521 7.88087C43.1142 7.75768 43.0811 7.62975 43.0432 7.49709V7.49235L42.8726 7.50183L39.6278 7.16069L42.3847 7.04224C41.8873 6.99012 41.3947 6.89062 40.902 6.75796L37.2925 6.91431L34.9998 6.67267L34.9477 7.01381L32.2381 7.13226V7.47814L37.2735 7.26019L40.5184 7.60132L32.2334 7.95668V8.30255L42.8489 7.84296L43.1521 7.88087ZM39.1683 6.14675L32.2381 6.49736V6.15149L38.4862 5.83404C38.7136 5.94301 38.9409 6.04725 39.1683 6.14675ZM38.0314 5.60661L36.7619 5.49764L32.2334 5.7298V5.38393L34.3271 5.27969L34.3555 5.06174L32.2334 5.17072V4.82484L36.3593 4.61163C36.5014 4.7206 36.6577 4.82958 36.8235 4.93381L35.175 5.0191L36.7761 5.1565L37.1646 5.13755C37.4535 5.29864 37.7425 5.455 38.0314 5.60661ZM35.8998 4.21837L32.2381 4.40789V4.06675L35.5682 3.89145C35.6724 4.00516 35.7861 4.11413 35.8998 4.21837ZM35.3929 3.70193L32.2381 3.87249V3.52662L34.0761 3.42712L34.0713 3.15705L34.9145 3.14284C35.0756 3.3371 35.2319 3.52188 35.3929 3.70193ZM32.2381 46.6427L44.559 46.2068C44.4974 46.3252 44.4358 46.4437 44.3743 46.5574L32.3329 46.9838L44.1753 46.9317C44.1137 47.0454 44.0474 47.1639 43.9858 47.2776L32.2381 47.3297V46.6427ZM32.2381 48.1162L43.5405 48.0641C43.4742 48.1826 43.4032 48.2963 43.3369 48.41L32.2428 48.4621V48.1162H32.2381ZM32.2381 48.5995L43.209 48.6137C43.1379 48.7274 43.0668 48.8459 42.9958 48.9596L32.2334 48.9454V48.5995H32.2381ZM32.2381 49.7698L42.4795 49.784C42.4037 49.8977 42.3279 50.0162 42.2521 50.1299L32.2381 50.1157V49.7698ZM32.2381 50.2057L41.9963 50.5231C41.9205 50.6369 41.8447 50.7506 41.7689 50.8643L32.2381 50.5563V50.2057ZM32.2381 51.6129L41.0394 51.8972C40.9589 52.0109 40.8784 52.1246 40.7978 52.2336L32.2381 51.9588V51.6129ZM34.9382 11.785L41.3852 11.4533L40.921 11.406L35.8856 11.6097L34.7345 11.7376L34.725 11.6571L33.0055 11.7281L34.9382 11.785ZM39.3246 10.8848L39.642 10.8516L39.0073 10.8564L39.3057 10.8895H39.3246V10.8848ZM42.7495 10.482L42.5931 10.4868H42.7968L42.7495 10.482ZM36.004 10.88L35.8761 10.8658L33.5645 10.8753L36.004 10.88ZM42.7826 13.7987L42.2852 13.7797L37.8088 13.846L35.6061 13.9645L37.3635 14.0782L42.7826 13.7987ZM36.724 19.8254L34.0713 19.8397L39.462 19.6217L39.8646 19.6644L36.724 19.8254ZM42.0389 19.5506L41.8021 19.5222L45.208 19.3848L42.0389 19.5506ZM37.6098 19.0721L36.1082 18.9063L40.8405 18.7167L37.6098 19.0721ZM43.7869 18.7404L44.7627 18.8447L41.9442 18.9442L43.7869 18.7404ZM36.4872 21.299L42.4889 21.2705L43.0953 21.3416L43.0432 21.3463L36.0703 21.3369L35.9898 21.3274L36.4872 21.299ZM36.4824 20.9531H36.3877L38.3204 20.8536L36.4824 20.9531ZM46.6669 23.071L46.6006 23.0757L46.4301 23.0663L46.6669 23.071ZM37.8514 22.8578L38.6046 22.9052L38.4009 22.9146L37.6335 22.853L37.8514 22.8578ZM41.0631 23.1231L41.57 23.0947L43.5974 23.2273L42.8774 23.2653L41.0631 23.1231ZM46.1459 23.867L43.1237 24.0186L38.0456 23.8528L42.8632 23.6064L46.1459 23.867ZM38.9409 22.474L41.9584 22.3176L43.8342 22.5166L40.1347 22.5119L38.9409 22.474ZM39.7889 22.0855L35.0898 22.3319L33.3324 22.2134L35.535 22.095L39.372 22.0381L39.7889 22.0855ZM38.9551 24.2318L36.9182 24.336L33.8155 24.0707L33.8771 24.066L38.9551 24.2318ZM40.3431 24.9757L40.6131 24.9994L39.8552 25.0325L40.3431 24.9757ZM42.4463 27.0888L42.4937 27.0936H42.4463V27.0888ZM42.3895 28.4344L39.4431 28.5861L35.6061 28.6429L35.0945 28.5861L35.2366 28.5766L40.6226 28.3871L41.93 28.3823L42.3895 28.4344ZM39.5283 29.9364L37.8799 30.0217L37.0651 29.9364H39.5283ZM33.1523 30.6092L35.6014 30.486L39.2583 30.7229L38.453 30.7656H37.8609L33.1523 30.6092ZM35.6677 30.1354L35.6108 30.1401L33.5503 30.0075L34.1566 29.9743L35.6677 30.1354ZM35.7577 29.5431L34.9192 29.5858H33.7966L33.4981 29.5526L35.7577 29.5431ZM34.384 29.202L36.4493 29.093L37.2877 29.1878L34.384 29.202ZM41.191 32.6276L39.1352 32.7176L39.1541 32.5613L41.191 32.6276ZM32.2381 53.4986L33.5976 53.4276L33.6166 53.7734L32.2334 53.8445V53.4986H32.2381ZM32.2381 55.5312L37.6856 55.2943L37.6998 55.6402L32.2381 55.8771V55.5312ZM32.2381 57.6397L36.0988 57.5023C35.9045 57.6349 35.7056 57.7581 35.5114 57.8671L32.2428 57.9808V57.6397H32.2381ZM32.2381 58.5304L34.024 58.4688V58.5351C33.5029 58.7057 32.9723 58.8194 32.4418 58.8716L32.2381 58.881V58.5304Z" fill="#E8CAB7"/>
<path fill-rule="evenodd" clip-rule="evenodd" d="M35.3883 4.83454C37.2641 6.24648 39.1873 7.3078 41.9111 7.87636C42.2853 9.20301 42.65 10.4728 42.9911 11.7094C43.5974 13.9079 43.2327 13.761 41.3142 13.0882C40.4947 12.8039 39.6657 12.5575 38.832 12.3538C37.9983 12.1548 37.1599 11.9937 36.312 11.9226C33.9245 11.7236 33.9577 11.8753 33.6782 9.27882C33.5977 8.53495 33.5029 7.32201 33.4035 6.11381C33.1856 3.3089 33.0482 3.072 35.3883 4.83454ZM44.3506 16.8549C43.8532 14.8744 43.2374 14.3864 41.3189 13.7136C40.49 13.4246 39.6468 13.1593 38.8131 12.9461C37.9746 12.7328 37.1362 12.5765 36.293 12.5007C34.0998 12.3064 34.0382 12.6523 34.2561 14.8223C34.3888 16.2011 34.5214 17.5798 34.654 18.9539C34.9288 22.0004 35.7483 21.5787 38.1499 21.9341C38.9315 22.0478 39.7131 22.2042 40.4947 22.3795C41.2763 22.5548 42.0579 22.7585 42.8348 22.9765C45.028 23.5924 45.9707 24.0994 45.3549 21.1618C45.0612 19.7783 44.7248 18.3521 44.3506 16.8549ZM46.3591 27.1222C46.5059 28.3636 46.6054 29.5623 46.6433 30.7374C46.7049 32.5141 46.0749 32.9737 44.4454 33.2106C43.8248 33.3006 43.209 33.3717 42.5979 33.4286C41.9821 33.4854 41.3711 33.5328 40.7553 33.566C37.9604 33.7128 38.6236 33.2485 37.9036 30.6568C37.6478 29.7424 37.302 28.7663 36.8567 27.7003C36.3167 26.3973 34.1235 22.1663 36.8141 22.3653C37.2404 22.3984 37.662 22.4411 38.0836 22.5074C39.121 22.6638 40.1584 22.8864 41.1958 23.1376C42.2332 23.3887 43.2706 23.6919 44.289 24.0094C46.0749 24.559 46.1507 25.3407 46.3591 27.1222ZM46.2359 37.1906C46.5628 35.3096 47.0744 33.3954 44.3269 33.7507C43.6827 33.8313 43.0385 33.9118 42.3942 33.9687C41.75 34.0256 41.1058 34.0824 40.4568 34.1203C38.1689 34.2625 38.112 34.8168 37.7473 37.0058C37.2641 39.8818 36.5536 42.7293 35.8193 45.5863C35.0803 48.4481 34.3035 51.3336 33.7256 54.2806C33.2235 56.7444 33.7066 57.4741 34.5735 57.2466C35.4404 57.024 36.6957 55.8395 37.7283 54.5033C40.2058 51.2862 42.1053 48.3486 43.4932 45.5153C44.8764 42.6867 45.7575 39.9576 46.2359 37.1906Z" fill="#C75C52"/>
<path fill-rule="evenodd" clip-rule="evenodd" d="M29.9269 60.4304C29.0173 60.0988 28.0366 59.5871 26.9327 58.8811C27.3496 60.1272 28.3019 62.2641 28.8799 64.7468C29.7421 68.4282 29.78 72.9057 29.7848 74.9999H31.3387C30.6612 69.319 31.4382 65.4859 29.9269 60.4304Z" fill="#CFA284"/>
<path fill-rule="evenodd" clip-rule="evenodd" d="M31.3432 60.8146C30.481 60.6677 29.5713 60.3408 28.5575 59.8196C28.9033 60.9614 29.8509 63.0462 30.3815 65.4673C31.1348 68.8976 31.0495 73.0387 30.9926 74.9955H32.5371C32.0112 69.4899 32.9919 65.8795 31.3432 60.8146Z" fill="#9E7459"/>
<path fill-rule="evenodd" clip-rule="evenodd" d="M38.5721 58.2651C36.9898 59.3928 35.6443 60.203 34.332 60.6105C32.8728 65.7512 33.3086 69.9065 33.2186 75.0046H35.1326C35.18 72.2518 35.3885 68.9636 36.0375 66.0403C36.7624 62.7426 38.0415 59.9045 38.5721 58.2651Z" fill="#CFA284"/>
<path fill-rule="evenodd" clip-rule="evenodd" d="M36.2225 59.7769C35.2513 60.3123 34.3417 60.6723 33.4178 60.8287C31.717 65.9079 32.7119 69.504 32.1861 75.0002H33.7305C33.6737 73.0528 33.5884 68.9544 34.3417 65.5573C34.9055 63.0224 35.9288 60.8666 36.2225 59.7769Z" fill="#9E7459"/>
<path fill-rule="evenodd" clip-rule="evenodd" d="M50.4992 -11C50.5418 -9.24219 50.9682 -7.49859 51.7545 -5.47546C54.1656 0.740842 53.5735 6.86238 44.7059 5.44571C41.6884 4.96243 38.8936 3.27569 36.9372 1.15305C35.734 -0.154647 35.0566 0.669771 36.0846 2.02011C39.4005 6.39331 42.9342 8.44014 47.3633 8.40698C55.4588 8.34064 57.2352 2.50339 54.4688 -3.85505C53.4172 -6.27618 52.0434 -8.52675 51.4703 -11H50.4992Z" fill="#CFA284"/>
<path fill-rule="evenodd" clip-rule="evenodd" d="M33.3848 34.1202C33.4511 33.9876 33.489 33.8454 33.4985 33.7033C33.5411 32.3198 31.087 32.3103 30.9828 33.5848C30.8975 34.6319 32.8115 35.21 33.3848 34.1202Z" fill="#BA8F72"/>
<path fill-rule="evenodd" clip-rule="evenodd" d="M33.2663 34.1631C33.3279 34.0447 33.361 33.9167 33.3658 33.7936C33.4037 32.5617 31.2196 32.5522 31.1296 33.6893C31.0491 34.6227 32.7546 35.1344 33.2663 34.1631Z" fill="#CFA284"/>
<path fill-rule="evenodd" clip-rule="evenodd" d="M33.0436 34.2007C33.091 34.1107 33.1194 34.0065 33.1241 33.907C33.1526 32.9357 31.4328 32.9262 31.3617 33.8217C31.2954 34.5608 32.6409 34.9683 33.0436 34.2007Z" fill="#BA8F72"/>
<path fill-rule="evenodd" clip-rule="evenodd" d="M33.0957 34.0587C33.1099 34.0113 33.1147 33.9592 33.1194 33.9118C33.1478 32.9405 31.4281 32.9311 31.357 33.8266C31.3475 33.9308 31.3665 34.0256 31.4091 34.1156C31.6128 33.4475 32.8399 33.4191 33.0957 34.0587Z" fill="#B0876C"/>
<path fill-rule="evenodd" clip-rule="evenodd" d="M42.7021 55.1243C34.4976 60.6772 32.186 62.3829 22.712 55.7165L22.3994 55.5317C32.0344 63.757 34.5497 61.8333 42.7021 55.1243Z" fill="#9E7459"/>
<path fill-rule="evenodd" clip-rule="evenodd" d="M51.9676 -11C52.6308 -8.88684 53.6777 -6.71208 54.5446 -4.56102C57.3394 2.4181 55.5488 8.81918 47.3538 8.89025C42.5553 8.9329 38.7751 6.37436 35.2414 0.830863L35.0282 0.281252C38.5099 5.58311 42.2331 8.0232 46.9606 7.98529C55.0325 7.91422 56.7994 1.80216 54.0472 -4.86425C53.1945 -6.91582 52.1666 -8.99108 51.5129 -11H51.9676Z" fill="#A87E62"/>
<path fill-rule="evenodd" clip-rule="evenodd" d="M27.4782 -6.14352C27.1656 -7.72128 26.095 -9.46014 24.7829 -11H14.7073C14.6789 -8.25668 14.0062 -5.4186 12.9262 -3.01168C11.8462 -0.604759 11.562 0.9351 11.7893 2.13856C12.2204 4.43177 15.0721 5.10457 18.3643 4.71131C22.7791 4.19013 28.5724 -0.666354 27.4782 -6.14352Z" fill="#E6BA9C"/>
<path fill-rule="evenodd" clip-rule="evenodd" d="M11.8367 0.442455C11.9504 -0.0692523 12.1494 -0.580959 12.4147 -1.05476C15.0109 -5.65539 20.0849 -2.83626 17.8251 1.47535C15.9679 5.02413 10.9034 4.69247 11.8367 0.442455Z" fill="#DEB192"/>
<path fill-rule="evenodd" clip-rule="evenodd" d="M14.0911 -11C13.8779 -9.24219 13.229 -7.49859 12.4426 -5.47546C10.0315 0.740842 10.6236 6.86238 19.4913 5.44571C22.5087 4.96243 25.3035 3.27569 27.2599 1.15305C28.4631 -0.154647 29.1405 0.669771 28.1126 2.02011C24.7967 6.39331 21.2629 8.44014 16.8338 8.40698C8.73833 8.34064 7.35039 2.65974 9.72835 -3.85505C10.6568 -6.39463 12.1679 -8.59308 12.9069 -11H14.0911V-11Z" fill="#CFA284"/>
<path fill-rule="evenodd" clip-rule="evenodd" d="M12.5468 -11C11.8126 -8.88684 10.6615 -6.71208 9.79938 -4.56102C7.00456 2.4181 8.65303 8.81918 16.8433 8.89025C21.6418 8.93763 25.4219 6.3791 28.9557 0.835601L29.1689 0.28599C25.6872 5.58311 21.9639 8.0232 17.2364 7.98529C9.16462 7.91422 7.54458 1.79742 10.3015 -4.86899C11.1494 -6.92056 12.2768 -8.99108 13.0016 -11H12.5468Z" fill="#A87E62"/>
<path fill-rule="evenodd" clip-rule="evenodd" d="M41.442 8.44973C38.3109 7.25575 37.0603 6.73457 35.8666 5.88646C34.3555 4.81093 33.6071 3.96756 33.9197 6.365C34.0618 7.46896 34.2134 8.6203 34.2797 9.21256C34.3081 9.48263 34.4171 10.8519 34.6113 11.0367C34.7961 11.212 36.0987 11.2736 36.3593 11.2926C37.2403 11.3636 38.1072 11.5295 38.9646 11.7379C39.822 11.9464 40.6699 12.1975 41.5036 12.4865C41.6789 12.5481 42.2757 12.7708 42.6357 12.8561C42.5884 12.5292 42.451 12.0412 42.4084 11.8801C42.091 10.7382 41.7641 9.5916 41.442 8.44973ZM44.9048 22.8154C44.9995 22.5312 44.81 21.5362 44.7579 21.2945C44.4595 19.8589 44.1184 18.4328 43.7632 17.0161C43.3084 15.2062 42.7826 14.8935 41.1247 14.3154C40.3146 14.0311 39.4951 13.7753 38.6662 13.5621C37.8704 13.3583 37.0556 13.2067 36.2361 13.1309C36.0561 13.1167 34.9618 13.0219 34.8292 13.1736C34.6966 13.3299 34.8292 14.5523 34.8482 14.7561C34.9808 16.1348 35.1134 17.5136 35.2461 18.8924C35.2887 19.3899 35.3882 20.5317 35.8287 20.8586C36.0324 21.0103 36.3687 21.0671 36.6103 21.105C37.1456 21.1856 37.6856 21.2235 38.2209 21.304C39.0214 21.4225 39.8172 21.5836 40.6083 21.7589C41.4041 21.9342 42.1952 22.1426 42.9768 22.3653C43.2563 22.4411 44.5969 22.8676 44.9048 22.8154ZM45.7622 27.1981C45.7006 26.6864 45.6295 25.7909 45.3548 25.355C45.0942 24.9476 44.5448 24.7438 44.1184 24.6112C43.1047 24.2985 42.0863 24 41.0583 23.7488C40.0446 23.5025 39.0262 23.2845 37.9983 23.1282C37.5909 23.0666 37.1835 23.0239 36.7761 22.9908C36.6245 22.9813 36.3119 22.9718 36.2029 23.1187C35.9092 23.5072 36.3593 24.867 36.5061 25.2697C36.7761 26.0184 37.1124 26.7101 37.4203 27.4398C37.8372 28.4253 38.2067 29.4392 38.4956 30.4768C38.6567 31.0549 38.7609 31.6187 38.8841 32.2015C38.9125 32.3389 38.9883 32.7037 39.083 32.808C39.2772 33.0164 40.4852 32.9406 40.7315 32.9264C41.3378 32.8932 41.9442 32.8506 42.5505 32.7937C43.1568 32.7369 43.7631 32.6658 44.3695 32.5805C44.7769 32.5237 45.4921 32.41 45.7811 32.0736C46.0511 31.7609 46.0558 31.1496 46.0416 30.7564C46.0037 29.5671 45.8995 28.3779 45.7622 27.1981ZM45.639 37.0769C45.729 36.5557 46.0701 35.068 45.7669 34.6084C45.5348 34.2531 44.7248 34.3336 44.3932 34.3762C43.7442 34.4615 43.0905 34.5373 42.4368 34.5942C41.7878 34.6511 41.1389 34.7079 40.4852 34.7458C40.0683 34.7695 39.173 34.8216 38.8651 35.1675C38.5572 35.5134 38.4151 36.6552 38.3393 37.1101C37.8514 40.024 37.1361 42.8905 36.3972 45.7428C35.6582 48.614 34.8861 51.4853 34.3129 54.3992C34.2039 54.9393 34.0902 55.6121 34.1329 56.1712C34.1376 56.2565 34.1755 56.5787 34.2513 56.6403C34.2845 56.6545 34.3887 56.6355 34.4218 56.626C35.3171 56.3939 36.6814 54.8351 37.2498 54.0959C39.3767 51.3337 41.3947 48.3819 42.9484 45.2169C44.2179 42.6346 45.1463 39.9387 45.639 37.0769Z" fill="#D6736A"/>
<path fill-rule="evenodd" clip-rule="evenodd" d="M40.2625 9.8524C38.9598 9.60128 37.6903 9.23172 36.4398 8.75792C36.1982 8.66789 35.9613 8.57313 35.7198 8.47363C35.7387 8.66315 35.7624 8.84794 35.7813 9.03746C35.8003 9.2175 35.8192 9.44967 35.8429 9.67709C36.0703 9.69131 36.2977 9.70078 36.4777 9.715C37.4298 9.79554 38.3725 9.97085 39.3056 10.1935C39.6893 10.2836 40.0683 10.3878 40.4473 10.4968C40.3809 10.2836 40.3241 10.0656 40.2625 9.8524ZM43.0952 20.7593C42.8489 19.6412 42.5836 18.5277 42.3042 17.419C42.2378 17.1537 42.091 16.5851 41.892 16.3861C41.6599 16.154 40.9446 15.9218 40.6509 15.8176C39.8836 15.5475 39.1067 15.3011 38.3156 15.1021C37.6761 14.941 37.0319 14.8131 36.3782 14.7373C36.5061 16.0734 36.6387 17.4048 36.7619 18.7409V18.7504C36.7808 18.9352 36.8093 19.2811 36.8614 19.5512C37.3872 19.627 37.9177 19.6696 38.4435 19.7454C39.282 19.8686 40.1109 20.0344 40.9352 20.2192C41.6552 20.3756 42.3752 20.5603 43.0952 20.7593ZM44.0995 26.2839C43.9763 26.2223 43.7868 26.1607 43.6874 26.1323C42.7021 25.829 41.712 25.54 40.7125 25.2936C39.7888 25.0662 38.8556 24.8672 37.9177 24.7203C38.1735 25.431 38.5098 26.1133 38.7988 26.8051C39.2393 27.8569 39.6372 28.9325 39.9404 30.0364C40.0636 30.477 40.1583 30.9224 40.253 31.3725C40.3999 31.3678 40.542 31.3583 40.6509 31.3536C41.2383 31.3204 41.8257 31.2778 42.4131 31.2257C42.9958 31.1735 43.5784 31.1072 44.1563 31.0219C44.2463 31.0077 44.3932 30.9888 44.5305 30.9603C44.5305 30.9082 44.5305 30.8608 44.5258 30.8182C44.4879 29.6763 44.3884 28.5345 44.2558 27.3973C44.2274 27.132 44.1847 26.5824 44.0995 26.2839ZM44.3032 35.9826C43.7252 36.0537 43.1473 36.12 42.5694 36.1722C41.9062 36.229 41.2431 36.2859 40.5799 36.3285C40.4425 36.338 40.2057 36.3475 40.002 36.3759C39.9262 36.7028 39.8741 37.134 39.8315 37.3851C39.3341 40.3464 38.6093 43.2555 37.8609 46.1599C37.2735 48.4342 36.6672 50.7084 36.1556 53.0016C38.1925 50.3484 40.1157 47.534 41.6031 44.5016C42.8015 42.0615 43.6826 39.4983 44.1516 36.7928C44.1847 36.5986 44.2511 36.2906 44.3032 35.9826Z" fill="#E0837B"/>
<path fill-rule="evenodd" clip-rule="evenodd" d="M36.4777 19.0345L36.8614 21.7778C36.7761 21.7683 36.6909 21.7589 36.6103 21.7446L35.3172 12.4534C35.3929 12.4534 35.4735 12.4534 35.5635 12.4534L36.2172 17.1535L35.6772 12.4581C35.8619 12.4628 36.0656 12.4818 36.293 12.5007L36.3451 12.5055L37.6762 21.8678C37.5909 21.8584 37.5056 21.8489 37.4251 21.8394L36.3972 14.6186L37.4062 21.8394L37.1598 21.811L36.2219 15.0735L36.6767 19.0108L36.4777 19.0345ZM35.2887 12.4581C35.2035 12.4628 35.1229 12.4676 35.0471 12.4723L35.3124 14.5476L34.8908 12.496C34.7156 12.5292 34.5782 12.586 34.474 12.6666L35.5872 21.4414C35.6677 21.4888 35.753 21.5314 35.8477 21.5693L34.7866 13.1878L35.7103 17.6699L36.2172 21.6736C36.2977 21.6925 36.3782 21.7067 36.4682 21.721L36.0419 18.3475L36.0988 18.3333L35.9519 17.6226L35.2887 12.4581ZM37.8325 16.5139L37.8135 14.2965L38.903 22.0574C38.9883 22.0716 39.0688 22.0858 39.1541 22.1047L38.9078 20.3375H39.0594L39.3104 22.1332C39.3957 22.1474 39.4762 22.1663 39.5615 22.1805L39.0925 18.7976L39.1209 16.8408L39.8694 22.2421C39.9547 22.2611 40.0352 22.28 40.1204 22.2943L39.1399 15.2299L39.1683 13.0361C39.0878 13.0125 39.0073 12.9935 38.9267 12.9746L38.9173 13.6379L38.8225 12.9461L38.813 12.9414C38.7325 12.9224 38.652 12.8987 38.5715 12.8798L38.8983 15.2441L38.8699 17.2009L38.2588 12.8087C38.1735 12.7898 38.093 12.7708 38.0078 12.7566L38.8462 18.8118L38.832 19.821L37.8372 12.7234C37.7425 12.7045 37.6477 12.6855 37.553 12.6713L37.572 14.666L37.2877 12.6287C37.0698 12.5955 36.8472 12.5623 36.6293 12.5387L37.1646 16.3054L37.5909 20.6502L37.7804 20.6312L37.9604 21.9105C38.022 21.92 38.0788 21.9294 38.1404 21.9342L38.2067 21.9436L37.7946 19.0534H37.8467L37.842 18.3806L38.3441 21.9626C38.4293 21.9768 38.5099 21.991 38.5951 22.0052L37.8325 16.5139ZM40.2199 13.3489V13.3678V13.3489C40.3005 13.3773 40.381 13.401 40.4615 13.4247L40.4094 14.8271L41.4184 22.5975C41.3331 22.5785 41.2478 22.5549 41.1673 22.5359L40.3573 16.3007L40.2862 18.3522L40.8168 22.4459C40.7315 22.4269 40.651 22.408 40.5657 22.389L40.2341 19.8257L39.9925 19.8163L40.0447 18.3664L39.3578 13.0883C39.4431 13.112 39.5283 13.1356 39.6136 13.1593L40.0968 16.8882L40.1678 14.8319L39.9641 13.2588C40.0541 13.2967 40.1394 13.3252 40.2199 13.3489ZM41.0205 13.6094C40.9352 13.581 40.8499 13.5526 40.7647 13.5242L41.0536 15.9169L40.9636 18.2196L41.2052 18.229L41.2384 17.4236L41.8779 22.7159C41.9631 22.7396 42.0437 22.7586 42.1289 22.7823L41.8731 20.6786L41.9773 20.6833L42.1573 22.7918C42.2426 22.8154 42.3231 22.8344 42.4084 22.8581L42.1337 19.6931L42.5221 22.8913C42.6074 22.9149 42.6926 22.9386 42.7732 22.9623L42.1195 17.5657L42.2473 14.6802L42.6168 18.9871L42.5837 19.9063L42.6974 19.911L42.9674 23.0192C43.1332 23.0666 43.2942 23.1139 43.4458 23.1566L42.9484 16.8313L43.0337 14.5144C42.9579 14.4623 42.8821 14.4102 42.7968 14.3581L42.7826 14.7655L42.7495 14.3296C42.6689 14.2822 42.5837 14.2349 42.4937 14.1922L42.7068 16.836L42.7021 17.0256L42.4558 14.1733C42.3279 14.1117 42.1905 14.0501 42.0437 13.9885L41.9489 16.1017L41.6742 13.8416C41.5605 13.799 41.4421 13.7563 41.3142 13.7137L41.1436 13.6521L41.1152 14.396L41.0205 13.6094ZM43.6353 15.1067L43.6874 15.7463L43.6921 15.1825C43.7774 15.3104 43.8579 15.4525 43.9337 15.6042L43.9195 18.5891L44.3032 23.3793C44.2227 23.3603 44.1421 23.3414 44.0569 23.3224L43.8863 21.2045L43.9763 23.2134L43.7348 23.2277L43.3558 14.775C43.4505 14.8745 43.5453 14.9882 43.6353 15.1067ZM37.0651 12.7661L37.4109 16.2722L37.6051 17.6415L37.5956 16.5328L37.0651 12.7661ZM41.7784 19.8873L41.8258 18.8687L41.3852 13.7563L41.3 15.9074L41.7784 19.8873ZM42.8726 18.9018L42.9958 20.4275L42.8726 18.9824V18.9018ZM44.739 18.447L44.9664 23.4409C44.8906 23.4503 44.8101 23.4503 44.7248 23.4456L44.4453 17.2246C44.5448 17.6415 44.6443 18.049 44.739 18.447Z" fill="#C75C52"/>
<path fill-rule="evenodd" clip-rule="evenodd" d="M38.382 30.9695L38.8225 33.3954C38.6899 33.3149 38.5951 33.2106 38.5194 33.0732L36.5819 22.4221L37.7899 29.586L37.9651 30.2873L37.913 30.3015L38.1025 31.4339C38.0504 31.197 37.9888 30.9364 37.9083 30.6474C37.7756 30.1736 37.6193 29.6855 37.4393 29.1738L36.4493 25.1986L36.8756 27.7193L36.8614 27.6861C36.7714 27.4681 36.6293 27.1649 36.4777 26.8143L35.7766 22.659C35.843 22.5832 35.9235 22.5216 36.023 22.4743L37.0367 26.53L36.3356 22.3748C36.4777 22.3511 36.634 22.3416 36.8188 22.3558H36.8235L38.0504 29.0933L36.994 22.3653C37.2025 22.3842 37.4109 22.4032 37.6193 22.4269L39.6752 33.566C39.5852 33.5612 39.4999 33.5565 39.4241 33.547L38.1309 26.5442L39.4052 33.5423C39.3104 33.5328 39.2252 33.5186 39.1494 33.4997L37.9699 27.0085L38.5857 30.9174L38.382 30.9695ZM39.6325 28.3873L39.5189 26.1699L40.8689 33.5518C40.9494 33.547 41.03 33.5423 41.1105 33.5376L40.8594 32.1541L41.011 32.1493L41.2621 33.5281C41.3426 33.5233 41.4231 33.5186 41.5036 33.5091L40.9778 30.6095L40.9257 28.6526L41.8021 33.4902C41.8826 33.4854 41.9631 33.476 42.0437 33.4712L40.8784 27.0465L40.7836 23.5593L41.9158 30.1404L41.9252 31.5902H42.1668L42.4842 33.4333L42.5979 33.4238L42.7258 33.4096L42.1574 30.1167L42.1479 28.0604L43.0621 33.3765C43.1426 33.367 43.2232 33.3575 43.3037 33.348L42.1431 26.5916L42.1242 23.3745C42.0437 23.3508 41.9631 23.3318 41.8826 23.3081L41.8921 25.137L41.5652 23.2276C41.48 23.2039 41.3947 23.185 41.3094 23.1613L41.9016 26.6106L41.911 28.6669L40.9494 23.076C40.8073 23.0428 40.6699 23.0096 40.5278 22.9765L40.5989 25.4687L40.1299 22.8865C40.0447 22.8675 39.9594 22.8486 39.8741 22.8296L40.6415 27.0749L40.6936 29.0317L39.5615 22.7633C39.3341 22.7159 39.102 22.6732 38.8746 22.6306L39.1873 24.3316L39.301 26.549L38.5762 22.5785C38.4388 22.5548 38.3015 22.5311 38.1641 22.5122L38.1878 22.6875L38.1546 22.5122L38.0836 22.5027C38.022 22.4932 37.9604 22.4837 37.9035 22.4743L38.9599 28.2025L39.5662 32.5236L39.7557 32.4952L39.9547 33.5802C40.0304 33.5802 40.1157 33.5802 40.201 33.5755L39.7131 30.9174L39.7652 30.9127L39.732 30.2399L40.3384 33.566C40.4141 33.5612 40.4994 33.5612 40.5847 33.5565L39.6325 28.3873ZM42.3895 23.4455L42.8253 26.1273L42.8205 23.7393L42.7921 23.5545C42.8868 23.5829 42.9816 23.6066 43.0763 23.6351L43.1663 24.3505L43.7253 27.7856L43.7348 24.5116L43.6448 23.8056C43.8342 23.8625 44.019 23.9193 44.2085 23.9762L44.5022 26.4163L44.4927 24.071C44.578 24.0994 44.6585 24.1326 44.7343 24.161L44.7485 28.4679L45.3027 33.0258C45.1606 33.0685 45.0043 33.1064 44.8337 33.1396L44.6301 31.5571H44.5164L44.5116 30.6379L43.9621 26.3547L43.9527 29.2402L44.5969 33.1775C44.5448 33.1869 44.4927 33.1917 44.4406 33.2012L44.3695 33.2201L44.0664 31.3723L44.3032 33.2296C44.2227 33.2391 44.1421 33.2533 44.0616 33.2627L43.9479 32.3673H43.8437L43.9906 33.2722C43.91 33.2817 43.8295 33.2912 43.749 33.3007L43.0716 29.1454V29.9509H42.83L42.8253 27.6434L42.1289 23.3697C42.2189 23.3982 42.3042 23.4219 42.3895 23.4455ZM45.1369 24.3505C45.0422 24.2984 44.938 24.2463 44.8243 24.1989L45.0232 25.843L45.6343 32.9169C45.8096 32.8411 45.9611 32.751 46.089 32.6373L45.7906 30.1878L45.5917 24.6869C45.5159 24.6158 45.4353 24.5495 45.3406 24.4832L45.4448 27.3592L45.2553 25.8146L45.1369 24.3505ZM38.7088 24.6774L39.1967 28.1646L39.4478 29.5244L39.391 28.4205L38.7088 24.6774ZM39.3625 23.0333L39.4289 24.3079L40.7694 31.6518L40.741 30.6426L39.3625 23.0333ZM43.7158 31.5807L43.0716 27.6245L43.0669 25.4734L43.7206 30.5621L43.7158 31.5807ZM44.7674 30.5431V30.6237L44.9522 32.0593L44.7674 30.5431ZM43.9858 24.0994V24.5021L44.5211 28.6811V28.4915L43.9858 24.0994ZM46.3733 27.2028L46.6196 30.0456C46.6338 30.2778 46.6433 30.5052 46.648 30.7326C46.6622 31.2159 46.6291 31.6044 46.5391 31.9171L45.9564 25.1749C46.1933 25.6535 46.2643 26.2742 46.3638 27.1223L46.3733 27.2028Z" fill="#C75C52"/>
<path fill-rule="evenodd" clip-rule="evenodd" d="M35.2177 48.7226L34.0524 57.2416C33.9671 57.2131 33.896 57.161 33.8297 57.0947L34.9334 49.0116C35.2224 47.865 35.5256 46.7231 35.8193 45.586C36.3119 43.6671 36.7951 41.7529 37.2072 39.834L34.8908 57.1326C34.8008 57.1752 34.7155 57.2084 34.635 57.2321L36.3451 44.4726L34.5971 57.2463L34.5734 57.251C34.4929 57.27 34.4171 57.2842 34.3461 57.2889L36.0466 44.8563L35.4166 48.7652L35.2177 48.7226ZM34.6445 50.1487C34.3982 51.1437 34.166 52.1434 33.9529 53.1479L33.5218 56.0381C33.5266 56.365 33.5739 56.6209 33.6497 56.8104L34.6445 50.1487ZM37.1977 46.7089L37.7804 44.5768L36.2029 56.185C36.2977 56.0997 36.3924 56.0097 36.4824 55.9149L37.193 50.6889L37.3398 50.7362L36.653 55.7443C36.7477 55.6448 36.8424 55.5453 36.9419 55.4411L37.7898 49.2722L38.3441 47.4007L37.2925 55.0384C37.3919 54.9199 37.4914 54.8015 37.5861 54.6783L38.7988 45.8655L39.7888 42.53L38.8225 49.1443L38.382 50.5183L38.6093 50.5988L38.112 53.996C38.2162 53.8633 38.3156 53.7259 38.4151 53.5933L39.0593 49.2011L39.6846 47.2538L38.8414 53.02C38.9457 52.8778 39.0451 52.7404 39.1494 52.5983L40.1299 45.8561L41.1247 42.7669L40.452 47.0927L39.7415 49.2769L39.9688 49.3575L40.2199 48.5947L39.7225 51.7928C40.1204 51.2243 40.4994 50.6652 40.8594 50.1108L41.0347 48.9926L41.9394 46.2635L41.352 49.3433C41.6647 48.8458 41.9584 48.3577 42.2379 47.8697L43.5358 43.8566L43.0858 46.1309L43.0052 46.4768C43.1663 46.1735 43.3179 45.875 43.4647 45.5718L46.1459 34.101C46.0843 34.0394 46.0132 33.9826 45.9374 33.9352L44.6821 39.3129L45.7622 33.8452C45.6911 33.8167 45.6153 33.793 45.5301 33.7741L43.9384 41.8287L42.4273 46.5052L43.261 42.2836L43.8105 40.6205L43.6021 40.5447L44.9521 33.7078C44.8716 33.7078 44.7911 33.7078 44.7058 33.7125L43.0289 42.2125L42.8726 42.6816L44.5827 33.722C44.4974 33.7315 44.4121 33.7362 44.3316 33.7504L42.2805 44.4347L41.2573 47.5286L41.7926 44.0935L41.9442 43.2881L42.9863 40.0946L42.7589 40.0141L42.3089 41.3976L43.7537 33.8215C43.6684 33.831 43.5832 33.8404 43.5026 33.8499L42.8821 37.1097L43.3842 33.8641C43.2989 33.8736 43.2184 33.8831 43.1331 33.8925L41.6552 43.3923L40.921 45.6523L41.5984 41.2886L42.271 39.1944L42.0436 39.1139L41.84 39.7488L42.7447 33.9305C42.6594 33.9399 42.5789 33.9447 42.4937 33.9541L41.3615 41.227L40.3431 44.3968L41.8636 34.011L41.6173 34.0299L41.0536 37.8725L40.9257 37.8298L40.5136 39.2181L41.2668 34.0584C41.1862 34.0631 41.101 34.0726 41.0205 34.0773L40.0304 40.8432L39.012 44.2688L40.4094 34.1152C40.3241 34.12 40.2436 34.1247 40.1631 34.1342L39.8267 36.5648L39.713 36.5316L39.353 37.863L39.8599 34.1674C39.7746 34.1768 39.6894 34.191 39.6088 34.2053L38.8557 39.6824L38.5146 40.9333L39.3625 34.6885L39.1209 34.6506L38.0219 42.7242L37.4393 44.8563L38.4862 37.1476L38.6425 36.2663L38.6046 36.2568L38.8557 34.4137C38.7562 34.4611 38.6662 34.5132 38.5904 34.5748L38.2446 37.1097L37.5814 40.829L38.3204 35.3092L38.1025 35.2761C38.0883 35.3092 38.0788 35.3424 38.0646 35.3803L36.6009 46.3109L35.8335 50.6036L36.0182 50.6415L35.1703 56.9715C35.2556 56.9194 35.3456 56.8625 35.4403 56.7962L36.4682 49.1395L36.5203 49.1537L36.6956 48.5094L35.9045 54.3419L36.1461 54.3798L37.1977 46.7089ZM43.9005 44.6479L44.8764 41.2554L45.1085 41.3265L44.7058 42.729C44.4595 43.3686 44.1942 44.0035 43.9005 44.6479ZM37.4725 42.8853L36.8519 46.3488L36.6672 47.7181L36.9561 46.6521L37.4725 42.8853ZM39.0972 39.7345L39.6988 37.5219L38.5572 45.8087L38.003 47.6802L39.0972 39.7345ZM38.5999 41.5492L37.5435 49.2153L37.2593 50.1819L38.2635 42.7811L38.5999 41.5492ZM39.2678 47.7465L40.2673 40.9048L40.9399 38.6401L39.8931 45.7992L39.2678 47.7465ZM40.0683 51.1105L40.6841 47.1496L41.3473 45.1122L40.3857 50.1487L40.0683 51.1105ZM42.6405 44.122L41.7831 48.4572L41.7263 48.6373L42.5173 44.501L42.6405 44.122ZM45.26 41.1512L46.3827 36.3421C46.3353 36.6217 46.2832 36.9059 46.2359 37.1902C46.0085 38.5121 45.6864 39.8293 45.26 41.1512Z" fill="#C75C52"/>
<path fill-rule="evenodd" clip-rule="evenodd" d="M43.3795 9.35938C43.4884 9.37359 43.5974 9.3878 43.7063 9.40202L43.9574 10.2359C44.3363 11.5152 44.7248 12.7944 45.0942 14.0785C48.3249 25.2697 50.2765 35.3001 44.7058 46.117C43.0147 49.4005 40.8262 52.4612 38.5051 55.3325C38.183 55.7305 37.8419 56.0906 37.4914 56.4222C37.6903 56.209 37.8846 55.9863 38.0693 55.7542C40.3904 52.8355 42.5789 49.7227 44.27 46.3824C49.8407 35.3806 47.8843 25.1323 44.6584 13.7468C44.289 12.4391 43.9005 11.1409 43.5216 9.83792L43.3795 9.35938Z" fill="#CFA284"/>
<path fill-rule="evenodd" clip-rule="evenodd" d="M38.382 30.9648L38.8225 33.3907C38.6899 33.3101 38.5951 33.2059 38.5193 33.0685L36.5819 22.4174L37.7898 29.5813L37.9651 30.2825L37.913 30.2967L38.1025 31.4339C38.0504 31.197 37.9888 30.9364 37.9083 30.6474C37.7756 30.1736 37.6193 29.6855 37.4393 29.1738L36.4445 25.1986L36.8709 27.724L36.8566 27.6908C36.7666 27.4729 36.6245 27.1696 36.473 26.819L35.7719 22.659C35.8382 22.5832 35.9187 22.5216 36.0182 22.4743L37.0319 26.53L36.3308 22.3748C36.473 22.3511 36.6293 22.3416 36.814 22.3558H36.8188L38.0456 29.0933L36.9893 22.3653C37.1977 22.3842 37.4061 22.4032 37.6146 22.4269L39.6704 33.566C39.5804 33.5612 39.4951 33.5565 39.4194 33.547L38.1262 26.5442L39.4004 33.5423C39.3057 33.5328 39.2204 33.5186 39.1446 33.4997L37.9651 27.0085L38.5809 30.9174L38.382 30.9648ZM39.6325 28.3873L39.5188 26.1699L40.8689 33.5518C40.9494 33.547 41.0299 33.5423 41.1152 33.5376L40.8641 32.1541L41.0157 32.1493L41.2668 33.5281C41.3473 33.5233 41.4278 33.5186 41.5084 33.5139L40.9826 30.6142L40.9305 28.6574L41.8068 33.4949C41.8873 33.4902 41.9679 33.4807 42.0484 33.476L40.8831 27.0465L40.7883 23.5593L41.9205 30.1451L41.93 31.595H42.1715L42.4889 33.4381L42.6026 33.4286L42.7305 33.4144L42.1621 30.1214L42.1526 28.0651L43.0668 33.3812C43.1474 33.3717 43.2279 33.3622 43.3084 33.3575L42.1431 26.5869L42.1242 23.3697C42.0436 23.346 41.9631 23.3271 41.8826 23.3034L41.8921 25.1323L41.5652 23.2229C41.4799 23.1992 41.3947 23.1802 41.3094 23.1565L41.9015 26.6058L41.911 28.6621L40.9494 23.0712C40.8073 23.0381 40.6699 23.0049 40.5278 22.9717L40.5989 25.4639L40.1299 22.8817C40.0446 22.8628 39.9594 22.8438 39.8741 22.8249L40.6415 27.0701L40.6936 29.027L39.5615 22.7585C39.3341 22.7112 39.102 22.6685 38.8746 22.6259L39.1872 24.3268L39.3009 26.5442L38.5762 22.5737C38.4388 22.5501 38.3014 22.5264 38.1641 22.5074L38.1877 22.6827L38.1546 22.5074L38.0835 22.4979C38.0219 22.4885 37.9604 22.479 37.9035 22.4695L38.9599 28.1978L39.5662 32.5189L39.7557 32.4905L39.9546 33.5802C40.0304 33.5802 40.1157 33.5802 40.201 33.5802L39.7083 30.9222L39.7604 30.9174L39.7273 30.2446L40.3336 33.5707C40.4141 33.566 40.4947 33.566 40.5799 33.5612L39.6325 28.3873ZM42.3894 23.4408L42.8252 26.1225L42.8205 23.7346L42.7921 23.5498C42.8868 23.5782 42.9816 23.6066 43.0763 23.6303L43.1663 24.3458L43.7253 27.7808L43.7347 24.5069L43.6447 23.8009C43.8342 23.8578 44.019 23.9146 44.2084 23.9715L44.5069 26.4116L44.4974 24.0662C44.5827 24.0947 44.6632 24.1278 44.739 24.1562L44.7532 28.4631L45.3074 33.0211C45.1653 33.0638 45.009 33.1017 44.8385 33.1348L44.6348 31.5523H44.5211L44.5163 30.6331L43.9669 26.35L43.9574 29.2354L44.6016 33.1727C44.5495 33.1822 44.4974 33.1917 44.4453 33.1964L44.3695 33.2154L44.0663 31.3675L44.3032 33.2248C44.2227 33.2343 44.1421 33.2485 44.0616 33.258L43.9479 32.3625H43.8437L43.9905 33.2675C43.91 33.277 43.8295 33.2864 43.749 33.2959L43.0716 29.1407V29.9461H42.83L42.8252 27.6387L42.1289 23.365C42.2189 23.3934 42.3042 23.4171 42.3894 23.4408ZM45.1369 24.3458C45.0422 24.2937 44.9379 24.2415 44.8242 24.1942L45.0232 25.8383L45.6343 32.9121C45.8095 32.8363 45.9611 32.7463 46.0938 32.6326L45.7906 30.183L45.5916 24.6822C45.5158 24.6111 45.4353 24.5448 45.3406 24.4784L45.4448 27.3592L45.2553 25.8146L45.1369 24.3458ZM38.7088 24.6774L39.1967 28.1646L39.4478 29.5244L39.3909 28.4205L38.7088 24.6774ZM39.3625 23.0333L39.4288 24.3079L40.7694 31.6518L40.741 30.6426L39.3625 23.0333ZM43.7158 31.576L43.0716 27.6198L43.0668 25.4687L43.7205 30.5573L43.7158 31.576ZM44.7674 30.5431V30.6237L44.9521 32.0593L44.7674 30.5431ZM43.9811 24.0947V24.4974L44.5163 28.6763V28.4868L43.9811 24.0947ZM46.3685 27.1981L46.6148 30.0409C46.629 30.2731 46.6385 30.5005 46.6433 30.7279C46.6575 31.2112 46.6243 31.5997 46.5343 31.9077L45.9516 25.1655C46.1885 25.644 46.2596 26.2647 46.359 27.1128L46.3685 27.1981Z" fill="#C75C52"/>
<path fill-rule="evenodd" clip-rule="evenodd" d="M43.0432 14.5193L43.9527 22.4744C44.0379 22.446 44.1137 22.3986 44.18 22.3323L43.3132 14.742C43.2279 14.6614 43.1379 14.5903 43.0432 14.5193ZM43.0811 13.4864C42.8679 12.5814 42.6547 11.6812 42.4463 10.781C42.2189 9.80493 41.9916 8.82416 41.7784 7.84812C41.6837 7.82917 41.5937 7.80548 41.4989 7.78653L42.1195 13.3679C42.2095 13.3964 42.2947 13.42 42.3705 13.4437L41.9489 9.65331L42.38 13.4437C42.47 13.4674 42.5553 13.4864 42.631 13.5006L42.2379 10.0418L42.721 13.5148C42.8726 13.5385 42.9958 13.529 43.0811 13.4864ZM42.1952 14.0502C42.2852 14.0881 42.3705 14.1308 42.451 14.1687L43.3748 22.446C43.2942 22.4176 43.209 22.3844 43.119 22.3418L42.1952 14.0502ZM42.4653 14.1781C42.5553 14.2208 42.6405 14.2682 42.7258 14.3155L43.659 22.5076C43.5879 22.5029 43.5121 22.4886 43.4316 22.4649L43.4079 22.4602L42.4653 14.1781ZM43.5121 15.3721C43.7348 16.3718 43.9479 17.3763 44.1374 18.3855L44.5069 21.2852C44.4927 21.6121 44.4406 21.8632 44.36 22.0527L43.5121 15.3721ZM41.0394 11.8754L40.5089 9.72912L40.8736 12.9415C40.7884 12.9131 40.7031 12.8846 40.6226 12.861L40.0589 7.91919L39.912 7.32694C40.021 7.36484 40.1347 7.40275 40.2483 7.44065L40.2957 7.87181L40.831 10.0181L40.5515 7.53067C40.7694 7.59701 40.9873 7.65386 41.2147 7.71072L41.6363 11.4822L41.9158 13.2921C41.7358 13.2305 41.5368 13.1595 41.3142 13.0836L41.1721 13.0363L41.0394 11.8754ZM41.2431 13.6901L41.9063 19.5605L42.1479 19.5321L41.4989 13.7801C41.4421 13.7612 41.3805 13.7375 41.3189 13.7185L41.2431 13.6901ZM41.5131 13.7849L41.6505 14.3297L41.7026 14.3155L42.56 21.9959C42.65 22.0622 42.7353 22.1238 42.8253 22.1759L42.1195 15.827L42.3089 15.7938L42.0247 13.9744C41.8589 13.9128 41.6931 13.8465 41.5131 13.7849ZM38.9978 6.97632L39.2773 9.39746L38.562 6.78206C38.4293 6.72047 38.3015 6.65888 38.1688 6.59254L38.8841 12.3682C38.9694 12.3872 39.0499 12.4108 39.1352 12.4298L38.543 7.63965L39.4573 10.9942L39.6373 12.5672C39.7225 12.5909 39.8078 12.6146 39.8883 12.6383L39.8789 12.5388L39.9073 12.643C39.9973 12.6714 40.092 12.6951 40.182 12.7236L39.6989 10.9468L39.2536 7.0853C39.1683 7.04739 39.0831 7.01423 38.9978 6.97632ZM37.5483 6.26088C37.6335 6.30826 37.7235 6.35564 37.8088 6.40302L38.363 10.8994L38.7941 12.3445C38.6236 12.3019 38.453 12.264 38.2872 12.2261L38.1309 10.9515L37.2072 7.83864L37.7756 12.1218C37.6809 12.1029 37.5909 12.0887 37.4962 12.0697L36.9277 10.1792L37.2356 12.0271C37.1172 12.0081 36.9988 11.9939 36.8804 11.9797L36.5061 9.15108L36.3688 8.34088L35.3977 5.12375L35.6298 5.04794L36.0466 6.44093L35.8335 5.15692C35.9756 5.25642 36.1177 5.35592 36.2598 5.45542L36.6577 8.45459L37.3446 10.7288L36.7667 6.3509L36.5582 5.64967C36.6861 5.73496 36.8188 5.82024 36.9514 5.90079L37.0035 6.29405L37.9509 9.48748L37.5483 6.26088ZM36.9609 12.5767C37.084 12.5956 37.2119 12.6146 37.3351 12.6335L37.7709 15.2395L38.0693 16.206L37.6004 12.6762C37.7188 12.6999 37.8325 12.7188 37.9509 12.7425L38.4436 14.3724L38.2114 14.4577L37.9793 13.6901L38.4057 16.8978C38.022 16.3197 37.6525 15.7512 37.3067 15.1921L37.1598 14.0692L36.6909 12.5482C36.7809 12.5577 36.8661 12.5719 36.9561 12.5814L36.9656 12.6098L36.9609 12.5767ZM36.7667 11.9702L36.004 9.48748L35.1987 4.69259C35.0993 4.61678 35.0045 4.55045 34.9192 4.48412L35.4593 7.72019L35.3124 7.24639L34.8198 4.41305C34.7203 4.34198 34.6256 4.27091 34.5403 4.20931L34.7771 5.56439L34.5687 5.63546L35.0803 7.30799L35.8193 11.5438L34.4124 6.83418L33.8819 3.7971C33.7776 3.74972 33.6924 3.7213 33.6213 3.71182L33.7255 4.30407L33.6024 3.71182C33.4982 3.70708 33.4271 3.74499 33.3797 3.83027L34.8008 10.5867C34.9429 10.8899 35.0898 11.1932 35.2414 11.5011L35.1703 11.1553L34.7724 8.87154L35.6677 11.8707C35.8098 11.8802 35.9661 11.8944 36.1319 11.9086L35.6535 9.16529L35.7719 9.54907L36.1698 11.9134L36.3119 11.9228C36.3451 11.9276 36.383 11.9276 36.4161 11.9323L36.3119 11.3164L36.5014 11.9418C36.5914 11.9513 36.6814 11.9607 36.7667 11.9702ZM35.843 12.4677L35.9756 12.9131C36.2456 13.4058 36.5298 13.9033 36.8283 14.4056L36.5109 12.5198C36.4351 12.5103 36.364 12.5056 36.2882 12.4961H36.2598L36.4635 13.6996L36.4114 13.5195L36.2314 12.4961C36.094 12.4867 35.9661 12.4772 35.843 12.4677ZM38.3583 12.8373L38.9599 17.7222C39.0594 17.8643 39.1541 18.0065 39.2583 18.1486L38.6094 12.8989C38.5288 12.8799 38.4436 12.8562 38.3583 12.8373ZM38.7136 12.9226L39.1304 14.325L39.6752 18.7314C39.7746 18.8688 39.8694 19.0062 39.9689 19.1436L39.5473 15.7322L39.7794 15.6564L39.3673 14.2729L39.2157 13.0552C39.0831 13.0173 38.9457 12.9841 38.813 12.951L38.7136 12.9226ZM39.7131 13.1974L40.4757 19.8353C40.5705 19.9585 40.6652 20.0817 40.7599 20.2002L39.9641 13.2684C39.8836 13.2447 39.7983 13.221 39.7131 13.1974ZM40.092 13.3111C40.2389 13.3537 40.381 13.4011 40.5278 13.4485L40.632 14.3724L40.8973 15.3437L40.6889 13.5006C40.7742 13.529 40.8594 13.5574 40.9447 13.5859L41.8258 21.3705C41.7358 21.2804 41.641 21.1904 41.551 21.0957L40.9589 15.8554L40.812 15.898L41.39 20.9204C41.2952 20.8209 41.2052 20.7166 41.1105 20.6076L40.3999 14.4198L40.092 13.3111ZM34.384 9.66279C34.1045 9.01368 33.8534 8.3693 33.6213 7.72967L33.4934 7.24639C33.4697 6.92894 33.4413 6.60202 33.4176 6.27036L33.4839 6.2514L34.384 9.66279ZM40.8499 8.04238L41.39 11.5201L41.5415 12.8941L41.2763 11.8233L40.8499 8.04238ZM39.5662 7.20375L40.201 12.7283C40.2862 12.752 40.3715 12.7804 40.452 12.8041L39.822 7.29851C39.7368 7.26534 39.6515 7.23691 39.5662 7.20375Z" fill="#C75C52"/>
<path fill-rule="evenodd" clip-rule="evenodd" d="M28.9839 4.83454C27.108 6.24648 25.1848 7.3078 22.461 7.87636C22.0868 9.20301 21.7221 10.4728 21.381 11.7094C20.7747 13.9079 21.1394 13.761 23.0579 13.0882C23.8774 12.8039 24.7064 12.5575 25.5401 12.3538C26.3738 12.1548 27.2122 11.9937 28.0601 11.9226C30.4476 11.7236 30.4144 11.8753 30.6939 9.27882C30.7744 8.53495 30.8692 7.32201 30.9686 6.11381C31.1866 3.3089 31.3192 3.072 28.9839 4.83454ZM20.0168 16.8549C20.5141 14.8744 21.1299 14.3864 23.0484 13.7136C23.8774 13.4246 24.7206 13.1593 25.5543 12.9461C26.3927 12.7328 27.2312 12.5765 28.0744 12.5007C30.2676 12.3064 30.3292 12.6523 30.1113 14.8223C29.9786 16.2011 29.846 17.5798 29.7134 18.9539C29.4386 22.0004 28.6191 21.5787 26.2175 21.9341C25.4359 22.0478 24.6543 22.2042 23.8727 22.3795C23.0911 22.5548 22.3095 22.7585 21.5326 22.9765C19.3394 23.5924 18.3967 24.0994 19.0125 21.1618C19.3062 19.7783 19.6425 18.3521 20.0168 16.8549ZM18.0083 27.1222C17.8614 28.3636 17.762 29.5623 17.7241 30.7374C17.6625 32.5141 18.2925 32.9737 19.922 33.2106C20.5426 33.3006 21.1584 33.3717 21.7694 33.4286C22.3852 33.4854 22.9963 33.5328 23.6121 33.566C26.4069 33.7128 25.7438 33.2485 26.4638 30.6568C26.7196 29.7424 27.0654 28.7663 27.5107 27.7003C28.0554 26.4021 30.2534 22.171 27.558 22.3653C27.1317 22.3984 26.7101 22.4411 26.2885 22.5074C25.2511 22.6638 24.2137 22.8864 23.1763 23.1376C22.1389 23.3887 21.1015 23.6919 20.0831 24.0094C18.2925 24.559 18.2214 25.3407 18.0083 27.1222ZM18.1314 37.1906C17.8046 35.3096 17.293 33.3954 20.0404 33.7507C20.6847 33.8313 21.3289 33.9118 21.9731 33.9687C22.6174 34.0256 23.2616 34.0824 23.9106 34.1203C26.1985 34.2625 26.2554 34.8168 26.6201 37.0058C27.1033 39.8818 27.8138 42.7293 28.5481 45.5863C29.287 48.4481 30.0639 51.3336 30.6418 54.2806C31.1439 56.7444 30.6607 57.4741 29.7939 57.2466C28.927 57.024 27.6717 55.8395 26.6391 54.5033C24.1616 51.2862 22.2621 48.3486 20.8741 45.5153C19.4957 42.6867 18.6146 39.9576 18.1314 37.1906Z" fill="#C75C52"/>
<path fill-rule="evenodd" clip-rule="evenodd" d="M22.93 8.44973C26.0611 7.25575 27.3117 6.73457 28.5054 5.88646C30.0165 4.81093 30.7649 3.96756 30.4523 6.365C30.3102 7.46896 30.1586 8.6203 30.0923 9.21256C30.0639 9.48263 29.9549 10.8519 29.7607 11.0367C29.576 11.212 28.2733 11.2736 28.0128 11.2926C27.1317 11.3636 26.2648 11.5295 25.4074 11.7379C24.55 11.9464 23.7021 12.1975 22.8684 12.4865C22.6931 12.5481 22.0963 12.7708 21.7363 12.8561C21.7836 12.5292 21.921 12.0412 21.9636 11.8801C22.2763 10.7382 22.6031 9.5916 22.93 8.44973ZM19.4625 22.8154C19.3678 22.5312 19.5573 21.5362 19.6094 21.2945C19.9078 19.8589 20.2489 18.4328 20.6041 17.0161C21.0589 15.2062 21.5847 14.8935 23.2426 14.3154C24.0526 14.0311 24.8721 13.7753 25.7011 13.5621C26.4969 13.3583 27.3117 13.2067 28.1312 13.1309C28.3112 13.1167 29.4054 13.0219 29.5381 13.1736C29.6707 13.3299 29.5381 14.5523 29.5191 14.7561C29.3865 16.1348 29.2539 17.5136 29.1212 18.8924C29.0786 19.3899 28.9791 20.5317 28.5386 20.8586C28.3349 21.0103 27.9986 21.0671 27.757 21.105C27.2217 21.1856 26.6817 21.2235 26.1464 21.304C25.3458 21.4225 24.55 21.5836 23.759 21.7589C22.9631 21.9342 22.1721 22.1426 21.3905 22.3653C21.1157 22.4411 19.7752 22.8676 19.4625 22.8154ZM18.6099 27.1981C18.6714 26.6864 18.7425 25.7909 19.0172 25.355C19.2778 24.9476 19.8273 24.7438 20.2536 24.6112C21.2673 24.2985 22.2858 24 23.3137 23.7488C24.3274 23.5025 25.3458 23.2845 26.3738 23.1282C26.7811 23.0666 27.1885 23.0239 27.5959 22.9908C27.7475 22.9813 28.0601 22.9718 28.1691 23.1187C28.4628 23.5072 28.0128 24.867 27.8659 25.2697C27.5959 26.0184 27.2596 26.7101 26.9517 27.4398C26.5348 28.4253 26.1653 29.4392 25.8764 30.4768C25.7153 31.0549 25.6111 31.6187 25.488 32.2015C25.4595 32.3389 25.3837 32.7037 25.289 32.808C25.0948 33.0164 23.8869 32.9406 23.6405 32.9264C23.0342 32.8932 22.4279 32.8506 21.8215 32.7937C21.2152 32.7369 20.6089 32.6658 20.0025 32.5805C19.5952 32.5237 18.8799 32.41 18.5909 32.0736C18.3162 31.7609 18.3162 31.1496 18.3256 30.7564C18.3683 29.5671 18.4678 28.3779 18.6099 27.1981ZM18.7283 37.0769C18.6383 36.5557 18.2972 35.068 18.6004 34.6084C18.8325 34.2531 19.6425 34.3336 19.9741 34.3762C20.6231 34.4615 21.2768 34.5373 21.9305 34.5942C22.5794 34.6511 23.2284 34.7079 23.8821 34.7458C24.299 34.7695 25.1943 34.8216 25.5022 35.1675C25.8101 35.5134 25.9522 36.6552 26.028 37.1101C26.5159 40.024 27.2312 42.8905 27.9701 45.7428C28.7091 48.614 29.4812 51.4853 30.0544 54.3992C30.1634 54.9393 30.277 55.6121 30.2344 56.1712C30.2297 56.2565 30.1918 56.5787 30.116 56.6403C30.0828 56.6545 29.9786 56.6355 29.9455 56.626C29.0502 56.3939 27.6859 54.8351 27.1175 54.0959C24.9906 51.3337 22.9726 48.3819 21.4189 45.2169C20.1494 42.6346 19.2257 39.9387 18.7283 37.0769Z" fill="#D6736A"/>
<path fill-rule="evenodd" clip-rule="evenodd" d="M24.1095 9.8524C25.4122 9.60128 26.6817 9.23172 27.9323 8.75792C28.1738 8.66789 28.4107 8.57313 28.6523 8.47363C28.6333 8.66315 28.6096 8.84794 28.5907 9.03746C28.5717 9.2175 28.5528 9.44967 28.5291 9.67709C28.3017 9.69131 28.0744 9.70078 27.8944 9.715C26.9422 9.79554 25.9996 9.97085 25.0664 10.1935C24.6827 10.2836 24.3037 10.3878 23.9248 10.4968C23.9864 10.2836 24.0479 10.0656 24.1095 9.8524ZM21.2768 20.7593C21.5231 19.6412 21.7884 18.5277 22.0679 17.419C22.1342 17.1537 22.281 16.5851 22.48 16.3861C22.7121 16.154 23.4274 15.9218 23.7211 15.8176C24.4885 15.5475 25.2653 15.3011 26.0564 15.1021C26.6959 14.941 27.3401 14.8131 27.9938 14.7373C27.8659 16.0734 27.7333 17.4048 27.6101 18.7409V18.7504C27.5912 18.9352 27.5628 19.2811 27.5107 19.5512C26.9849 19.627 26.4543 19.6696 25.9285 19.7454C25.0901 19.8686 24.2611 20.0344 23.4369 20.2192C22.7121 20.3756 21.9921 20.5603 21.2768 20.7593ZM20.2678 26.2839C20.391 26.2223 20.5805 26.1607 20.6799 26.1323C21.6652 25.829 22.6553 25.54 23.6548 25.2936C24.5785 25.0662 25.5117 24.8672 26.4496 24.7203C26.1938 25.431 25.8575 26.1133 25.5685 26.8051C25.128 27.8569 24.7301 28.9325 24.4269 30.0364C24.3037 30.477 24.209 30.9224 24.1143 31.3725C23.9674 31.3678 23.8253 31.3583 23.7163 31.3536C23.129 31.3204 22.5416 31.2778 21.9542 31.2257C21.3715 31.1735 20.7889 31.1072 20.211 31.0219C20.121 31.0077 19.9741 30.9888 19.8368 30.9603C19.8368 30.9082 19.8368 30.8608 19.8415 30.8182C19.8794 29.6763 19.9789 28.5345 20.1115 27.3973C20.1399 27.132 20.1826 26.5824 20.2678 26.2839ZM20.0641 35.9826C20.642 36.0537 21.22 36.12 21.7979 36.1722C22.461 36.229 23.1242 36.2859 23.7874 36.3285C23.9248 36.338 24.1616 36.3475 24.3653 36.3759C24.4411 36.7028 24.4932 37.134 24.5358 37.3851C25.0332 40.3464 25.758 43.2555 26.5064 46.1599C27.0938 48.4342 27.7001 50.7084 28.2117 53.0016C26.1748 50.3484 24.2516 47.534 22.7642 44.5016C21.5658 42.0615 20.6847 39.4983 20.2157 36.7928C20.1826 36.5986 20.1162 36.2906 20.0641 35.9826Z" fill="#E0837B"/>
<path fill-rule="evenodd" clip-rule="evenodd" d="M27.8896 19.0345L27.5059 21.7778C27.5911 21.7683 27.6764 21.7589 27.7569 21.7447L29.0501 12.4534C28.9743 12.4534 28.8938 12.4534 28.8038 12.4534L28.1501 17.1535L28.6901 12.4581C28.5054 12.4628 28.3017 12.4818 28.0743 12.5007L28.0222 12.5055L26.6911 21.8678C26.7764 21.8584 26.8616 21.8489 26.9422 21.8394L27.9701 14.6186L26.9611 21.8394L27.2074 21.811L28.1454 15.0735L27.6906 19.0108L27.8896 19.0345ZM29.0786 12.4581C29.1638 12.4628 29.2443 12.4676 29.3201 12.4723L29.0549 14.5476L29.4765 12.496C29.6517 12.5292 29.7891 12.586 29.8933 12.6666L28.7849 21.4462C28.7043 21.4935 28.6191 21.5362 28.5243 21.5741L29.5854 13.1925L28.6617 17.6747L28.1548 21.6783C28.0743 21.6973 27.9938 21.7115 27.9038 21.7257L28.3301 18.3522L28.2733 18.338L28.4201 17.6273L29.0786 12.4581ZM26.5348 16.5139L26.5537 14.2965L25.4642 22.0574C25.379 22.0716 25.2984 22.0858 25.2132 22.1047L25.4595 20.3375H25.3079L25.0569 22.1332C24.9716 22.1474 24.8911 22.1663 24.8058 22.1805L25.2748 18.7976L25.2463 16.8408L24.4979 22.2421C24.4126 22.2611 24.3321 22.28 24.2468 22.2943L25.2274 15.2299L25.199 13.0361C25.2795 13.0125 25.36 12.9935 25.4406 12.9746L25.45 13.6379L25.5448 12.9461L25.5542 12.9414C25.6348 12.9224 25.7153 12.8987 25.7958 12.8798L25.469 15.2441L25.4974 17.2009L26.1085 12.8087C26.1937 12.7898 26.2743 12.7708 26.3595 12.7566L25.5211 18.8118L25.5353 19.821L26.5301 12.7234C26.6248 12.7045 26.7195 12.6855 26.8143 12.6713L26.7953 14.666L27.0795 12.6287C27.2974 12.5955 27.5153 12.5623 27.738 12.5387L27.2027 16.3054L26.7764 20.6502L26.5869 20.6312L26.4069 21.9105C26.3453 21.92 26.2885 21.9294 26.2269 21.9342L26.1606 21.9436L26.5727 19.0534H26.5206L26.5253 18.3806L26.0232 21.9626C25.9379 21.9768 25.8574 21.991 25.7721 22.0052L26.5348 16.5139ZM24.1474 13.3489L24.1426 13.3678L24.1474 13.3489C24.0668 13.3773 23.9863 13.401 23.9058 13.4247L23.9579 14.8271L22.9489 22.5975C23.0342 22.5785 23.1194 22.5549 23.2 22.5359L24.01 16.3007L24.081 18.3522L23.5505 22.4459C23.6358 22.4269 23.7163 22.408 23.8016 22.389L24.1331 19.8257L24.3747 19.8163L24.3226 18.3664L25.0095 13.0883C24.9242 13.112 24.839 13.1356 24.7537 13.1593L24.2705 16.8882L24.1995 14.8319L24.4032 13.2588C24.3179 13.2967 24.2326 13.3252 24.1474 13.3489ZM23.3468 13.6094C23.4321 13.581 23.5173 13.5526 23.6026 13.5242L23.3136 15.9169L23.4037 18.2196L23.1621 18.229L23.1289 17.4283L22.4894 22.7207C22.4041 22.7444 22.3189 22.7633 22.2384 22.787L22.4941 20.6833L22.3899 20.6881L22.2099 22.7965C22.1294 22.8202 22.0441 22.8391 21.9589 22.8628L22.2336 19.6978L21.8452 22.896C21.7599 22.9197 21.6747 22.9434 21.5941 22.9671L22.2478 17.5704L22.1199 14.685L21.7504 18.9919L21.7836 19.911L21.6699 19.9158L21.3952 23.0192C21.2294 23.0666 21.0683 23.1139 20.9167 23.1566L21.4236 16.8313L21.3383 14.5144C21.4141 14.4623 21.4899 14.4102 21.5752 14.3581L21.5894 14.7655L21.6225 14.3296C21.7031 14.2822 21.7883 14.2349 21.8783 14.1922L21.6652 16.836L21.6747 17.0256L21.921 14.1733C22.0489 14.1117 22.1862 14.0501 22.3331 13.9885L22.4278 16.1017L22.7026 13.8416C22.8163 13.799 22.9347 13.7563 23.0626 13.7137L23.2331 13.6521L23.2615 14.396L23.3468 13.6094ZM20.7367 15.1067L20.6846 15.751L20.6799 15.1872C20.5946 15.3151 20.5141 15.4573 20.4383 15.6089L20.4525 18.5939L20.0688 23.384C20.1493 23.3651 20.2299 23.3461 20.3151 23.3272L20.4857 21.2093L20.3957 23.2182L20.6373 23.2324L21.0162 14.7797C20.9167 14.8745 20.822 14.9882 20.7367 15.1067ZM27.3069 12.7661L26.9611 16.2722L26.7669 17.6415L26.7764 16.5328L27.3069 12.7661ZM22.5889 19.8873L22.5415 18.8687L22.9821 13.7563L23.0673 15.9074L22.5889 19.8873ZM21.4994 18.9018L21.3762 20.4275L21.4994 18.9824V18.9018ZM19.6283 18.447L19.4056 23.4456C19.4814 23.4551 19.562 23.4551 19.6472 23.4503L19.9267 17.2293C19.8225 17.6415 19.7278 18.049 19.6283 18.447Z" fill="#C75C52"/>
<path fill-rule="evenodd" clip-rule="evenodd" d="M25.9853 30.9695L25.5447 33.3954C25.6774 33.3149 25.7721 33.2106 25.8479 33.0732L27.7853 22.4221L26.5774 29.586L26.4021 30.2873L26.4542 30.3015L26.2648 31.4339C26.3169 31.197 26.3785 30.9364 26.459 30.6474C26.5916 30.1736 26.7479 29.6855 26.9279 29.1738L27.918 25.1986L27.4916 27.7193L27.5059 27.6861C27.5959 27.4681 27.738 27.1649 27.8895 26.8143L28.5906 22.659C28.5243 22.5832 28.4438 22.5216 28.3443 22.4743L27.3306 26.53L28.0317 22.3748C27.8895 22.3511 27.7332 22.3416 27.5485 22.3558H27.5437L26.3169 29.0933L27.3732 22.3653C27.1648 22.3842 26.9564 22.4032 26.7479 22.4269L24.6921 33.566C24.7821 33.5612 24.8674 33.5565 24.9431 33.547L26.2363 26.5442L24.9621 33.5423C25.0568 33.5328 25.1421 33.5186 25.2179 33.4997L26.3974 27.0085L25.7816 30.9174L25.9853 30.9695ZM24.7347 28.3873L24.8484 26.1699L23.4984 33.5518C23.4178 33.547 23.3373 33.5423 23.2568 33.5376L23.5078 32.154L23.3563 32.1493L23.1052 33.5281C23.0247 33.5233 22.9441 33.5186 22.8636 33.5091L23.3894 30.6095L23.4415 28.6526L22.5652 33.4902C22.4847 33.4854 22.4041 33.476 22.3236 33.4712L23.4889 27.0465L23.5836 23.5593L22.4515 30.1404L22.442 31.5902H22.2004L21.8831 33.4333L21.7694 33.4238L21.6415 33.4096L22.2099 30.1167L22.2194 28.0604L21.3051 33.3765C21.2246 33.367 21.1441 33.3575 21.0636 33.348L22.2289 26.5821L22.2478 23.365C22.3283 23.3413 22.4089 23.3224 22.4894 23.2987L22.4799 25.1275L22.8068 23.2181C22.892 23.1944 22.9773 23.1755 23.0626 23.1518L22.4704 26.6011L22.461 28.6574L23.4226 23.0665C23.5647 23.0333 23.7021 23.0002 23.8442 22.967L23.7731 25.4592L24.2421 22.877C24.3273 22.858 24.4126 22.8391 24.4979 22.8201L23.7305 27.0654L23.6784 29.0222L24.8105 22.7538C25.0379 22.7064 25.27 22.6638 25.4974 22.6211L25.1847 24.3221L25.071 26.5395L25.7958 22.569C25.9332 22.5453 26.0705 22.5216 26.2079 22.5027L26.1842 22.678L26.2174 22.5027L26.2884 22.4932C26.35 22.4837 26.4116 22.4742 26.4685 22.4648L25.4121 28.1931L24.8058 32.5141L24.6163 32.4857L24.4173 33.5707C24.3416 33.5707 24.2563 33.5707 24.171 33.566L24.6589 30.9079L24.6068 30.9032L24.64 30.2304L24.0336 33.5565C23.9531 33.5518 23.8726 33.5518 23.7873 33.547L24.7347 28.3873ZM21.9778 23.4455L21.542 26.1273L21.5467 23.7393L21.5752 23.5545C21.4804 23.5829 21.3857 23.6066 21.2909 23.6351L21.2009 24.3505L20.642 27.7856L20.6325 24.5116L20.7225 23.8056C20.533 23.8625 20.3483 23.9193 20.1588 23.9762L19.8651 26.4163L19.8746 24.071C19.7893 24.0994 19.7088 24.1326 19.633 24.161L19.6188 28.4679L19.0646 33.0258C19.2067 33.0685 19.363 33.1064 19.5335 33.1396L19.7372 31.5571H19.8509L19.8556 30.6379L20.4051 26.3547L20.4146 29.2402L19.7704 33.1775C19.8225 33.1869 19.8746 33.1917 19.9267 33.2012L20.0072 33.2106L20.3104 31.3628L20.0735 33.2201C20.1541 33.2296 20.2346 33.2438 20.3151 33.2533L20.4288 32.3578H20.533L20.3862 33.2627C20.4667 33.2722 20.5472 33.2817 20.6278 33.2912L21.3051 29.1359V29.9414H21.5467L21.5515 27.634L22.2478 23.3603C22.1531 23.3982 22.0678 23.4219 21.9778 23.4455ZM19.2351 24.3505C19.3298 24.2984 19.434 24.2463 19.5477 24.1989L19.3488 25.843L18.7377 32.9169C18.5624 32.8411 18.4109 32.751 18.283 32.6373L18.5814 30.1878L18.7803 24.6869C18.8561 24.6158 18.9367 24.5495 19.0314 24.4832L18.9272 27.3592L19.1167 25.8146L19.2351 24.3505ZM25.6584 24.6774L25.1705 28.1646L24.9195 29.5244L24.9763 28.4205L25.6584 24.6774ZM25.0047 23.0333L24.9384 24.3079L23.5978 31.6518L23.6263 30.6426L25.0047 23.0333ZM20.6514 31.5807L21.2957 27.6245L21.3004 25.4734L20.6514 30.5621V31.5807ZM19.6046 30.5431V30.6237L19.4198 32.0593L19.6046 30.5431ZM20.3862 24.0994V24.5021L19.8509 28.6811V28.4915L20.3862 24.0994ZM17.9987 27.2028L17.7524 30.0456C17.7382 30.2778 17.7287 30.5052 17.724 30.7326C17.7098 31.2159 17.7429 31.6044 17.8329 31.9171L18.4156 25.1749C18.1787 25.6535 18.1077 26.2742 18.0082 27.1223L17.9987 27.2028Z" fill="#C75C52"/>
<path fill-rule="evenodd" clip-rule="evenodd" d="M29.1544 48.7226L30.3197 57.2416C30.4049 57.2131 30.476 57.161 30.5423 57.0947L29.4386 49.0116C29.1496 47.865 28.8465 46.7231 28.5528 45.586C28.0601 43.6671 27.577 41.7529 27.1649 39.834L29.4812 57.1326C29.5712 57.1752 29.6565 57.2084 29.737 57.2321L28.027 44.4726L29.7749 57.2463L29.7986 57.251C29.8791 57.27 29.9549 57.2842 30.026 57.2889L28.3254 44.8563L28.9554 48.7652L29.1544 48.7226ZM29.7228 50.1487C29.9691 51.1437 30.2013 52.1434 30.4144 53.1479L30.8455 56.0381C30.8407 56.365 30.7934 56.6209 30.7176 56.8104L29.7228 50.1487ZM27.1696 46.7089L26.5869 44.5768L28.1644 56.185C28.0696 56.0997 27.9749 56.0097 27.8849 55.9149L27.1743 50.6889L27.0275 50.7362L27.7143 55.7443C27.6196 55.6448 27.5249 55.5453 27.4254 55.4411L26.5775 49.2722L26.0232 47.4007L27.0749 55.0384C26.9754 54.9199 26.8759 54.8015 26.7812 54.6783L25.5685 45.8655L24.5785 42.53L25.5448 49.1443L25.9853 50.5183L25.758 50.5988L26.2554 53.996C26.1511 53.8633 26.0517 53.7259 25.9522 53.5933L25.308 49.2011L24.6827 47.2538L25.5259 53.02C25.4216 52.8778 25.3222 52.7404 25.218 52.5983L24.2421 45.8561L23.2474 42.7669L23.92 47.0927L24.6306 49.2769L24.4032 49.3575L24.1521 48.5947L24.6495 51.7928C24.2516 51.2243 23.8727 50.6652 23.5126 50.1108L23.3374 48.9926L22.4326 46.2635L23.02 49.3433C22.7074 48.8458 22.4137 48.3577 22.1342 47.8697L20.8363 43.8566L21.2863 46.1309L21.3668 46.4768C21.2057 46.1735 21.0542 45.875 20.9073 45.5718L18.2262 34.101C18.2878 34.0394 18.3588 33.9826 18.4346 33.9352L19.6899 39.3129L18.6099 33.8452C18.6809 33.8167 18.7567 33.793 18.842 33.7741L20.4336 41.8287L21.9447 46.5052L21.111 42.2836L20.5615 40.6205L20.7699 40.5447L19.4199 33.7078C19.5004 33.7078 19.581 33.7078 19.6662 33.7125L21.3431 42.2125L21.4994 42.6816L19.7894 33.722C19.8746 33.7315 19.9599 33.7362 20.0404 33.7504L22.0773 44.4394L23.1005 47.5333L22.5795 44.0935L22.4279 43.2881L21.3857 40.0946L21.6131 40.0141L22.0631 41.3976L20.6183 33.8215C20.7036 33.831 20.7889 33.8404 20.8694 33.8499L21.49 37.1097L20.9878 33.8641C21.0731 33.8736 21.1536 33.8831 21.2389 33.8925L22.7168 43.3923L23.4511 45.6523L22.7737 41.2886L22.101 39.1944L22.3284 39.1139L22.5321 39.7488L21.6273 33.9305C21.7126 33.9399 21.7931 33.9447 21.8784 33.9541L23.0105 41.227L24.029 44.3968L22.5084 34.011L22.7547 34.0299L23.3184 37.8725L23.4463 37.8298L23.8584 39.2181L23.1005 34.0584C23.1811 34.0631 23.2663 34.0726 23.3468 34.0773L24.3369 40.8432L25.3553 44.2688L23.9579 34.1152C24.0432 34.12 24.1237 34.1247 24.2042 34.1342L24.5406 36.5648L24.6543 36.5316L25.0143 37.863L24.5074 34.1674C24.5927 34.1768 24.6779 34.191 24.7585 34.2053L25.5116 39.6824L25.8527 40.9333L25.0048 34.6885L25.2464 34.6506L26.3454 42.7242L26.928 44.8563L25.8811 37.1476L25.7248 36.2663L25.7627 36.2568L25.5116 34.4137C25.6111 34.4611 25.7011 34.5132 25.7769 34.5748L26.1227 37.1097L26.7859 40.829L26.0375 35.3092L26.2554 35.2761C26.2696 35.3092 26.279 35.3424 26.2933 35.3803L27.757 46.3109L28.5244 50.6036L28.3396 50.6415L29.1875 56.9715C29.1023 56.9194 29.0123 56.8625 28.9175 56.7962L27.8896 49.1395L27.8375 49.1537L27.6622 48.5094L28.4533 54.3419L28.2117 54.3798L27.1696 46.7089ZM20.4715 44.6479L19.4957 41.2554L19.2636 41.3313L19.6662 42.7337C19.9078 43.3686 20.1778 44.0035 20.4715 44.6479ZM26.8948 42.8853L27.5154 46.3488L27.7001 47.7181L27.4112 46.6521L26.8948 42.8853ZM25.2748 39.7345L24.6732 37.5219L25.8148 45.8087L26.369 47.6802L25.2748 39.7345ZM25.7674 41.5492L26.8238 49.2153L27.108 50.1819L26.1038 42.7811L25.7674 41.5492ZM25.1043 47.7465L24.1048 40.9048L23.4321 38.6401L24.479 45.7992L25.1043 47.7465ZM24.299 51.1105L23.6832 47.1496L23.02 45.1122L23.9816 50.1487L24.299 51.1105ZM21.7268 44.122L22.5842 48.4572L22.641 48.6373L21.85 44.501L21.7268 44.122ZM19.112 41.1512L17.9846 36.3421C18.032 36.6217 18.0841 36.9059 18.1314 37.1902C18.3635 38.5121 18.6857 39.8293 19.112 41.1512Z" fill="#C75C52"/>
<path fill-rule="evenodd" clip-rule="evenodd" d="M20.6752 9.35938C20.5662 9.37359 20.4573 9.3878 20.3483 9.40202L20.0973 10.2359C19.7183 11.5152 19.3299 12.7944 18.9604 14.0785C15.7298 25.2697 13.7781 35.3001 19.3488 46.117C21.0399 49.4005 23.2284 52.4612 25.5495 55.3325C25.8716 55.7305 26.2127 56.0906 26.5632 56.4222C26.3643 56.209 26.1701 55.9863 25.9853 55.7542C23.6642 52.8355 21.4757 49.7227 19.7846 46.3824C14.2139 35.3806 16.1703 25.1323 19.3962 13.7468C19.7657 12.4391 20.1541 11.1409 20.5331 9.83792L20.6752 9.35938Z" fill="#CFA284"/>
<path fill-rule="evenodd" clip-rule="evenodd" d="M25.9853 30.9648L25.5447 33.3907C25.6774 33.3101 25.7721 33.2059 25.8479 33.0685L27.7853 22.4174L26.5774 29.5813L26.4021 30.2825L26.4542 30.2967L26.2648 31.4339C26.3169 31.197 26.3785 30.9364 26.459 30.6474C26.5916 30.1735 26.7479 29.6855 26.9279 29.1738L27.9227 25.1986L27.4964 27.724L27.5106 27.6908C27.6006 27.4729 27.7427 27.1696 27.8943 26.819L28.5954 22.659C28.529 22.5832 28.4485 22.5216 28.349 22.4743L27.3353 26.53L28.0364 22.3748C27.8943 22.3511 27.738 22.3416 27.5532 22.3558H27.5485L26.3216 29.0933L27.378 22.3653C27.1695 22.3842 26.9611 22.4032 26.7527 22.4269L24.6968 33.566C24.7868 33.5612 24.8721 33.5565 24.9479 33.547L26.2411 26.5442L24.9668 33.5423C25.0616 33.5328 25.1468 33.5186 25.2226 33.4996L26.4021 27.0085L25.7863 30.9174L25.9853 30.9648ZM24.7347 28.3873L24.8484 26.1699L23.4984 33.5518C23.4178 33.547 23.3373 33.5423 23.2568 33.5376L23.5078 32.154L23.3563 32.1493L23.1052 33.5281C23.0247 33.5233 22.9441 33.5186 22.8636 33.5139L23.3894 30.6142L23.4415 28.6574L22.5652 33.4902C22.4847 33.4854 22.4041 33.476 22.3236 33.4712L23.4889 27.0465L23.5836 23.5593L22.4515 30.1451L22.442 31.595H22.2004L21.8831 33.4381L21.7694 33.4286L21.6415 33.4144L22.2099 30.1214L22.2194 28.0651L21.3051 33.3812C21.2246 33.3717 21.1441 33.3622 21.0636 33.3575L22.2289 26.5916L22.2478 23.3745C22.3283 23.3508 22.4089 23.3318 22.4894 23.3081L22.4799 25.137L22.8068 23.2276C22.892 23.2039 22.9773 23.185 23.0626 23.1613L22.4704 26.6105L22.461 28.6669L23.4226 23.076C23.5647 23.0428 23.7021 23.0096 23.8442 22.9765L23.7731 25.4687L24.2421 22.8865C24.3273 22.8675 24.4126 22.8486 24.4979 22.8296L23.7305 27.0749L23.6784 29.0317L24.8105 22.7633C25.0379 22.7159 25.27 22.6732 25.4974 22.6306L25.1847 24.3316L25.071 26.549L25.7958 22.5785C25.9332 22.5548 26.0705 22.5311 26.2079 22.5122L26.1842 22.6875L26.2174 22.5122L26.2884 22.5027C26.35 22.4932 26.4116 22.4837 26.4685 22.4743L25.4121 28.2025L24.8058 32.5236L24.6163 32.4952L24.4173 33.5849C24.3416 33.5849 24.2563 33.5849 24.171 33.5849L24.6637 30.9269L24.6116 30.9222L24.6447 30.2494L24.0384 33.5755C23.9579 33.5707 23.8773 33.5707 23.7921 33.566L24.7347 28.3873ZM21.9825 23.4408L21.5467 26.1225L21.5515 23.7346L21.5799 23.5498C21.4852 23.5782 21.3904 23.6066 21.2957 23.6303L21.2057 24.3458L20.6467 27.7808L20.6372 24.5069L20.7272 23.8009C20.5378 23.8578 20.353 23.9146 20.1635 23.9715L19.8651 26.4116L19.8746 24.0662C19.7893 24.0947 19.7088 24.1278 19.633 24.1562L19.6188 28.4631L19.0646 33.0211C19.2067 33.0637 19.363 33.1017 19.5335 33.1348L19.7372 31.5523H19.8509L19.8556 30.6331L20.4051 26.35L20.4146 29.2354L19.7704 33.1727C19.8225 33.1822 19.8746 33.1917 19.9267 33.1964L20.0072 33.2059L20.3104 31.3581L20.0735 33.2154C20.1541 33.2248 20.2346 33.2391 20.3151 33.2485L20.4288 32.353H20.533L20.3862 33.258C20.4667 33.2675 20.5472 33.277 20.6278 33.2864L21.3051 29.1312V29.9366H21.5467L21.5515 27.6292L22.2478 23.3555C22.1531 23.3934 22.0678 23.4171 21.9825 23.4408ZM19.2351 24.3458C19.3298 24.2937 19.434 24.2415 19.5477 24.1942L19.3488 25.8383L18.7377 32.9121C18.5624 32.8363 18.4109 32.7463 18.2782 32.6326L18.5766 30.183L18.7756 24.6822C18.8514 24.6111 18.9319 24.5448 19.0267 24.4784L18.9224 27.3592L19.1119 25.8146L19.2351 24.3458ZM25.6584 24.6774L25.1705 28.1646L24.9195 29.5244L24.9763 28.4205L25.6584 24.6774ZM25.0047 23.0333L24.9384 24.3079L23.5978 31.6518L23.6263 30.6426L25.0047 23.0333ZM20.6562 31.576L21.3004 27.6198L21.3051 25.4687L20.6514 30.5573L20.6562 31.576ZM19.6046 30.5431V30.6237L19.4198 32.0593L19.6046 30.5431ZM20.3862 24.0947V24.4974L19.8509 28.6763V28.4868L20.3862 24.0947ZM17.9987 27.1981L17.7524 30.0409C17.7382 30.273 17.7287 30.5005 17.724 30.7279C17.7098 31.2112 17.7429 31.5997 17.8329 31.9077L18.4156 25.1655C18.1787 25.644 18.1077 26.2647 18.0082 27.1128L17.9987 27.1981Z" fill="#C75C52"/>
<path fill-rule="evenodd" clip-rule="evenodd" d="M21.3289 14.5193L20.4194 22.4744C20.3341 22.446 20.2583 22.3986 20.192 22.3323L21.0589 14.742C21.1442 14.6614 21.2294 14.5903 21.3289 14.5193ZM21.291 13.4864C21.5042 12.5814 21.7173 11.6812 21.9258 10.781C22.1531 9.80493 22.3805 8.82416 22.5937 7.84812C22.6884 7.82917 22.7784 7.80548 22.8732 7.78653L22.2526 13.3679C22.1626 13.3964 22.0773 13.42 22.0015 13.4437L22.4231 9.65331L21.9921 13.4437C21.9021 13.4674 21.8168 13.4864 21.741 13.5006L22.1342 10.0418L21.651 13.5148C21.4947 13.5385 21.3763 13.529 21.291 13.4864ZM22.1721 14.0502C22.0821 14.0881 21.9968 14.1308 21.9163 14.1687L20.9926 22.446C21.0731 22.4176 21.1584 22.3844 21.2484 22.3418L22.1721 14.0502ZM21.9021 14.1781C21.8121 14.2208 21.7268 14.2682 21.6415 14.3155L20.7084 22.5076C20.7794 22.5029 20.8552 22.4886 20.9357 22.4649L20.9594 22.4602L21.9021 14.1781ZM20.8599 15.3721C20.6373 16.3718 20.4241 17.3763 20.2347 18.3855L19.8652 21.2852C19.8794 21.6121 19.9315 21.8632 20.012 22.0527L20.8599 15.3721ZM23.3326 11.8754L23.8632 9.72912L23.4984 12.9415C23.5837 12.9131 23.669 12.8846 23.7495 12.861L24.3085 7.92393L24.4553 7.33168C24.3464 7.36958 24.2327 7.40748 24.119 7.44539L24.0716 7.87655L23.5363 10.0229L23.8205 7.53541C23.6074 7.60174 23.3847 7.6586 23.1574 7.71546L22.7358 11.4869L22.4563 13.2969C22.6363 13.2353 22.8353 13.1642 23.0579 13.0884L23.2 13.041L23.3326 11.8754ZM23.1242 13.6901L22.461 19.5605L22.2195 19.5321L22.8732 13.7801C22.93 13.7612 22.9916 13.7375 23.0532 13.7185L23.1242 13.6901ZM22.8589 13.7849L22.7216 14.3297L22.6695 14.3155L21.8121 21.9959C21.7221 22.0622 21.6368 22.1238 21.5468 22.1759L22.2526 15.827L22.0631 15.7938L22.3473 13.9744C22.5084 13.9128 22.6789 13.8465 22.8589 13.7849ZM25.3695 6.97632L25.0901 9.39746L25.8006 6.78206C25.9332 6.72047 26.0659 6.65888 26.1938 6.59254L25.4785 12.3682C25.3932 12.3872 25.3127 12.4108 25.2274 12.4298L25.8196 7.63965L24.9053 10.9942L24.7253 12.5672C24.64 12.5909 24.5548 12.6146 24.4743 12.6383L24.4837 12.5388L24.4553 12.643C24.3653 12.6714 24.2706 12.6951 24.1806 12.7236L24.6637 10.9468L25.109 7.0853C25.199 7.04739 25.2843 7.01423 25.3695 6.97632ZM26.8238 6.26088C26.7385 6.30826 26.6485 6.35564 26.5633 6.40302L26.009 10.8994L25.578 12.3445C25.7485 12.3019 25.919 12.264 26.0848 12.2261L26.2411 10.9515L27.1649 7.83864L26.5964 12.1218C26.6912 12.1029 26.7812 12.0887 26.8759 12.0697L27.4443 10.1792L27.1364 12.0271C27.2549 12.0081 27.3733 11.9939 27.4917 11.9797L27.8659 9.15108L28.0033 8.34088L28.9744 5.12375L28.7375 5.05268L28.3207 6.44566L28.5338 5.16166C28.3917 5.26116 28.2496 5.36066 28.1075 5.46015L27.7096 8.45933L27.0227 10.7336L27.6007 6.35564L27.8091 5.65441C27.6812 5.7397 27.5486 5.82498 27.4159 5.90553L27.3638 6.29878L26.4164 9.49222L26.8238 6.26088ZM27.4112 12.5767C27.288 12.5956 27.1601 12.6146 27.037 12.6335L26.6012 15.2395L26.3027 16.206L26.7717 12.6762C26.6533 12.6999 26.5396 12.7188 26.4212 12.7425L25.9285 14.3724L26.1606 14.4482L26.3927 13.6806L25.9664 16.8883C26.3501 16.3102 26.7196 15.7417 27.0654 15.1826L27.2122 14.0597L27.6812 12.5388C27.5912 12.5482 27.5059 12.5625 27.4159 12.5719L27.4064 12.6004L27.4112 12.5767ZM27.6007 11.9702L28.3633 9.48748L29.1686 4.69259C29.2681 4.61678 29.3628 4.55045 29.4481 4.48412L28.9081 7.72019L29.0549 7.24639L29.5476 4.41305C29.647 4.34198 29.7418 4.27091 29.827 4.20931L29.5902 5.56439L29.7986 5.63546L29.287 7.30799L28.5481 11.5438L29.9549 6.83418L30.4855 3.7971C30.5897 3.74972 30.675 3.7213 30.746 3.71182L30.6418 4.30407L30.765 3.71182C30.8692 3.70708 30.9402 3.74499 30.9876 3.83027L29.5665 10.5867C29.4244 10.8899 29.2775 11.1932 29.126 11.5011L29.197 11.1553L29.5949 8.87154L28.6996 11.8707C28.5575 11.8802 28.4012 11.8944 28.2354 11.9086L28.7139 9.16529L28.5954 9.54907L28.1975 11.9134L28.0554 11.9228C28.0223 11.9276 27.9844 11.9276 27.9512 11.9323L28.0554 11.3164L27.8612 11.9418C27.7759 11.9513 27.6907 11.9607 27.6007 11.9702ZM28.5244 12.4677L28.3917 12.9131C28.1217 13.4058 27.8375 13.9033 27.5391 14.4056L27.8565 12.5198C27.9322 12.5103 28.0033 12.5056 28.0791 12.4961H28.1075L27.9038 13.6996L27.9559 13.5195L28.1359 12.4961C28.2733 12.4867 28.4059 12.4772 28.5244 12.4677ZM26.009 12.8373L25.4074 17.7222C25.308 17.8643 25.2132 18.0065 25.109 18.1486L25.758 12.8989C25.8432 12.8799 25.9238 12.8562 26.009 12.8373ZM25.6585 12.9226L25.2416 14.325L24.6969 18.7314C24.6022 18.8688 24.5027 19.0062 24.4032 19.1436L24.8248 15.7322L24.5927 15.6564L25.0048 14.2729L25.1564 13.0552C25.289 13.0173 25.4264 12.9841 25.559 12.951L25.6585 12.9226ZM24.6543 13.1974L23.8916 19.8353C23.7969 19.9585 23.7021 20.0817 23.6074 20.2002L24.4032 13.2732C24.4885 13.2447 24.5737 13.221 24.6543 13.1974ZM24.28 13.3111C24.1332 13.3537 23.9911 13.4011 23.8442 13.4485L23.74 14.3724L23.4748 15.3437L23.6832 13.5006C23.5979 13.529 23.5126 13.5574 23.4274 13.5859L22.5463 21.3705C22.6363 21.2804 22.731 21.1904 22.821 21.0957L23.4132 15.8554L23.56 15.898L22.9821 20.9204C23.0768 20.8209 23.1668 20.7166 23.2616 20.6076L23.9721 14.4198L24.28 13.3111ZM29.9834 9.66279C30.2628 9.01368 30.5139 8.3693 30.746 7.72967L30.8739 7.24639C30.8976 6.92894 30.926 6.60202 30.9497 6.27036L30.8834 6.2514L29.9834 9.66279ZM23.5221 8.04238L22.9821 11.5201L22.8305 12.8941L23.0958 11.8233L23.5221 8.04238ZM24.8011 7.20375L24.1663 12.7283C24.0811 12.752 23.9958 12.7804 23.9153 12.8041L24.55 7.29377C24.6353 7.26534 24.7206 7.23691 24.8011 7.20375Z" fill="#C75C52"/>
<path fill-rule="evenodd" clip-rule="evenodd" d="M52.4367 75.0002C55.8857 65.4436 57.7097 57.5406 57.956 50.4715C58.3256 39.972 56.1936 32.0737 52.7873 22.8298C52.1762 21.1715 51.7403 19.4468 51.4466 17.6748C51.7119 19.5558 52.1335 21.3799 52.7494 23.1378C56.0136 32.429 58.0224 40.3652 57.4965 50.8552C57.1459 57.8486 55.2414 65.6284 51.7213 75.0002H52.4367Z" fill="#A87E62"/>
<path fill-rule="evenodd" clip-rule="evenodd" d="M11.5904 74.9997C8.14139 65.4431 6.42638 57.5401 6.07106 50.4709C5.53097 39.7488 7.98979 31.334 11.4909 22.218C11.8936 21.1615 12.2489 20.1238 12.5142 19.0388C12.5284 19.053 12.5095 19.0341 12.5237 19.0483C12.2631 20.2281 11.9457 21.3841 11.5288 22.5307C8.13666 31.822 5.81049 40.3647 6.53061 50.8547C7.01384 57.8386 8.78571 65.6279 12.3058 74.9997H11.5904Z" fill="#A87E62"/>
</g>
</svg>
