<svg width="64" height="64" viewBox="0 0 64 64" fill="none" xmlns="http://www.w3.org/2000/svg">
<mask id="mask0" mask-type="alpha" maskUnits="userSpaceOnUse" x="4" y="4" width="56" height="56">
<rect x="4" y="4" width="56" height="56" fill="#C4C4C4"/>
</mask>
<g mask="url(#mask0)">
<path fill-rule="evenodd" clip-rule="evenodd" d="M51.8114 76C58.3239 57.588 58.9556 49.2112 51.9461 34.2579C47.8677 25.5542 47.7098 25.3694 49.8605 16.1066C50.5386 13.1879 50.9985 10.184 51.2633 7.11851C55.3556 5.27067 55.9409 0.646356 53.832 -4.30015C53.0284 -6.20484 52.0483 -8.12848 51.4026 -10H13.0433C12.3976 -8.12848 11.4175 -6.20484 10.6093 -4.30015C8.55147 0.532642 9.06243 5.05746 12.9039 6.98584C13.2152 10.0987 13.7168 13.15 14.409 16.1066C16.5596 25.3694 16.4064 25.5542 12.3279 34.2579C5.31847 49.2112 5.70401 57.588 12.2165 76H51.8114Z" fill="#DEB192"/>
<path fill-rule="evenodd" clip-rule="evenodd" d="M36.4036 -7.1098C36.5847 -8.04319 37.026 -9.0287 37.6206 -10H49.0476C49.2891 -7.89631 49.8605 -5.81158 50.6687 -3.97322C51.7278 -1.5663 52.0065 -0.0264444 51.7835 1.17702C51.3608 3.47022 48.5645 4.14302 45.3361 3.74977C41.0115 3.22385 35.3352 -1.6279 36.4036 -7.1098Z" fill="#E6BA9C"/>
<path fill-rule="evenodd" clip-rule="evenodd" d="M51.7417 0.466338C51.6302 -0.0453689 51.4351 -0.557076 51.175 -1.03562C48.6295 -5.63151 43.6546 -2.81712 45.8657 1.49449C47.6958 5.04801 52.6568 4.71635 51.7417 0.466338Z" fill="#DEB192"/>
<path fill-rule="evenodd" clip-rule="evenodd" d="M27.7915 -7.1098C27.6104 -8.04319 27.1691 -9.0287 26.5745 -10H15.5191C15.4866 -7.76365 15.0546 -5.56994 13.9816 -3.85477C10.0193 2.47524 13.9351 4.34202 18.8543 3.74503C23.1836 3.22385 28.8645 -1.6279 27.7915 -7.1098Z" fill="#E6BA9C"/>
<path fill-rule="evenodd" clip-rule="evenodd" d="M17.3493 7.91431C17.9903 7.39786 18.8079 7.07568 19.7044 6.84825C23.8989 5.69217 26.8114 2.82093 28.7856 0.513506C32.1068 -3.36694 32.864 -2.33405 36.1806 0.79305C38.754 3.21892 42.0056 6.1186 44.8345 6.84825C45.6799 7.0662 46.4556 7.3647 47.0827 7.83376C48.165 7.72005 49.0429 7.47367 50.1159 7.0662C49.8465 10.1364 49.3867 13.1404 48.7038 16.0542C46.5392 25.3171 46.6925 25.5019 50.7988 34.2056C53.8227 40.6162 53.3118 44.5488 48.9082 49.9264C35.2655 66.5806 27.1737 62.2311 16.5689 51.3241C11.1249 45.7285 9.65701 41.8955 13.2616 34.253C17.3679 25.5493 17.5258 25.3645 15.3566 16.1016C14.6737 13.183 14.2139 10.1791 13.9445 7.11358C15.1336 7.56843 16.0859 7.81955 17.3493 7.91431Z" fill="#EBC0A4"/>
<path fill-rule="evenodd" clip-rule="evenodd" d="M19.3421 11.8756C19.1841 11.198 18.9844 10.4873 19.291 9.81455C19.6301 9.07541 20.3779 8.77692 21.1119 8.5637C24.238 7.654 26.8625 6.09993 29.3802 4.06731C29.5149 3.95834 29.6496 3.84463 29.7843 3.73091C31.0942 2.66959 33.4307 3.11023 34.6152 4.06731C37.1282 6.09993 39.7573 7.654 42.8835 8.5637C43.6128 8.77692 44.3653 9.07541 44.7044 9.81455C45.011 10.4873 44.8112 11.198 44.6533 11.8756C44.3606 13.117 44.1423 14.3725 43.989 15.6376C43.6407 18.4851 43.6128 20.9158 43.7614 24.0334C43.8497 25.8623 43.924 26.7435 44.0866 28.5487C44.1098 28.7856 44.1284 29.0225 44.1516 29.2594C44.2538 30.3634 44.3421 31.4721 44.3606 32.5855C44.3792 33.8506 44.3374 36.1248 44.2259 37.3899C44.0773 39.034 43.8079 40.6591 43.427 42.2653C42.0706 47.9367 39.2185 53.3334 36.4779 58.4457C34.9218 61.3501 29.0782 61.3454 27.5268 58.4457C24.7908 53.3334 21.934 47.9367 20.5777 42.2653C20.1921 40.6591 19.9274 39.034 19.7787 37.3899C19.6626 36.1296 19.6254 33.8506 19.644 32.5855C19.6626 31.4768 19.7508 30.3681 19.853 29.2594C19.8763 29.0225 19.8948 28.7856 19.9181 28.5487C20.0806 26.7435 20.155 25.867 20.2432 24.0334C20.4523 19.4896 20.3779 16.3009 19.3421 11.8756Z" fill="#FCECE2"/>
<path fill-rule="evenodd" clip-rule="evenodd" d="M35.168 4.50331L28.5533 4.70705C28.6973 4.59807 28.846 4.48436 28.99 4.37065L34.7731 4.1906C34.9032 4.29484 35.0379 4.39908 35.168 4.50331ZM34.5362 4.00108L29.3244 4.10532L29.3801 4.06268C29.4963 3.96792 29.6124 3.86842 29.7285 3.77366L34.0438 3.68837C34.2204 3.78313 34.3876 3.88737 34.5362 4.00108ZM32.8408 3.243L30.6111 3.28564C31.2939 3.05821 32.0929 3.06769 32.8408 3.243ZM36.5661 5.52199L26.9508 5.83944C27.1226 5.72573 27.2898 5.61201 27.4617 5.4983L36.1248 5.20928C36.2688 5.31825 36.4175 5.42249 36.5661 5.52199ZM36.0923 5.19033C35.9483 5.08609 35.809 4.98659 35.665 4.87762L28.0052 5.11452C27.8473 5.22823 27.6847 5.34194 27.5267 5.45092L36.0923 5.19033ZM32.4366 14.2115L24.8512 14.4484L29.7146 14.6853L39.2464 14.3916L38.6797 14.3395L35.9298 14.3679V14.2826L32.4366 14.2115ZM23.9128 14.4769L20.3826 14.5858L20.3686 14.2637L26.031 14.0883L21.1165 13.9889V13.932L19.7741 13.9604C19.7555 13.8514 19.7369 13.7472 19.7137 13.6382L38.1687 13.2687L38.5124 13.2402L28.6694 13.046V12.9891L19.6208 13.1692C19.5975 13.0602 19.579 12.956 19.5557 12.847L25.8406 12.7191L19.5093 12.629C19.4861 12.5201 19.4628 12.4111 19.4396 12.3021L20.7309 12.3211L20.7263 12.0747L37.2211 11.8236L21.9247 11.6056L21.9294 11.2834L28.2839 11.3735L28.2793 11.1271L40.8907 10.9376L39.6458 10.7859L39.7062 10.4638L43.2597 10.8997L44.8484 10.876C44.8298 11.056 44.7973 11.2361 44.7601 11.4114L43.2319 11.2266L36.9796 11.3213L38.545 11.5203L44.709 11.6104C44.6904 11.7004 44.6672 11.7904 44.644 11.8757C44.6301 11.9278 44.6208 11.9847 44.6068 12.0368L42.8138 12.0652L44.5511 12.2879C44.435 12.8091 44.3328 13.3303 44.2445 13.8514L41.3041 13.9415L42.1403 13.9841L44.2213 13.9652C44.1702 14.2731 44.1191 14.5858 44.0773 14.8938L37.9272 15.0976L42.4376 15.3202L44.0262 15.2681C44.0076 15.3913 43.9937 15.5145 43.9797 15.6424L43.9658 15.7419L40.036 15.723L37.8807 15.794L39.5994 15.9314L43.9612 15.794C43.9472 15.903 43.9379 16.012 43.924 16.121L42.4933 16.1636L43.9054 16.2773C43.8868 16.4621 43.8683 16.6469 43.8497 16.8317L34.2807 17.1302L35.8461 17.2865L43.8311 17.0449C43.8218 17.1539 43.8125 17.2628 43.8032 17.3718L38.3313 17.5376L41.3599 17.8409L43.7707 17.7698C43.7568 17.983 43.7428 18.1962 43.7289 18.4047L41.3413 18.1631L20.2943 18.798C20.2897 18.689 20.285 18.58 20.2804 18.4758L38.8562 17.9167L35.8276 17.6134L21.3209 18.0493L21.3069 17.7272L33.4539 17.3623L33.4818 17.1586L20.2339 17.5755C20.2246 17.4666 20.22 17.3576 20.2107 17.2534L43.0321 16.5332L39.5901 16.2536L27.536 16.6327L27.5221 16.3105L36.6962 16.0215L35.6557 15.9362L35.665 15.8651L20.1317 16.3816C20.1224 16.2726 20.1085 16.1683 20.0946 16.0594L33.2356 15.6235V15.3676L37.2675 15.3866L34.0067 15.2255L20.0481 15.6898C20.0342 15.5808 20.0202 15.4766 20.0063 15.3676L30.0862 15.036L29.7146 15.017L19.997 15.3155C19.9831 15.2065 19.9645 15.1023 19.9506 14.9933L25.678 14.818L23.8989 14.728L23.9128 14.4769ZM44.8205 10.2032C44.7973 10.0752 44.7555 9.95205 44.7044 9.82886L41.908 9.49246L44.4628 9.4356C44.3653 9.31715 44.2492 9.21291 44.1284 9.11815L39.6366 9.22239L37.3976 8.95232L37.3419 9.27451L22.8352 9.60143L22.8445 9.92362L39.6087 9.54458L42.7766 9.92362L19.133 10.459C19.1284 10.568 19.1284 10.677 19.1377 10.7812L44.8205 10.2032ZM42.6745 8.50221L19.7694 9.18923C19.932 9.05182 20.1178 8.94285 20.3129 8.84809L41.7687 8.20371C42.0659 8.30795 42.3679 8.40745 42.6745 8.50221ZM41.5689 8.13265C41.0719 7.9526 40.5842 7.74886 40.1057 7.53565L39.1535 7.56408L37.5927 7.40773L39.6923 7.34139C39.4879 7.24189 39.2835 7.1424 39.0791 7.03816L23.9314 7.51196C23.7178 7.61146 23.4994 7.70622 23.2811 7.79625L23.2858 7.85784L36.7891 7.43142L36.7566 7.63515L24.6096 7.99998L24.6235 8.32217L39.1302 7.88627L41.5689 8.13265ZM38.4056 6.66859L30.8387 6.90549L30.8248 6.58331L37.8761 6.36062C38.0526 6.4696 38.2291 6.56909 38.4056 6.66859ZM37.5834 6.18531C37.3001 6.01001 37.0214 5.82996 36.7426 5.64044H36.5336V5.89629L26.3237 6.23269C26.1332 6.35114 25.9381 6.46486 25.743 6.57857L37.5834 6.18531ZM43.9937 27.5444C43.9844 27.4164 43.9704 27.2932 43.9612 27.1748L42.6605 27.2032L42.6559 27.0042L37.9643 27.099L36.2781 26.8952L43.9286 26.7199C43.9008 26.3883 43.8775 26.0661 43.8543 25.725L42.3772 25.8529L41.5225 25.7676L43.8497 25.6965C43.8404 25.5591 43.8311 25.417 43.8218 25.2701L40.1429 25.0853L43.8079 24.9763C43.7986 24.8295 43.7893 24.6778 43.7846 24.5168L43.1065 24.4552L43.6035 24.4409L43.7846 24.4552C43.7754 24.3178 43.7707 24.1756 43.7614 24.0287L43.7568 23.9008L42.2053 23.8724L41.044 23.8155L43.7475 23.7302C43.7335 23.4175 43.7196 23.1096 43.7103 22.8063L38.2477 22.6974L38.1641 22.6926L38.6518 22.6784L43.701 22.7495C43.6639 21.6266 43.6546 20.5842 43.6871 19.556L41.7733 19.5987L38.6053 19.2196L43.7057 19.1059C43.7103 18.9969 43.715 18.888 43.7196 18.7837L36.3292 18.9496L34.0903 18.6795L34.0345 18.997L20.3222 19.3097C20.3268 19.4186 20.3268 19.5276 20.3268 19.6366L36.306 19.2718L39.474 19.6508L20.3315 20.0867C20.3315 20.1957 20.3315 20.2999 20.3315 20.4089L41.7501 19.9209L42.5398 20.0156L20.3315 20.461C20.3315 20.57 20.3315 20.679 20.3315 20.7832L36.3478 20.461L36.3385 20.5036L37.5834 20.6553L24.9719 20.8448L24.9766 21.0912L20.3315 21.0343C20.3315 21.2143 20.3268 21.3991 20.3222 21.5839L26.8532 21.4512L31.7027 21.5223L27.5453 21.6502L20.3222 21.7592C20.3175 21.9724 20.3129 22.1951 20.3036 22.4131L24.1683 22.4699L20.2989 22.5884C20.2943 22.6974 20.2897 22.8063 20.2897 22.9153L25.3714 22.7589V22.7732L25.7802 22.7826L20.285 22.9627C20.2804 23.0717 20.2757 23.1806 20.2711 23.2849L31.8978 22.9011L38.2105 23.0243L38.4613 23.0527L37.7088 23.0764L30.9037 23.048V23.3038L30.7597 23.3086L28.1724 23.1806L28.1585 23.3938L24.3495 23.5218L20.2664 23.4412C20.2571 23.6213 20.2525 23.8013 20.2432 23.9814L24.3588 23.844L27.7404 23.9103L25.1995 23.9908L25.2135 24.313L34.0578 24.0335L35.3212 24.0572L37.8946 24.2988L29.4916 24.5641L20.6195 24.1235L20.5962 24.4457L25.4829 24.6873L20.1921 24.8579C20.1875 24.9716 20.1782 25.0758 20.1735 25.1848L29.4777 24.8911L31.136 24.9716L31.1267 25.0427L20.1642 25.3743C20.1596 25.4833 20.1503 25.5923 20.1457 25.7013L33.505 25.2985L36.5336 25.6018L20.1131 26.0945C20.1039 26.2035 20.0992 26.3125 20.0899 26.4214L39.0188 25.8481L40.6306 26.0092L36.9935 26.3219L32.2694 26.4167L31.7631 26.3551L31.7492 26.4262L20.0713 26.6583C20.0574 26.8573 20.0388 27.0563 20.0202 27.2648L28.2235 27.08L24.9998 27.3596L20.0063 27.4591C19.9831 27.7149 19.9599 27.9897 19.932 28.2835L22.7562 28.1982L22.7609 28.4635L28.9342 28.4019L26.3887 28.4825L22.6401 28.5393V28.5962L19.8948 28.6815C19.8762 28.8757 19.8577 29.07 19.8391 29.2643L19.8298 29.3543L25.8731 29.1553L31.5773 29.2358L19.8251 29.4159C19.8019 29.6528 19.7833 29.8897 19.7648 30.1218L22.3056 30.1597L19.7555 30.2403C19.7462 30.3493 19.7369 30.4582 19.7276 30.5672L23.1743 30.4582L29.1525 30.5767L29.8586 30.6336L19.6997 30.951C19.6811 31.2353 19.6672 31.5196 19.6533 31.8038L22.6587 31.7138L25.6873 32.0171L23.6341 32.0787L19.644 31.8797C19.6347 32.0929 19.6301 32.3061 19.6254 32.524L23.6295 32.4056L32.353 32.8367L23.151 33.0452L20.9121 32.7751L20.8564 33.0973L19.6208 33.1258C19.6208 33.23 19.6208 33.339 19.6208 33.4479L23.1278 33.3674L26.2958 33.7464L19.6347 33.8981C19.6347 34.0023 19.6347 34.1113 19.6393 34.2202L28.5858 34.0165L33.6118 34.6182L26.7835 34.7225L23.23 34.2866L23.1696 34.6088L24.4145 34.7604L19.6486 34.8314C19.6533 35.1015 19.6626 35.3716 19.6719 35.6322L20.7449 35.6464L19.6719 35.6606C19.6765 35.7696 19.6811 35.8786 19.6858 35.9828L24.0476 35.9165L28.4929 36.485L21.7575 36.3903L20.3408 36.2197L20.3129 36.3713L19.7044 36.3618C19.709 36.4708 19.7137 36.5798 19.723 36.6888L21.7296 36.7172L21.8551 36.7314L19.7276 36.6888C19.7322 36.8025 19.7415 36.9114 19.7462 37.0109L25.0463 37.1152L27.0762 37.3616L19.788 37.5084C19.8251 37.8827 19.867 38.2523 19.9134 38.6266L25.9056 38.5082L26.0728 38.5224L19.9227 38.7119C19.9552 38.9488 19.9877 39.181 20.0202 39.4179L20.3965 39.4131L20.0202 39.4226C20.0388 39.5316 20.0528 39.6358 20.0713 39.7448L21.07 39.7164L20.0713 39.7495C20.0899 39.8585 20.1085 39.9627 20.1271 40.0717L30.9781 39.7116L35.4931 39.9343L20.1921 40.4413C20.2153 40.5739 20.2386 40.7019 20.2664 40.8345L23.8246 40.8487L20.2897 40.9577C20.3315 41.1615 20.3733 41.3605 20.4151 41.5642L21.3255 41.6353L20.4383 41.6637C20.4615 41.7727 20.4848 41.8769 20.5126 41.9859L24.2241 41.8674L26.2029 42.0285L20.5637 42.1991L20.5777 42.2607C20.5962 42.346 20.6195 42.436 20.6427 42.5213L29.134 42.2654L32.706 42.5544L20.7449 42.9145C20.7867 43.0756 20.8285 43.2367 20.8749 43.3931L25.0509 43.81L21.0189 43.9C21.0515 44.009 21.084 44.1133 21.1118 44.2222L27.6847 44.0753L31.3543 44.4449L21.2512 44.6723C21.3069 44.8429 21.358 45.0182 21.4184 45.1888L25.0788 45.6294L21.581 45.6815C21.6182 45.7905 21.6553 45.8947 21.6925 46.0037L27.4803 45.9184L30.8852 46.3259L30.9409 46.0037L29.905 45.8805L42.4283 45.691C42.4654 45.582 42.5026 45.4731 42.5398 45.3641L27.5082 45.5915L22.3521 44.9756L42.8138 44.5112C42.8463 44.4023 42.8788 44.2933 42.9114 44.1843L32.5481 44.4212L32.576 44.2459L30.3277 44.0185L43.0321 43.7295C43.0646 43.6205 43.0925 43.5115 43.125 43.4025L27.694 43.7532L22.1431 43.1988L39.7713 42.6682L39.7573 42.346L34.1925 42.5118L34.2111 42.3507L32.065 42.1801L43.5152 41.8343C43.5385 41.7253 43.5617 41.6163 43.5895 41.5073L29.1386 41.9432L27.1273 41.7821L36.947 41.4742L36.9331 41.152L24.2334 41.55L20.7913 41.2704L32.9151 40.8867L34.3179 40.8914V40.8393L43.7846 40.5408C43.8172 40.3655 43.8497 40.1949 43.8775 40.0196L34.9078 39.5742L36.7659 39.5126L36.9749 39.5316L36.9796 39.5031L43.2458 39.2947L43.2319 38.9867L44.0355 39.0246C44.0494 38.9156 44.0633 38.8114 44.0773 38.7024L39.9524 38.4987L44.0959 38.5792C44.1098 38.4703 44.1237 38.366 44.133 38.257L41.0905 38.1954L41.0858 38.0486L38.1687 38.1386L35.8833 38.0912L31.6841 37.5795L36.4407 37.4847L37.6903 37.6458L37.7274 37.4611L40.3751 37.4089L44.212 37.4847L44.2213 37.3758C44.2259 37.3094 44.2352 37.2384 44.2399 37.1626L41.6665 37.1104V37.0583L40.3798 37.082L35.5396 36.9872L35.5303 36.8972L44.2538 37.0204C44.2631 36.9162 44.2677 36.8072 44.277 36.6982L31.3868 36.5277L26.3469 35.8833L31.7724 35.8027L33.0544 35.8217L38.2523 36.4613L38.3127 36.1391L36.0645 35.8596L44.3095 35.9781C44.3142 35.8691 44.3188 35.7648 44.3235 35.6559L42.7999 35.6322L44.3235 35.6085C44.3281 35.4995 44.3328 35.3905 44.3328 35.2863L32.8082 35.4616L29.1293 35.0115L36.0134 34.9073L39.4182 35.3147L39.474 34.9925L38.4381 34.8693L44.3374 34.7793C44.3421 34.6704 44.3421 34.5614 44.3421 34.4571L36.0319 34.5851L30.8759 33.9691L44.3513 33.6612C44.3513 33.4669 44.3513 33.2774 44.3513 33.1021L41.3413 32.9552L44.3513 32.8889C44.3513 32.7846 44.3513 32.6851 44.3467 32.5904V32.4861L38.6425 31.9555L40.2172 31.9081L44.3374 32.1118C44.3281 31.8797 44.3188 31.6428 44.3049 31.4106L42.0288 31.1358L44.2863 31.0695C44.2677 30.7662 44.2445 30.463 44.2213 30.155L42.2192 30.1266L40.5749 29.9181L41.4528 29.8897L42.8556 29.8944V29.8423L44.1934 29.7997C44.1841 29.6907 44.1748 29.5864 44.1655 29.4775L41.4482 29.5628L37.6949 29.5485L37.1979 29.4869L37.3372 29.4822L42.6048 29.4017L43.8822 29.4206L44.1609 29.4443L44.1423 29.2643L44.1098 28.9231L42.9114 28.961L40.5238 28.6673L44.0773 28.5488C44.0541 28.293 44.0308 28.0513 44.0123 27.8239L42.1496 27.6012L43.9937 27.5444ZM21.7389 46.1648L24.2612 46.4775L42.2425 46.2027C42.2053 46.3117 42.1635 46.4207 42.1263 46.5296L34.2575 46.6481L42.0427 46.7571C42.0009 46.866 41.9638 46.9703 41.922 47.0793L27.5221 46.8755L29.775 47.1503L29.7146 47.4725L24.5167 46.8329L23.2393 46.8139L21.9944 46.8329C21.8969 46.6102 21.8179 46.3875 21.7389 46.1648ZM22.2174 47.4583C22.2685 47.591 22.3196 47.7236 22.3707 47.8563L22.8073 47.861L23.4251 47.9416L22.3985 47.9226C22.4682 48.0979 22.5379 48.2685 22.6076 48.4438L23.6341 48.3538L23.6249 48.2732L26.4351 48.3301L27.2295 48.4296L22.6401 48.5196C22.6912 48.6428 22.7423 48.7707 22.798 48.8939L24.1079 49.055L22.8538 49.0313C22.9095 49.164 22.9699 49.3014 23.0256 49.4341L24.5632 49.5099L23.0814 49.5572C23.1557 49.7326 23.2347 49.9031 23.309 50.0784L27.0947 50.429L24.6421 50.5096L23.9547 50.4764L23.95 50.2395L23.3833 50.2443C23.4762 50.4527 23.5691 50.6612 23.6667 50.8697L24.6375 50.8365L39.9896 51.5946C40.0407 51.4904 40.0871 51.3814 40.1382 51.2772L28.5673 50.7038L31.3404 50.6138L31.3264 50.2916L28.4558 50.3864L28.4743 50.2348L24.2984 49.8463L28.5998 49.7136L40.5842 50.3059C40.6306 50.2016 40.6771 50.0926 40.7235 49.9884L31.4054 49.5288L40.8443 49.7136C40.8907 49.6046 40.9372 49.5004 40.9836 49.3914L27.3363 49.1213L24.735 48.8039L29.7703 48.7044L29.761 48.3964L41.3088 48.6239C41.3552 48.5149 41.3971 48.4106 41.4389 48.3017L26.4723 48.0032L25.7059 47.9037L41.5085 48.1264C41.5503 48.0174 41.5968 47.9132 41.6386 47.8042L22.8445 47.5388L22.2174 47.4583ZM32.4366 13.8894L33.2263 13.8657L31.4472 13.7756L31.4519 13.7235L27.8333 13.7946L32.4366 13.8894ZM37.2675 13.7425L43.571 13.5482L43.1204 13.4914L38.1966 13.5909L37.0678 13.6904L37.0585 13.6145L35.377 13.6477L37.2675 13.7425ZM41.5643 12.9749L41.8755 12.9465L41.2531 12.937L41.5457 12.9749H41.5643ZM35.2934 12.5295L36.7937 12.5011L36.8123 12.4016L37.5184 12.4869L42.7209 12.3827L40.5191 12.1031L23.3879 12.3637L35.2934 12.5295ZM34.0067 14.8986L33.7512 14.8843L41.8569 14.638H41.8755L34.0067 14.8986ZM30.9409 11.4114L35.7114 11.4777L35.7393 11.3356L30.9409 11.4114ZM38.322 12.9086L38.1966 12.8944L35.9344 12.8612L38.322 12.9086ZM27.5686 21.9724L33.5933 21.8824L33.5979 22.053L38.5728 22.0009L38.7308 22.0198L33.872 22.1714L33.5097 22.1288L33.5004 22.1856L31.359 22.252L22.6772 22.1241L27.5686 21.9724ZM38.9073 21.2996L36.3107 21.2617L41.5829 21.1575L41.973 21.2049L38.9073 21.2996ZM39.7806 20.6079L38.3127 20.4278L42.9439 20.3378L39.7806 20.6079ZM38.6518 22.3515H38.5589L40.4448 22.2946L38.6518 22.3515ZM39.9664 24.1567L40.7003 24.2135L40.5005 24.2183L39.7527 24.1472L39.9664 24.1567ZM42.2285 24.7063L36.0691 24.8911L33.4911 24.7631L40.4866 24.5452L42.2285 24.7063ZM30.4717 23.645L30.7597 23.6355L31.2707 23.6592L30.4717 23.645ZM41.8709 23.4697L37.2722 23.6118L35.5535 23.4744L37.7088 23.4033L41.4621 23.4175L41.8709 23.4697ZM41.0301 25.4644L39.0373 25.526L36.0087 25.2227H36.0691L41.0301 25.4644ZM42.3725 26.1845L42.6373 26.213L41.8987 26.2272L42.3725 26.1845ZM33.3378 26.9663L33.9788 26.9521L35.6185 27.1464L29.9143 27.2601L33.3378 26.9663ZM39.9756 27.6723L42.2378 27.9424L35.2144 28.0134L34.0671 27.8713L34.0392 28.0229L25.7105 28.1082L39.9756 27.6723ZM38.4335 28.7383L40.8164 29.0321L40.5981 29.0368L32.9104 28.9279L32.8547 28.9231L38.4335 28.7383ZM25.8777 28.8284L25.6826 28.8236L26.384 28.7999L26.8068 28.7952L25.8777 28.8284ZM41.5085 30.8183L39.8967 30.8657L39.1024 30.771L41.5085 30.8183ZM42.2332 32.6046L36.8541 32.7278L35.3538 32.652L30.6854 32.1829L36.0041 32.0218L42.2332 32.6046ZM33.3796 31.7802L28.2003 31.9365L25.1717 31.6333L26.045 31.6048L32.9848 31.7423L33.3796 31.7802ZM21.9526 31.2021L25.822 31.0789L25.8127 31.1832L27.1226 31.2495L26.045 31.2827L21.9526 31.2021ZM28.5208 30.9936L32.7571 30.861L34.736 31.0221L31.201 31.1263L28.5208 30.9936ZM35.2701 31.33L37.667 31.259L41.2391 31.548L40.4495 31.5717L39.8735 31.5622L35.2701 31.33ZM37.7367 30.932H37.681L35.6696 30.771L36.2642 30.752L37.7367 30.932ZM32.6875 30.3161L30.3045 30.2687L32.5667 30.3019L32.6875 30.3161ZM37.8296 30.3777L37.0074 30.4061L35.9112 30.3824L35.6185 30.3445L37.8296 30.3777ZM31.1639 29.8755L29.3941 29.9323L25.167 29.8707L26.8718 29.8139L31.1685 29.8328L31.1639 29.8755ZM31.4193 29.8376L32.3623 29.8423L31.6377 29.866L31.4193 29.8376ZM36.4918 30.0318L38.5124 29.9702L39.33 30.0745L36.4918 30.0318ZM43.1018 33.3627L41.0905 33.41L41.1137 33.2632L43.1018 33.3627ZM27.7125 32.2777L28.1817 32.2634L28.9156 32.3392L27.7125 32.2777ZM29.0875 37.281L28.27 37.1815L29.8725 37.2147L29.0875 37.281ZM29.3616 37.6411L32.6503 38.0391L29.0318 37.968L26.398 37.8354L28.4697 37.6553L29.3616 37.6411ZM22.4218 38.1812L23.0396 38.2381L21.3673 38.2713L22.4218 38.1812ZM34.7778 38.5792L43.0368 38.9867L36.7752 39.1952L35.8554 39.1099L35.8508 38.9298L34.1228 38.9488L31.3079 38.6882L34.7778 38.5792ZM28.6834 38.7687L30.9734 38.982L24.1637 39.053L22.3707 38.963L28.6834 38.7687ZM34.1971 39.2805L33.5375 39.3041V39.2805L34.1042 39.2757L34.1971 39.2805ZM25.4364 33.3105L36.2178 33.0689L39.8874 33.4385L28.6091 33.6943L25.4364 33.3105ZM20.508 35.1394L26.7557 35.0447L30.0723 35.4521L22.078 35.3432L20.508 35.1394ZM31.9721 36.9304L25.0788 36.793L24.7861 36.7551L31.3543 36.8498L31.9721 36.9304ZM42.261 40.2707L32.9058 40.5645L27.0111 40.5408L35.6882 40.2518L35.6743 39.9438L42.261 40.2707ZM29.199 48.387V48.3822L29.3709 48.387H29.199ZM24.0894 51.7746L32.576 51.5093L32.5899 51.8315L24.2426 52.0921C24.1916 51.9879 24.1405 51.8789 24.0894 51.7746ZM24.4285 52.4711L25.023 52.4522L25.037 52.7744L24.5817 52.7886C24.5306 52.6843 24.4796 52.5801 24.4285 52.4711ZM24.6979 53.0255C24.749 53.1345 24.8047 53.2387 24.8558 53.3429L35.4188 53.0255L35.4049 52.7033L24.6979 53.0255ZM25.0509 53.7314L27.8519 53.6462L27.8658 53.9683L25.2135 54.0489C25.1577 53.9447 25.102 53.8404 25.0509 53.7314ZM25.613 54.8354L38.5264 54.5417L38.3591 54.8686L25.7802 55.1529C25.7244 55.0486 25.6687 54.9444 25.613 54.8354ZM26.0124 55.603L31.8235 55.4703L31.8328 55.7925L26.1797 55.9204L26.0124 55.603ZM26.607 56.7306L37.4719 56.5648L37.3001 56.8917L26.7742 57.0528L26.607 56.7306ZM27.0437 57.5598L35.7532 57.4271L35.7625 57.7493L27.2202 57.8772L27.0437 57.5598ZM27.2945 58.0241L36.6265 58.1568L36.4732 58.4458C36.4686 58.4553 36.4593 58.4647 36.4547 58.479L27.471 58.351L27.2945 58.0241ZM27.9727 59.0902L35.7811 59.1991L35.7765 59.3318C35.7068 59.3981 35.6325 59.4597 35.5535 59.5213L28.3025 59.4171C28.1864 59.3128 28.0749 59.2039 27.9727 59.0902ZM28.5162 59.5829L35.2841 59.7156C35.1122 59.8293 34.9264 59.9335 34.736 60.0283L29.0411 59.9146C28.8552 59.8198 28.6787 59.7061 28.5162 59.5829Z" fill="#E8CAB7"/>
<path fill-rule="evenodd" clip-rule="evenodd" d="M31.9582 4.60278L28.5533 4.70702C28.6973 4.59804 28.846 4.48433 28.99 4.37061L31.9582 4.28059V4.60278ZM31.9582 4.05317L29.3198 4.10528L29.3755 4.06264C29.4916 3.96788 29.6078 3.86838 29.7239 3.77362L31.9582 3.73098V4.05317ZM31.9582 3.25718L30.6065 3.28561C31.0292 3.1482 31.4937 3.09608 31.9582 3.11977V3.25718ZM31.9582 5.67357L26.9461 5.8394C27.118 5.72569 27.2852 5.61198 27.4571 5.49827L31.9582 5.35139V5.67357ZM31.9582 5.31822V4.99603L28.0005 5.11922C27.8426 5.23294 27.68 5.34665 27.5221 5.45562L31.9582 5.31822ZM31.9582 14.2257L24.8512 14.4437L29.7146 14.6853L31.9582 14.6142V15.287L20.0435 15.6803C20.0295 15.5713 20.0156 15.4671 20.0017 15.3581L30.0816 15.0264L29.7099 15.0075L19.9924 15.306C19.9784 15.197 19.9599 15.0928 19.9459 14.9838L25.6733 14.8085L23.8943 14.7185L23.9128 14.4721L20.3826 14.5811L20.3686 14.2589L26.031 14.0836L21.1165 13.9841V13.9272L19.7741 13.9557C19.7555 13.8467 19.7369 13.7424 19.7137 13.6335L31.9582 13.3871V13.7993L31.4472 13.7756L31.4519 13.7235L27.8333 13.7946L31.9582 13.8751V14.2257ZM31.9582 13.1075L28.6694 13.0412V12.9844L19.6208 13.1644C19.5975 13.0554 19.579 12.9512 19.5557 12.8422L25.8406 12.7143L19.5093 12.6243C19.4861 12.5153 19.4628 12.4063 19.4396 12.2973L20.7309 12.3163L20.7263 12.0699L31.9628 11.8993V12.2215L23.3926 12.3495L31.9628 12.4726V13.1075H31.9582ZM31.9582 11.7525L21.9201 11.6103L21.9247 11.2881L28.2793 11.3782L28.2746 11.1318L31.9582 11.0749V11.3971L30.9409 11.4113L31.9582 11.4255V11.7525ZM31.9582 18.452L20.3036 18.8027C20.2989 18.6937 20.2943 18.5847 20.2897 18.4805L31.9582 18.1299V18.452ZM31.9582 17.7319L21.3255 18.054L21.3116 17.7319L31.9628 17.4097V17.7319H31.9582ZM31.9582 17.2059V16.8838L20.2107 17.2533C20.22 17.3623 20.2293 17.4713 20.2339 17.5755L31.9582 17.2059ZM31.9582 16.4952L27.536 16.6326L27.5221 16.3105L31.9628 16.1683V16.4952H31.9582ZM31.9582 15.9883V15.6613L20.0899 16.0593C20.1039 16.1683 20.1131 16.2773 20.1271 16.3815L31.9582 15.9883ZM31.9582 10.4922L19.1377 10.7812C19.1284 10.6722 19.1284 10.5632 19.133 10.459L31.9582 10.17V10.4922ZM31.9582 9.71511L22.8445 9.92359L22.8352 9.6014L31.9582 9.39293V9.71511ZM31.9582 8.82436L19.7694 9.18919C19.932 9.05179 20.1178 8.94281 20.3129 8.84805L31.9582 8.49744V8.82436ZM31.9582 8.10418L24.6282 8.32687L24.6143 8.00468L31.9582 7.782V8.10418ZM31.9582 7.583V7.26081L23.9314 7.51193C23.7178 7.61143 23.4994 7.70619 23.2811 7.79621L23.2858 7.8578L31.9582 7.583ZM31.9582 6.8723L30.8387 6.90546L30.8248 6.58327L31.9582 6.54537V6.8723ZM31.9582 6.37006V6.04314L26.3237 6.22792C26.1332 6.34637 25.9381 6.46009 25.743 6.5738L31.9582 6.37006ZM31.9582 33.9407L30.8805 33.9644L31.9582 34.0923V34.4192L28.5812 34.0165L19.6347 34.2202C19.6347 34.1112 19.6301 34.0023 19.6301 33.898L26.3004 33.7464L23.1325 33.3674L19.6254 33.4479C19.6254 33.3342 19.6254 33.23 19.6254 33.1257L20.861 33.0973L20.9167 32.7751L23.1557 33.0452L31.9535 32.8462V33.1684L25.4318 33.3152L28.5998 33.6943L31.9535 33.6185V33.9407H31.9582ZM31.9582 34.9688V34.6466L26.7835 34.7272L23.23 34.2913L23.1696 34.6135L24.4145 34.7651L19.6486 34.8362C19.6533 35.1062 19.6626 35.3763 19.6719 35.6369L20.7449 35.6511L19.6719 35.6653C19.6765 35.7743 19.6811 35.8833 19.6858 35.9875L24.0476 35.9212L28.4929 36.4897L21.7575 36.395L20.3408 36.2244L20.3129 36.376L19.7044 36.3665C19.709 36.4755 19.7137 36.5845 19.723 36.6935L21.7296 36.7219L21.8551 36.7361L19.7276 36.6935C19.7322 36.8072 19.7415 36.9161 19.7462 37.0156L25.0463 37.1199L27.0762 37.3663L19.788 37.5131C19.8251 37.8874 19.867 38.257 19.9134 38.6313L25.9056 38.5129L26.0728 38.5271L19.9227 38.7166C19.9552 38.9535 19.9877 39.1857 20.0202 39.4226L20.3965 39.4178L20.0202 39.4273C20.0388 39.5363 20.0528 39.6405 20.0713 39.7495L21.07 39.7211L20.0713 39.7495C20.0899 39.8585 20.1085 39.9627 20.1271 40.0717L30.9781 39.7116L31.9628 39.759V38.745L31.3125 38.6834L31.9628 38.6645V38.0248L29.0364 37.968L26.4026 37.8353L28.4743 37.6553L29.3616 37.6363L31.9582 37.9538V37.6269L31.6748 37.5937L31.9582 37.589V36.9304L25.0741 36.793L24.7815 36.7551L31.3497 36.8498L31.9582 36.9256V36.5324L31.3868 36.5276L26.3469 35.8833L31.7724 35.8027L31.9628 35.8074V35.3621L29.1293 35.0115L31.9582 34.9688ZM31.9582 40.9198L20.7867 41.2704L24.2287 41.5499L31.9582 41.3083V41.6352L27.1226 41.7868L29.134 41.9479L31.9582 41.8627V42.5023L29.1247 42.2749L20.6334 42.5307C20.6102 42.4454 20.5916 42.3554 20.5684 42.2701L20.5544 42.2085L26.1936 42.038L24.2148 41.8769L20.5033 41.9953C20.4801 41.8863 20.4522 41.7821 20.429 41.6731L21.3162 41.6447L20.4058 41.5736C20.364 41.3746 20.3222 41.1709 20.2804 40.9672L23.8153 40.8582L20.2571 40.844C20.2293 40.7113 20.206 40.5834 20.1828 40.4507L31.9535 40.0622V40.3844L27.0065 40.5502L31.9535 40.5692V40.9198H31.9582ZM31.9582 42.9003L22.1431 43.194L27.694 43.7484L31.9628 43.6536V43.9758L30.3324 44.0137L31.9628 44.1748V44.7481L22.3428 44.9661L27.4989 45.582L31.9628 45.5157V45.8379L29.9004 45.871L30.9363 45.9942L30.8805 46.3164L27.4756 45.9089L21.6878 45.9942C21.6507 45.8852 21.6135 45.781 21.5764 45.672L25.0741 45.6199L21.4138 45.1793C21.358 45.0087 21.3023 44.8381 21.2466 44.6628L31.3497 44.4354L27.68 44.0658L21.1072 44.2127C21.0747 44.1037 21.0422 43.9995 21.0143 43.8905L25.0463 43.8005L20.8703 43.3836C20.8285 43.2225 20.782 43.0614 20.7402 42.905L31.9628 42.5686V42.9003H31.9582ZM31.9582 32.813V32.3155L30.6854 32.1876L31.9582 32.1497V31.8275L28.1956 31.9412L25.167 31.638L26.045 31.6048L31.9582 31.7233V31.1026L31.201 31.1263L28.5208 30.9936L31.9582 30.8846V30.3019L30.2999 30.2687L31.9582 30.2924V29.8517L31.6423 29.8612L31.4194 29.8328L31.9582 29.8375V28.0466L25.7105 28.1082L31.9582 27.9139V27.2174L29.9097 27.26L31.9582 27.0847V26.3835L31.7584 26.3598L31.7445 26.4309L20.0667 26.663C20.0528 26.862 20.0342 27.061 20.0156 27.2695L28.2189 27.0847L24.9952 27.3643L20.0063 27.459C19.9831 27.7149 19.9599 27.9897 19.932 28.2835L22.7562 28.1982L22.7609 28.4635L28.9342 28.4019L26.3887 28.4825L22.6401 28.5393V28.5962L19.8948 28.6815C19.8762 28.8757 19.8577 29.07 19.8391 29.2642L19.8298 29.3543L25.8731 29.1553L31.5773 29.2358L19.8251 29.4158C19.8019 29.6528 19.7833 29.8897 19.7648 30.1218L22.3056 30.1597L19.7555 30.2403C19.7462 30.3492 19.7369 30.4582 19.7276 30.5672L23.1743 30.4582L29.1525 30.5767L29.8586 30.6335L19.6997 30.951C19.6811 31.2353 19.6672 31.5195 19.6533 31.8038L22.6587 31.7138L25.6873 32.017L23.6341 32.0786L19.644 31.8796C19.6347 32.0928 19.6301 32.306 19.6254 32.524L23.6295 32.4055L31.9582 32.813ZM31.9582 26.0613L20.0899 26.4214C20.0992 26.3124 20.1085 26.2035 20.1131 26.0945L31.9582 25.7391V26.0613ZM31.9582 25.3411L20.141 25.6965C20.1457 25.5923 20.155 25.4833 20.1596 25.3696L31.1221 25.0379L31.1314 24.9668L29.473 24.8863L20.1689 25.18C20.1735 25.0758 20.1828 24.9668 20.1875 24.8531L25.4736 24.6873L20.5869 24.4457L20.6102 24.1235L29.4823 24.5641L31.9535 24.4883V25.3411H31.9582ZM31.9582 24.1045V23.0527L30.8991 23.0479V23.3038L30.7551 23.3085L28.1678 23.1806L28.1538 23.3938L24.3448 23.5217L20.2618 23.4412C20.2525 23.6212 20.2479 23.8013 20.2386 23.9813L24.3541 23.8439L27.7358 23.9103L25.1949 23.9908L25.2088 24.313L31.9582 24.1045ZM31.9582 22.9011H31.8932L20.2664 23.2848C20.2711 23.1759 20.2757 23.0669 20.2804 22.9626L25.7755 22.7826L25.3668 22.7731V22.7589L20.285 22.9153C20.2897 22.8063 20.2943 22.6973 20.2943 22.5883L24.1637 22.4699L20.2989 22.413C20.3036 22.1904 20.3129 21.9724 20.3175 21.7592L27.5407 21.6502L31.6981 21.5223L26.8486 21.4512L20.3175 21.5839C20.3222 21.3991 20.3222 21.2191 20.3268 21.0343L24.9766 21.1006L24.9719 20.8542L31.9582 20.75V21.9061L27.5686 21.9724L22.6772 22.124L31.3543 22.2472L31.9582 22.2283V22.9011ZM31.9582 20.5557V20.2288L20.3315 20.461C20.3315 20.5699 20.3315 20.6789 20.3315 20.7832L31.9582 20.5557ZM31.9582 20.1435L20.3315 20.4088C20.3315 20.2999 20.3315 20.1909 20.3315 20.0867L31.9582 19.8213V20.1435ZM31.9582 19.3712L20.3268 19.6366C20.3268 19.5276 20.3222 19.4186 20.3222 19.3096L31.9628 19.0443V19.3712H31.9582ZM21.7389 46.1648C21.8179 46.3875 21.8969 46.6102 21.9805 46.8328L23.2254 46.8139L24.5028 46.8328L29.7007 47.4725L29.761 47.1503L27.5082 46.8755L31.9535 46.9371V46.3543L24.2566 46.4728L21.7389 46.1648ZM22.2174 47.4583L22.8445 47.5388L31.9582 47.6667V47.9889L25.7059 47.8989L26.4723 47.9984L31.9582 48.1074V48.4296L29.7564 48.3869L29.7657 48.6949L24.7304 48.7944L27.3317 49.1118L31.9582 49.2019V49.524L31.4008 49.5146L31.9582 49.543V49.8699L28.5951 49.7041L24.2937 49.8368L28.4697 50.2253L28.4511 50.3769L31.3218 50.2821L31.3357 50.6043L28.5626 50.6943L31.9582 50.8649V51.1918L24.6328 50.827L23.662 50.8602C23.5645 50.6517 23.4716 50.4432 23.3787 50.2348L23.9454 50.23L23.95 50.4669L24.6375 50.5001L27.0901 50.4195L23.3043 50.0689C23.2254 49.8936 23.151 49.723 23.0767 49.5477L24.5585 49.5004L23.021 49.4245C22.9652 49.2919 22.9049 49.1545 22.8491 49.0218L24.1033 49.0455L22.7934 48.8844C22.7423 48.7612 22.6865 48.6333 22.6354 48.5101L27.2248 48.4201L26.4305 48.3206L23.6202 48.2637L23.6295 48.3443L22.6029 48.4343C22.5332 48.259 22.4636 48.0884 22.3939 47.9131L23.4205 47.9321L22.8027 47.8515L22.366 47.8468C22.3196 47.7236 22.2685 47.5909 22.2174 47.4583ZM30.4717 23.6449L30.7597 23.6354L31.2707 23.6591L30.4717 23.6449ZM25.8777 28.8283L25.6826 28.8236L26.384 28.7999L26.8068 28.7952L25.8777 28.8283ZM21.9526 31.2021L25.822 31.0789L25.8127 31.1831L27.1226 31.2495L26.045 31.2826L21.9526 31.2021ZM31.1639 29.8754L29.3941 29.9323L25.167 29.8707L26.8718 29.8138L31.1685 29.8328L31.1639 29.8754ZM27.7126 32.2776L28.1817 32.2634L28.9156 32.3392L27.7126 32.2776ZM29.0875 37.281L28.27 37.1815L29.8725 37.2146L29.0875 37.281ZM22.4218 38.1812L23.0396 38.2381L21.3673 38.2712L22.4218 38.1812ZM28.6834 38.7687L30.9734 38.9819L24.1637 39.053L22.3707 38.963L28.6834 38.7687ZM20.508 35.1394L26.7557 35.0446L30.0723 35.4521L22.078 35.3431L20.508 35.1394ZM29.199 48.3869L29.3709 48.3822L29.199 48.3774V48.3869ZM24.0894 51.7746L31.9582 51.5282V51.8504L24.2427 52.0921C24.1916 51.9878 24.1405 51.8789 24.0894 51.7746ZM24.4285 52.4711L25.023 52.4522L25.037 52.7743L24.5817 52.7886C24.5306 52.6843 24.4796 52.5801 24.4285 52.4711ZM24.6979 53.0255L31.9582 52.8075V53.1344L24.8558 53.3476C24.8001 53.2387 24.749 53.1297 24.6979 53.0255ZM25.0509 53.7314L27.8519 53.6461L27.8658 53.9683L25.2135 54.0489C25.1577 53.9446 25.102 53.8404 25.0509 53.7314ZM25.613 54.8354L31.9582 54.6932V55.0154L25.7755 55.1576C25.7244 55.0486 25.6687 54.9444 25.613 54.8354ZM26.0124 55.6029L31.8235 55.4703L31.8328 55.7925L26.1797 55.9204L26.0124 55.6029ZM26.607 56.7306L31.9628 56.65V56.9722L26.7789 57.0528L26.607 56.7306ZM27.0437 57.5597L31.9582 57.4839V57.8061L27.2155 57.8772L27.0437 57.5597ZM27.2945 58.0241L31.9628 58.0904V58.4126L27.471 58.3463L27.2945 58.0241ZM27.9727 59.0901L31.9628 59.147V59.4739L28.3118 59.4218C28.1864 59.3128 28.0749 59.2038 27.9727 59.0901ZM28.5162 59.5829L31.9582 59.6492V59.9714L29.0364 59.9146C28.8552 59.8198 28.6787 59.7061 28.5162 59.5829Z" fill="#F7DFCF"/>
<path fill-rule="evenodd" clip-rule="evenodd" d="M51.8114 76.0001C57.3716 60.2888 58.6397 51.8835 54.5427 40.4648C55.0769 48.4437 55.128 56.2804 51.0496 65.458C49.6282 68.6561 48.662 72.3376 48.5923 76.0001H51.8114Z" fill="#CFA284"/>
<path fill-rule="evenodd" clip-rule="evenodd" d="M29.7471 61.4307C28.8553 61.099 27.8937 60.5873 26.8114 59.8813C27.2202 61.1274 28.1538 63.2643 28.7205 65.747C29.566 69.4285 29.6031 73.9059 29.6078 76.0001H31.1314C30.4625 70.3192 31.2243 66.4862 29.7471 61.4307Z" fill="#CFA284"/>
<path fill-rule="evenodd" clip-rule="evenodd" d="M38.2198 59.2654C36.6683 60.393 35.3491 61.2032 34.0624 61.6107C32.6317 66.7515 33.0591 70.9067 32.9708 76.0049H34.8475C34.8939 73.2521 35.0983 69.9639 35.7347 67.0405C36.45 63.7476 37.6995 60.9047 38.2198 59.2654Z" fill="#CFA284"/>
<path fill-rule="evenodd" clip-rule="evenodd" d="M50.0602 -10C50.2414 -8.71126 50.613 -7.38935 51.1704 -5.92056C53.5348 0.29574 52.9541 6.41728 44.2585 5.00061C41.2995 4.51733 38.5589 2.83059 36.6405 0.70795C35.4606 -0.599747 34.7964 0.22467 35.8044 1.57501C39.0559 5.94821 42.5212 7.99504 46.8644 7.96187C54.8029 7.89554 56.5448 2.05829 53.832 -4.30015C53.0238 -6.20484 52.0483 -8.12848 51.4026 -10H50.0602Z" fill="#CFA284"/>
<path fill-rule="evenodd" clip-rule="evenodd" d="M33.1334 36.1956C33.1984 36.0724 33.2356 35.935 33.2449 35.8023C33.2867 34.4946 30.8852 34.4852 30.7783 35.6886C30.6947 36.6836 32.5714 37.2285 33.1334 36.1956Z" fill="#BA8F72"/>
<path fill-rule="evenodd" clip-rule="evenodd" d="M33.0173 36.2384C33.0777 36.1295 33.1102 36.0063 33.1148 35.8878C33.152 34.727 31.0152 34.7175 30.9223 35.7883C30.848 36.6743 32.5156 37.1576 33.0173 36.2384Z" fill="#CFA284"/>
<path fill-rule="evenodd" clip-rule="evenodd" d="M32.7989 36.2762C32.8454 36.1909 32.8733 36.0962 32.8779 36.0014C32.9058 35.0822 31.2196 35.0775 31.1499 35.9209C31.0895 36.6174 32.4041 36.9964 32.7989 36.2762Z" fill="#BA8F72"/>
<path fill-rule="evenodd" clip-rule="evenodd" d="M32.8547 36.1389C32.8686 36.0915 32.8733 36.0442 32.8779 35.9968C32.9058 35.0776 31.2196 35.0729 31.15 35.9162C31.1407 36.0157 31.1592 36.1058 31.2011 36.191C31.3961 35.5656 32.5992 35.5325 32.8547 36.1389Z" fill="#B0876C"/>
<path fill-rule="evenodd" clip-rule="evenodd" d="M28.5533 57.9339C24.2845 49.7939 21.7064 44.241 21.084 37.2903C20.9539 35.8357 20.8657 35.3619 22.4589 35.1629C24.5167 34.9118 26.5792 34.7365 28.6509 34.6844C30.3835 34.637 30.063 35.613 30.0723 36.8402C30.0816 38.2189 30.2349 39.3987 30.481 40.5074C31.4983 45.0038 31.568 48.5241 31.5123 53.229L31.4565 58.384C31.4333 60.3124 29.2036 59.18 28.5533 57.9339ZM35.4374 57.9339C39.7062 49.7939 42.2843 44.241 42.9067 37.2903C43.0368 35.8357 43.125 35.3619 41.5318 35.1629C39.474 34.9118 37.4116 34.7365 35.3398 34.6844C33.6072 34.637 33.9277 35.613 33.9184 36.8402C33.9091 38.2189 33.7559 39.3987 33.5097 40.5074C32.4924 45.0038 32.4227 48.5241 32.4784 53.229L32.5342 58.384C32.5574 60.3124 34.7871 59.18 35.4374 57.9339ZM43.0368 32.5996C43.06 34.2485 43.2412 34.7981 41.3367 34.5849C39.3718 34.3669 37.4023 34.1963 35.4281 34.1395C33.8209 34.0921 33.7651 33.7983 33.5097 32.2443C33.361 31.3346 33.1706 30.3538 32.929 29.283C32.8408 28.3686 32.7664 27.4541 32.7014 26.5349C32.5946 24.9667 32.8361 24.8435 34.2854 24.9714C34.578 24.9951 34.8707 25.0283 35.1633 25.0662C37.1561 25.3362 39.1581 25.8242 41.123 26.3928C42.6141 26.824 42.6466 27.2599 42.7674 28.6528C42.7906 28.8897 42.8092 29.1266 42.8324 29.3683C42.9392 30.4865 43.0229 31.5667 43.0368 32.5996ZM42.4515 24.0854C42.3818 22.6213 42.354 21.1668 42.3865 19.7169C42.419 18.3571 42.2471 17.907 40.8675 17.4C38.5543 16.5472 36.1806 15.7228 33.7837 15.5285C32.5621 15.429 32.3437 15.6706 32.3577 16.9167C32.3763 18.812 32.4181 20.7024 32.4924 22.5929C32.5713 24.545 32.8082 24.2654 34.5687 24.436C34.7964 24.4597 35.0193 24.4834 35.2423 24.5165C37.0678 24.7677 38.898 25.1941 40.7049 25.6963C42.7952 26.2791 42.5351 25.8527 42.4515 24.0854ZM42.6838 15.5048C42.5212 16.8646 42.5955 17.4474 40.8768 16.8172C38.5821 15.9739 36.241 15.1779 33.8348 14.9836C32.3902 14.8652 32.3391 14.5003 32.3391 13.0552C32.3391 10.3309 32.3577 7.60651 32.3484 4.88688C32.3437 3.45126 33.2913 4.42255 33.8906 4.91057C35.8694 6.54045 38.6146 8.49252 42.3632 9.60596C43.7521 10.0182 43.6453 10.3688 43.3573 11.6244C43.0554 12.9273 42.837 14.2161 42.6838 15.5048ZM20.9539 32.5996C20.9307 34.2485 20.7495 34.7981 22.654 34.5849C24.6189 34.3669 26.5884 34.1963 28.5626 34.1395C30.1698 34.0921 30.2256 33.7983 30.481 32.2443C30.6297 31.3346 30.8201 30.3538 31.0617 29.283C31.1499 28.3686 31.2243 27.4541 31.2893 26.5349C31.3961 24.9667 31.1546 24.8435 29.7053 24.9714C29.4127 24.9951 29.12 25.0283 28.8274 25.0662C26.8346 25.3362 24.8326 25.8242 22.8677 26.3928C21.3766 26.824 21.3441 27.2599 21.2233 28.6528C21.2001 28.8897 21.1815 29.1266 21.1583 29.3683C21.0515 30.4865 20.9679 31.5667 20.9539 32.5996ZM21.5392 24.0854C21.6089 22.6213 21.6368 21.1668 21.5996 19.7169C21.5671 18.3571 21.7389 17.907 23.1185 17.4C25.4318 16.5472 27.8055 15.7228 30.2023 15.5285C31.424 15.429 31.6423 15.6706 31.6284 16.9167C31.6098 18.812 31.568 20.7024 31.4937 22.5929C31.4147 24.545 31.1778 24.2654 29.4173 24.436C29.1897 24.4597 28.9667 24.4834 28.7391 24.5165C26.9136 24.7677 25.0834 25.1941 23.2765 25.6963C21.1955 26.2791 21.4556 25.8527 21.5392 24.0854ZM21.3069 15.5048C21.4695 16.8646 21.3952 17.4474 23.1139 16.8172C25.4086 15.9739 27.7497 15.1779 30.1559 14.9836C31.6005 14.8652 31.6516 14.5003 31.6516 13.0552C31.6516 10.3309 31.633 7.60651 31.6423 4.88688C31.647 3.45126 30.6994 4.42255 30.1001 4.91057C28.1213 6.54045 25.3761 8.49252 21.6275 9.60596C20.2386 10.0182 20.3454 10.3688 20.6334 11.6244C20.9353 12.9273 21.1537 14.2161 21.3069 15.5048Z" fill="#C75C52"/>
<path fill-rule="evenodd" clip-rule="evenodd" d="M29.0736 57.6447C29.2036 57.8911 29.408 58.1185 29.6171 58.2986C29.8354 58.4834 30.1048 58.6634 30.3742 58.7534C30.4578 58.7819 30.6715 58.8387 30.7598 58.7913C30.8434 58.744 30.8619 58.4502 30.8619 58.3744L30.9177 53.2194C30.9409 50.9783 30.9456 48.7278 30.7783 46.4867C30.6297 44.5062 30.3371 42.5731 29.9004 40.6399C29.6171 39.3844 29.4824 38.1288 29.4731 36.84C29.4731 36.5842 29.5427 35.6271 29.422 35.4328C29.3244 35.2812 28.8042 35.2812 28.6602 35.286C26.607 35.3381 24.5585 35.5087 22.524 35.7598C22.3753 35.7787 21.7482 35.864 21.6553 36.0109C21.5531 36.1767 21.6507 37.0296 21.6693 37.2286C21.8086 38.7921 22.0548 40.3367 22.4125 41.8624C23.0117 44.4114 23.9036 46.8562 24.9441 49.2489C26.1936 52.1107 27.6336 54.8967 29.0736 57.6447ZM34.9171 57.6447C36.3618 54.8919 37.7971 52.1107 39.042 49.2584C40.0825 46.8657 40.979 44.4209 41.5736 41.8718C41.9313 40.3462 42.1774 38.8016 42.3214 37.238C42.34 37.039 42.4422 36.1862 42.3354 36.0204C42.2425 35.8735 41.6154 35.7882 41.4667 35.7692C39.4275 35.5181 37.3837 35.3476 35.3305 35.2954C35.1865 35.2907 34.6663 35.2907 34.5687 35.4423C34.448 35.6318 34.5177 36.5937 34.5177 36.8495C34.5084 38.1383 34.3737 39.3938 34.0903 40.6494C33.6537 42.5825 33.361 44.5204 33.2124 46.4962C33.0452 48.7325 33.0498 50.9831 33.073 53.2289L33.1288 58.3839C33.1288 58.4597 33.1473 58.7534 33.231 58.8008C33.3192 58.8482 33.5329 58.7913 33.6165 58.7629C33.8859 58.6729 34.1553 58.4928 34.3737 58.3081C34.578 58.1233 34.7871 57.8911 34.9171 57.6447ZM33.3192 25.5635C33.2495 25.7294 33.2913 26.3358 33.3006 26.4874C33.361 27.3877 33.4353 28.2832 33.5236 29.1786C33.7419 30.1594 33.9417 31.1449 34.1042 32.1352C34.1414 32.3626 34.2529 33.1823 34.4155 33.3481C34.5734 33.5045 35.2516 33.5234 35.456 33.5282C37.4441 33.5898 39.4322 33.7556 41.411 33.9783C41.5736 33.9972 42.2611 34.0636 42.4143 33.9641C42.5026 33.803 42.4515 32.7938 42.4515 32.6042C42.4376 31.5382 42.3493 30.4721 42.2564 29.4108C42.2332 29.1739 42.2146 28.9323 42.1914 28.6954C42.1635 28.3969 42.131 27.7193 41.9684 27.4682C41.7965 27.2076 41.2531 27.0465 40.979 26.966C39.0513 26.4116 37.0864 25.9284 35.1029 25.6583C34.8196 25.6204 34.5362 25.5872 34.2529 25.5635C34.0903 25.5588 33.4818 25.5019 33.3192 25.5635ZM41.9127 25.3361C41.9313 25.0281 41.8662 24.2985 41.8616 24.1137C41.7919 22.6449 41.764 21.1714 41.7965 19.7026C41.8244 18.556 41.7501 18.3712 40.6678 17.9732C38.4428 17.1535 36.1109 16.3291 33.7419 16.1396C33.6211 16.1301 33.1427 16.0969 33.0266 16.1633C32.9522 16.2817 32.9522 16.7934 32.9569 16.9166C32.9755 18.8024 33.0173 20.6881 33.0916 22.5738C33.0962 22.7397 33.1288 23.5546 33.2356 23.6873C33.3471 23.7678 34.4573 23.8247 34.6338 23.8389C34.866 23.8626 35.0983 23.8863 35.3305 23.9194C37.2025 24.1753 39.0513 24.6064 40.8722 25.1134C41.0347 25.1608 41.6293 25.3266 41.9127 25.3361ZM32.943 4.90572C33.1566 5.06681 33.4121 5.29897 33.519 5.38426C36.1574 7.55901 38.9212 9.21732 42.2007 10.1934C42.3029 10.2218 42.8881 10.4066 42.9346 10.5203C42.9903 10.6435 42.8092 11.3589 42.7813 11.4963C42.484 12.7993 42.2564 14.1164 42.0985 15.4431C42.0799 15.6042 42.0195 16.2817 41.9452 16.476C41.7454 16.4902 41.2252 16.3102 41.0812 16.258C38.754 15.4052 36.3664 14.5903 33.8859 14.3913C33.7326 14.377 33.152 14.3297 33.0452 14.1923C32.9244 14.0406 32.9383 13.2541 32.9383 13.0646C32.9337 10.3402 32.9476 7.62061 32.943 4.90572ZM21.581 33.9688C21.7343 34.0636 22.4218 33.9972 22.5844 33.983C24.5632 33.7603 26.5466 33.5945 28.5394 33.5329C28.7391 33.5282 29.422 33.5092 29.5799 33.3529C29.7425 33.1918 29.854 32.3673 29.8911 32.1399C30.0537 31.1497 30.2534 30.1594 30.4718 29.1834C30.5554 28.2879 30.6297 27.3877 30.6947 26.4922C30.704 26.3406 30.7458 25.7341 30.6761 25.5683C30.5089 25.5067 29.9004 25.5588 29.7518 25.573C29.4684 25.5967 29.1851 25.6299 28.9017 25.6678C26.9136 25.9378 24.9534 26.4211 23.0256 26.9755C22.7516 27.056 22.2081 27.2124 22.0362 27.4777C21.869 27.7335 21.8365 28.4064 21.8133 28.7048C21.79 28.9417 21.7715 29.1834 21.7482 29.4203C21.6507 30.4816 21.5671 31.5477 21.5531 32.6137C21.5439 32.7985 21.4974 33.8124 21.581 33.9688ZM22.078 25.3361C22.3614 25.3219 22.956 25.1608 23.1232 25.1134C24.9441 24.6064 26.7928 24.1753 28.6648 23.9194C28.8971 23.8863 29.1293 23.8626 29.3616 23.8389C29.5381 23.8199 30.6483 23.7631 30.7598 23.6873C30.8666 23.5593 30.8945 22.7444 30.9038 22.5738C30.9781 20.6881 31.0199 18.8024 31.0385 16.9166C31.0385 16.7887 31.0385 16.277 30.9688 16.1633C30.8527 16.0969 30.3742 16.1301 30.2534 16.1396C27.8844 16.3291 25.5479 17.1583 23.3276 17.9732C22.2453 18.3712 22.1709 18.5607 22.1988 19.7026C22.2313 21.1714 22.2035 22.6449 22.1338 24.1137C22.1198 24.2985 22.0595 25.0329 22.078 25.3361ZM22.0502 16.4665C21.9758 16.2723 21.9155 15.59 21.8969 15.4336C21.7389 14.107 21.5113 12.7898 21.214 11.4868C21.1815 11.3494 21.005 10.634 21.0608 10.5108C21.1119 10.3971 21.6925 10.217 21.7947 10.1839C25.0695 9.20785 27.838 7.55428 30.4764 5.37478C30.5786 5.2895 30.8341 5.06207 31.0524 4.89624C31.0431 7.61587 31.0617 10.3308 31.0617 13.0457C31.0617 13.2352 31.0756 14.0217 30.9549 14.1733C30.848 14.306 30.2674 14.3581 30.1141 14.3723C27.6336 14.5713 25.246 15.3862 22.9188 16.2391C22.7702 16.3007 22.2499 16.4807 22.0502 16.4665Z" fill="#D6736A"/>
<path fill-rule="evenodd" clip-rule="evenodd" d="M29.134 53.8733L29.1433 53.2053C29.1665 51.0163 29.1758 48.8178 29.0086 46.6336C28.8646 44.7526 28.5859 42.8906 28.1678 41.0522C27.8751 39.7635 27.7265 38.4605 27.6986 37.1386C26.2912 37.2002 24.8837 37.3186 23.4855 37.475C23.6249 38.8111 23.8432 40.1378 24.1498 41.4455C24.7211 43.8808 25.5805 46.2309 26.5792 48.5194C27.3688 50.334 28.2328 52.1108 29.134 53.8733ZM34.8568 53.8733C35.7533 52.1108 36.6219 50.334 37.4116 48.5194C38.4056 46.2309 39.2696 43.8808 39.841 41.4455C40.1475 40.1378 40.3705 38.8111 40.5052 37.475C39.1024 37.3186 37.6996 37.2002 36.2921 37.1386C36.2642 38.4558 36.1156 39.7635 35.8229 41.0522C35.4095 42.8906 35.1262 44.7526 34.9822 46.6336C34.8149 48.8178 34.8242 51.0163 34.8475 53.2053L34.8568 53.8733ZM35.1587 27.5062C35.1958 27.9705 35.2377 28.4301 35.2795 28.8944C35.4885 29.8326 35.6789 30.7802 35.8369 31.7325C37.4441 31.7894 39.0466 31.9125 40.6492 32.0784C40.6167 31.2492 40.5517 30.4153 40.4727 29.5909C40.4495 29.3493 40.4309 29.1076 40.4077 28.866C40.403 28.8139 40.3984 28.757 40.3937 28.6954C38.675 28.2027 36.9285 27.7668 35.1587 27.5062ZM40.0361 23.0145C39.9989 21.8964 39.9942 20.7782 40.0175 19.6647C38.3313 19.0441 36.5429 18.3997 34.7499 18.0964C34.7685 19.4089 34.801 20.7261 34.8521 22.0385C35.089 22.0622 35.3306 22.0906 35.5675 22.1238C37.0725 22.3228 38.5589 22.6355 40.0361 23.0145ZM34.722 8.54932C34.7174 9.91387 34.7128 11.2737 34.7128 12.6382C36.6916 12.8799 38.5914 13.4437 40.4727 14.1023C40.5935 13.2873 40.7375 12.4819 40.9047 11.6764C38.6704 10.9278 36.6405 9.86649 34.722 8.54932ZM23.3415 32.0736C24.9394 31.9078 26.5466 31.7846 28.1539 31.7278C28.3118 30.7754 28.5022 29.8326 28.7113 28.8897C28.7531 28.4301 28.7949 27.9658 28.832 27.5014C27.0623 27.762 25.3157 28.1979 23.597 28.6907C23.5924 28.7523 23.5877 28.8091 23.5831 28.8613C23.5598 29.1029 23.5413 29.3445 23.518 29.5814C23.4391 30.4153 23.374 31.2445 23.3415 32.0736ZM23.9547 23.0145C25.4272 22.6402 26.9183 22.3228 28.4279 22.119C28.6648 22.0859 28.9064 22.0574 29.1433 22.0338C29.1897 20.7213 29.2222 19.4041 29.2455 18.0917C27.4478 18.3997 25.6641 19.0441 23.9779 19.66C24.0011 20.7782 23.9918 21.8964 23.9547 23.0145ZM29.2687 8.54932C27.3502 9.86649 25.3203 10.9278 23.0814 11.6812C23.2533 12.4866 23.3973 13.2921 23.5134 14.107C25.3947 13.4484 27.2945 12.8799 29.2733 12.643C29.278 11.2784 29.2733 9.91387 29.2687 8.54932Z" fill="#E0837B"/>
<path fill-rule="evenodd" clip-rule="evenodd" d="M51.4026 -10C52.0483 -8.12848 53.0284 -6.20484 53.8367 -4.30015C56.5494 2.05829 54.8075 7.89554 46.869 7.96188C42.4376 7.99978 38.9026 5.88188 35.6139 1.30968C35.2144 0.750593 34.801 -0.405486 35.665 0.788498C38.8794 5.24698 42.3354 7.40279 46.6646 7.26065C48.8339 7.18958 50.5294 6.68735 51.7835 5.85819C54.9097 3.79715 55.2906 -0.268084 53.4558 -4.59864C52.6847 -6.40857 51.751 -8.22798 51.1193 -10H51.4026Z" fill="#A87E62"/>
<path fill-rule="evenodd" clip-rule="evenodd" d="M15.4077 76.0001C15.338 72.3376 14.3718 68.6561 12.9504 65.4579C9.02063 56.6215 8.92308 49.0264 9.39688 41.3508C5.61576 52.3241 6.79562 60.6962 12.2118 76.0001H15.4077Z" fill="#CFA284"/>
<path fill-rule="evenodd" clip-rule="evenodd" d="M42.2703 56.124C34.225 61.677 31.9582 63.3827 22.668 56.7163L22.3614 56.5315C31.8142 64.7567 34.2761 62.8331 42.2703 56.124Z" fill="#9E7459"/>
<path fill-rule="evenodd" clip-rule="evenodd" d="M14.107 -10C13.9259 -8.71126 13.5543 -7.38934 12.9968 -5.92056C10.6325 0.295741 10.4188 5.73026 19.1145 4.31359C22.0223 3.83979 25.5061 2.21464 27.3967 0.10622C28.4883 -1.11145 29.4266 0.0872688 28.6369 1.19123C25.325 5.84398 21.7668 7.99504 17.2982 7.95714C9.35972 7.89081 7.6178 2.05355 10.3306 -4.30489C11.1434 -6.20484 12.1189 -8.12848 12.7646 -10H14.107Z" fill="#CFA284"/>
<path fill-rule="evenodd" clip-rule="evenodd" d="M12.7646 -10C12.1189 -8.12848 11.1388 -6.20484 10.3306 -4.30015C7.6178 2.05829 9.35972 7.89554 17.2982 7.96188C21.8551 7.99978 25.469 5.75869 28.8413 0.906948C29.1433 0.471049 29.0596 -0.163847 28.5301 0.580024C25.2878 5.14275 21.8876 7.40753 17.5119 7.26538C15.3426 7.19431 13.6472 6.69208 12.393 5.86293C9.26682 3.79715 8.88127 -0.268084 10.7161 -4.59864C11.4825 -6.40857 12.4162 -8.22798 13.0479 -10H12.7646Z" fill="#A87E62"/>
<path fill-rule="evenodd" clip-rule="evenodd" d="M51.8579 76C58.3703 57.588 59.002 49.2112 51.9926 34.2579C47.9142 25.5542 47.7562 25.3694 49.9069 16.1065C50.5712 13.2448 51.0264 10.2977 51.2958 7.28906C51.2726 7.29854 51.2494 7.30801 51.2261 7.32223C50.9196 10.3877 50.4225 13.3869 49.7072 16.2913C47.4404 25.5257 47.5937 25.7105 51.5652 34.4664C58.361 49.4528 57.6596 57.8154 50.9846 76H51.8579Z" fill="#A87E62"/>
<path fill-rule="evenodd" clip-rule="evenodd" d="M12.1421 75.9998C5.62969 57.5878 4.99796 49.2109 12.0074 34.2577C16.0858 25.5539 16.4853 25.2175 14.3346 15.9547C13.6704 13.0929 13.2152 10.1459 12.9457 7.13721C12.969 7.14668 12.9922 7.15616 13.0154 7.17037C13.322 10.2359 13.819 13.2351 14.5344 16.1395C16.8012 25.3739 16.4064 25.7103 12.4348 34.4709C5.63899 49.4573 6.3404 57.8199 13.0154 76.0045H12.2118H12.1421V75.9998Z" fill="#A87E62"/>
<path fill-rule="evenodd" clip-rule="evenodd" d="M33.9695 14.9979L33.951 8.44045L33.8813 14.9931L33.8302 14.9884C33.7512 14.9837 33.6815 14.9742 33.6119 14.9695L33.3424 11.0369L33.3006 14.9268C33.2124 14.9126 33.1334 14.8937 33.0637 14.87L33.1334 8.03298L32.8733 4.16675C32.9523 4.19518 33.0359 4.24256 33.1195 4.29468L33.1706 5.01012L33.1799 4.33258C33.2588 4.3847 33.3378 4.44629 33.4168 4.50789L33.3796 8.01403L33.6815 12.3872L33.7605 4.79691C33.807 4.83481 33.8534 4.87271 33.8952 4.91062C33.9928 4.99117 34.0903 5.07171 34.1925 5.15226L34.4294 5.34178C34.592 5.46971 34.7639 5.60237 34.9357 5.73504L34.9868 15.1211C34.9079 15.1069 34.8289 15.0974 34.7499 15.0879L34.736 12.6147L34.7406 15.0879C34.6617 15.0784 34.5827 15.0642 34.5037 15.0547L34.4991 13.0174L34.4526 15.0453C34.2854 15.0263 34.1275 15.0121 33.9695 14.9979ZM35.8647 14.6094V15.2822C35.7579 15.2585 35.6511 15.2395 35.5442 15.2206L35.6278 14.5952L35.6139 10.9516L35.4838 14.3203L35.4885 15.2111C35.3956 15.1921 35.3073 15.1779 35.2144 15.1637L35.2469 14.3203L35.2005 5.94825C35.2795 6.0051 35.3584 6.0667 35.4374 6.12355L35.4513 8.9948L35.5628 6.21358C35.6511 6.27991 35.744 6.34151 35.8369 6.40784L35.8601 12.8279L36.1342 10.7242L36.1202 6.6021C36.1992 6.65421 36.2782 6.71107 36.3571 6.76319L36.3618 8.95216L36.5244 7.72027V6.86743C36.6312 6.9385 36.738 7.00957 36.8495 7.0759L36.7613 7.73449L36.7752 15.4101L37.0632 13.5575L37.0539 7.19909C37.1329 7.24647 37.2118 7.29385 37.2908 7.34597L37.3001 12.0414L37.825 8.65366L37.8296 7.66815C37.9458 7.73449 38.0665 7.80082 38.1873 7.86715L38.0619 8.67735L38.0154 15.2964L38.3592 13.3633L38.3963 7.98086C38.4753 8.02351 38.5543 8.06141 38.6332 8.10405L38.6054 11.9703L39.1674 8.82423L39.1767 8.36938C39.2743 8.41676 39.3672 8.4594 39.4647 8.50679L39.4043 8.84792L39.33 13.0742L39.7388 10.8332L39.7759 8.65366C39.8828 8.70104 39.9942 8.74842 40.1057 8.7958L40.1011 8.84318L40.1104 8.7958C40.1847 8.82897 40.259 8.8574 40.3333 8.89056L40.0082 10.6863L39.9664 11.4728L39.9106 14.8036L40.4866 11.7286L40.626 9.01375C40.705 9.04218 40.7793 9.07535 40.8582 9.10378L40.8118 9.98505L40.9 9.51598L40.9233 9.12747C41.0115 9.16063 41.1044 9.1938 41.1973 9.22697L41.1369 9.54441L40.9 13.657L41.6665 9.38806C41.8012 9.43544 41.9359 9.47808 42.0753 9.52072L41.7269 13.2259L41.6386 14.7136L42.3818 9.61548C42.4655 9.63917 42.5398 9.66286 42.6095 9.69129L41.5364 17.0258C41.4157 16.9973 41.2856 16.9642 41.1369 16.9168L41.4853 13.2116L41.6154 10.9943L40.7793 15.6375L40.7142 16.7652C40.5517 16.7083 40.3937 16.6467 40.2312 16.5899L40.3891 13.5054L39.8828 16.2156L39.8781 16.4619C39.7434 16.4146 39.6087 16.3672 39.474 16.3198L39.6691 12.5057L39.3021 14.5288L39.2743 16.2535C39.1953 16.225 39.1163 16.2013 39.0374 16.1729L39.042 15.9597L39.0048 16.1634C38.9305 16.1398 38.8516 16.1113 38.7772 16.0876L39.0652 14.5051L39.1349 10.3167L38.5868 13.3822L38.5682 16.0166C38.4892 15.9929 38.4103 15.9644 38.3313 15.9408L38.3406 14.7705L38.1409 15.8839C38.0154 15.846 37.89 15.8081 37.7646 15.7702L37.8018 10.2883L37.2908 13.586L37.2954 15.6375C37.2165 15.6138 37.1375 15.5949 37.0585 15.5712V15.1021L36.9889 15.5522C36.8356 15.5143 36.6869 15.4717 36.5336 15.4385L36.5244 9.5302L36.3664 10.7384L36.3804 15.4006C36.3014 15.3817 36.2224 15.3627 36.1435 15.3485L36.1342 12.5104L35.8647 14.6094ZM40.7979 11.378L40.7282 11.7523L40.5238 15.7797L40.5563 15.5996L40.7979 11.378ZM43.0182 9.85239C42.9485 9.81922 42.8742 9.78605 42.7906 9.75289L42.1078 17.0542C42.2146 17.0305 42.2936 16.9831 42.3586 16.9168L43.0182 9.85239Z" fill="#C75C52"/>
<path fill-rule="evenodd" clip-rule="evenodd" d="M33.9509 23.7254L33.9788 24.3935C33.8952 24.3887 33.8162 24.384 33.7419 24.3745L33.3935 15.5144C33.4678 15.5144 33.5468 15.5191 33.6304 15.5239L33.8813 21.9155L33.7884 15.5381C33.9881 15.5523 34.1878 15.576 34.3829 15.5997L34.7545 24.4645C34.6942 24.4598 34.6338 24.4503 34.5734 24.4456L34.5176 24.4409L34.3086 19.518L34.4991 24.4314C34.4154 24.4219 34.3365 24.4172 34.2622 24.4124L34.0856 19.9302L34.1414 23.7207L33.9509 23.7254ZM33.3889 15.5144C33.3053 15.5144 33.2263 15.5144 33.152 15.5239L33.2542 19.338L32.8593 15.5807C32.7432 15.6186 32.6503 15.6802 32.5806 15.7655L32.7989 24.0997C32.864 24.1708 32.9429 24.2229 33.0405 24.2608L32.8733 17.9877L33.3331 22.3466L33.3842 24.3366C33.4586 24.3461 33.5375 24.3556 33.6211 24.3603L33.584 23.0242L33.6397 23.0194L33.5654 22.3277L33.3889 15.5144ZM35.521 21.4701L35.7207 19.3569L35.9298 24.6162C36.0087 24.6304 36.0877 24.6398 36.1667 24.6541L35.8833 17.5754L35.9948 16.3625L36.2781 23.7633L36.1713 24.6588C36.2967 24.6778 36.4221 24.7014 36.5522 24.7251L36.515 23.7728L36.7334 21.9107L36.8448 24.7773C36.9238 24.7915 37.0028 24.8057 37.0864 24.8246L36.9145 20.3898L37.3047 17.0732L37.4952 23.4696L37.3001 24.8436L37.5323 24.8767V24.9147C37.6113 24.9289 37.6903 24.9478 37.7692 24.9668L37.7274 23.4838L38.0015 21.5364L38.1037 25.0426C38.1826 25.0615 38.2616 25.0805 38.3406 25.0947L38.1966 20.1387L38.6286 17.0543L38.7122 21.2427L38.3963 23.4269L38.6332 23.4601L38.7447 22.6973L38.7958 25.2037C38.9955 25.2511 39.1953 25.3032 39.395 25.3506L39.3997 24.9478L39.4089 25.3553C39.4879 25.3742 39.5669 25.3979 39.6458 25.4169L39.5947 22.9247L40.0035 20.1956L39.9431 24.3271L39.8177 25.1989L39.9292 25.2131L39.9338 25.488L40.1893 24.3461L40.1986 24.2703L40.1707 25.5543L40.4076 25.6206L40.4773 22.3135L41.1416 17.6418L41.0951 19.8639L40.7607 25.7201C40.9233 25.7628 41.0672 25.8007 41.202 25.8338L41.2391 24.0855L41.908 17.9545C41.843 17.8976 41.7687 17.8408 41.685 17.7887L41.2949 21.3564L41.3274 19.8639L41.4528 17.656C41.3041 17.5802 41.1276 17.5044 40.9279 17.4286L40.5145 20.3282L40.5795 17.3006C40.403 17.2343 40.2265 17.1727 40.05 17.1111L40.0314 18.4188L39.5669 21.5128L39.4972 18.1819L39.5158 17.3954L39.5808 16.9406C39.4647 16.8979 39.3532 16.86 39.2371 16.8221L39.251 17.547L38.9259 19.8023L38.8608 16.6894C38.7261 16.6468 38.5961 16.5994 38.4613 16.5568L38.1548 18.7268L38.0851 16.4383C38.0061 16.4146 37.9272 16.3909 37.8435 16.3625L37.955 20.1198L37.681 22.0671L37.5184 16.2678C37.4023 16.2346 37.2861 16.2014 37.17 16.1683L36.8541 18.85L36.7473 16.0545C36.6683 16.0356 36.5894 16.0119 36.5057 15.9929L36.673 20.3756L36.4547 22.2377L36.2178 15.9266C36.0041 15.8745 35.7904 15.8319 35.5721 15.7892L35.6418 17.5754L35.442 19.6886L35.2841 15.7371C35.154 15.7134 35.0286 15.6897 34.8985 15.6708V15.8698L34.8892 15.666C34.8103 15.6518 34.7313 15.6423 34.6477 15.6281L34.88 21.1953L34.8707 24.4693C34.9914 24.4835 35.1169 24.4977 35.2376 24.5167L35.2562 24.5214L35.2283 23.8818L35.2794 23.8865L35.3398 23.2469L35.3909 24.5403C35.4699 24.5498 35.5489 24.564 35.6278 24.5735L35.521 21.4701ZM35.1354 17.8266L35.2794 21.4654L35.1819 22.5172L35.1261 21.1953L35.1354 17.8266ZM39.0373 25.09L38.9584 21.2569L39.251 19.2195L39.1813 24.1281L39.0373 25.09ZM40.3333 18.054L40.2451 22.285L40.2172 22.4651L40.2776 18.433L40.3333 18.054ZM42.3586 18.8547L41.9545 25.9428C41.8848 25.9428 41.8058 25.9381 41.7176 25.9286L42.1542 18.2388C42.2657 18.4093 42.3261 18.6131 42.3586 18.8547Z" fill="#C75C52"/>
<path fill-rule="evenodd" clip-rule="evenodd" d="M33.9138 36.3712L33.9974 35.8169L34.2111 35.85L34.3365 34.8598C34.4062 34.8171 34.4898 34.784 34.5873 34.7556L32.4692 51.7888C32.4645 51.1018 32.4692 50.4384 32.4785 49.7893L33.0916 44.8618L32.4785 49.6661C32.4924 48.7422 32.5249 47.8467 32.5853 46.9607L32.8036 45.2361L32.6225 46.4395C32.7665 44.5301 33.0359 42.6302 33.5143 40.5123C33.7652 39.4036 33.9184 38.2238 33.9231 36.845C33.9231 36.6792 33.9184 36.5228 33.9138 36.3712ZM34.1135 36.6081L34.016 37.262H34.0346L34.1135 36.6081ZM33.9603 46.9939L34.5037 44.9471L32.7246 58.9953L32.9615 59.0285L34.0021 50.8033L34.1461 50.8459L33.1985 58.242L33.4354 58.2751L34.5688 49.4387L35.089 47.643L33.584 59.3933C33.663 59.3791 33.7466 59.3554 33.8302 59.3222L35.5164 46.1695L36.4454 42.9666L35.5767 49.3013L35.1587 50.6232L35.3863 50.699L34.2297 59.1375C34.3179 59.0853 34.4062 59.0332 34.4944 58.9716L35.8136 49.3582L36.4036 47.4866L34.8707 58.6637C34.9729 58.5689 35.0658 58.4694 35.1494 58.3652L36.8263 46.1458L37.7646 43.1798L37.1561 47.3255L36.4872 49.4245L36.7148 49.5003L36.9517 48.7659L35.8322 56.4226L36.0087 56.451L35.8926 57.0906C36.018 56.849 36.1435 56.6121 36.2642 56.3752L37.2258 51.097L36.529 55.8587C36.6405 55.6361 36.7566 55.4181 36.8634 55.2049L37.7507 49.1355L38.6054 46.5153L37.8621 50.5806L37.5974 51.4192L37.7042 51.4524L37.105 54.7264C37.3605 54.2194 37.6113 53.7172 37.8529 53.2291L38.7122 48.6806L40.1383 44.189L39.7248 46.3685L38.4567 51.9783C38.7401 51.386 39.0095 50.7985 39.2696 50.2252L41.6526 41.7584L41.4249 41.692L39.683 47.8799L39.9617 46.4158L42.4562 35.3857C42.3911 35.3573 42.3168 35.3289 42.2332 35.3004L41.2113 39.8252L42.0753 35.2578C42.0056 35.2388 41.9266 35.2246 41.843 35.2104L40.5145 42.2369L39.0885 46.7286L39.8549 42.6823L40.3752 41.0856L40.1708 41.0145L41.2856 35.1299L41.0487 35.1014L39.6273 42.6159L39.4786 43.0661L40.9326 35.0872L40.6957 35.0588L38.9259 44.7528L37.9597 47.7235L38.4428 44.4306L38.5821 43.6583L39.5623 40.5881L39.3346 40.5123L38.9119 41.8389L40.1615 34.9972L39.9246 34.9735L39.4229 37.7358L39.827 34.964L39.5901 34.9403L38.2988 43.7578L37.6067 45.9278L38.2198 41.7489L38.8562 39.74L38.6286 39.6642L38.4335 40.2754L39.2185 34.9072L38.9816 34.8882L37.9876 41.6968L37.026 44.7386L38.3824 34.8361C38.3034 34.8314 38.2245 34.8219 38.1455 34.8171L37.6438 38.4891L37.5184 38.4512L37.1329 39.7826L37.8157 34.7935L37.5788 34.7792L36.6776 41.3462L35.7207 44.6343L36.9889 34.7413L36.752 34.7271L36.4268 37.2525L36.3153 37.2193L35.9762 38.4939L36.4593 34.7082C36.3804 34.7034 36.3014 34.6987 36.2224 34.6987L35.5117 40.2375L35.1959 41.4362L35.953 35.4568L35.7161 35.4236L34.736 43.1608L34.1925 45.2076L35.1262 37.8211L35.2702 36.9729L35.233 36.9682L35.5257 34.6703L35.3491 34.6655C35.3259 34.6655 35.3073 34.6655 35.2841 34.6655L34.8893 37.7832L34.2854 41.3462L34.945 36.0585L34.7081 36.0301L33.3843 46.6196L32.6828 50.7322L32.864 50.7654L32.4785 53.8451L32.497 55.6076L33.2774 49.3203L33.3285 49.3345L33.4911 48.7138L32.785 54.3047L33.0219 54.3331L33.9603 46.9939ZM34.1832 43.3361L33.6165 46.6575L33.4539 47.9699L33.7233 46.9465L34.1832 43.3361ZM35.7347 40.3038L36.2967 38.1764L35.2795 46.1174L34.7592 47.9131L35.7347 40.3038ZM35.2748 42.0474L34.9636 43.2271L34.0671 50.3152L34.3365 49.3913L35.2748 42.0474ZM35.9995 47.9604L36.896 41.4077L37.5277 39.233L36.5894 46.0937L35.9995 47.9604ZM36.2921 54.8353L36.7194 51.9214L36.817 51.9546L36.2921 54.8353ZM36.8309 51.1681L37.3883 47.3729L38.0154 45.4161L37.1329 50.2442L36.8309 51.1681ZM38.113 50.5521L37.8389 51.9878L38.0898 50.6232L38.113 50.5521ZM39.265 44.4543L38.4799 48.6096L38.4242 48.7801L39.1488 44.8144L39.265 44.4543ZM42.8231 38.1101L41.1695 45.4161C40.9697 46.0131 40.7514 46.6148 40.5192 47.2166L42.9718 36.3807C42.9671 36.6318 42.9393 36.9303 42.9067 37.2857C42.8835 37.5652 42.8556 37.84 42.8231 38.1101Z" fill="#C75C52"/>
<path fill-rule="evenodd" clip-rule="evenodd" d="M34.6849 34.078L33.7373 25.8954L34.448 32.8177L34.5734 33.5L34.5177 33.5094L34.5734 34.059C34.4805 34.0401 34.4015 34.0164 34.3272 33.9927L34.2111 32.8509L33.4214 28.5392L33.9556 33.7463C33.7977 33.5663 33.7094 33.3104 33.6351 32.9361L32.8779 25.578L32.8129 25.2368C32.8733 25.1373 32.9523 25.0663 33.0544 25.0189L33.1102 25.5448L33.8999 29.8564L33.3935 24.9431C33.5236 24.9289 33.6815 24.9336 33.858 24.9383L34.722 32.3723L34.0439 24.9478C34.1182 24.9525 34.2018 24.9573 34.2854 24.9668C34.3969 24.9762 34.5084 24.9857 34.6198 24.9999L35.7068 34.1491C35.6278 34.1443 35.5442 34.1443 35.4653 34.1396L34.9682 29.9512L35.456 34.1396H35.4281C35.3538 34.1396 35.2841 34.1349 35.2144 34.1301L34.7778 30.3823L35.1169 34.1254C34.9589 34.1159 34.8149 34.1017 34.6849 34.078ZM36.3292 31.8037L36.3664 29.6811L36.896 34.2012L37.1375 34.2154L36.3989 27.8949L36.4222 26.6772L37.2676 34.0306L37.2583 34.2249C37.3465 34.2296 37.4394 34.2344 37.5277 34.2438L37.5045 34.0259L37.5788 32.1544L37.8203 34.2628L38.0619 34.2817L37.6392 30.6192L37.7739 27.2837L38.4474 33.6421L38.4056 34.3054C38.5217 34.3149 38.6425 34.3244 38.7586 34.3339L38.6843 33.6326L38.8097 31.6711L39.0977 34.3623L39.3393 34.386L38.9026 30.2686L39.0977 27.1557L39.5019 31.3252L39.3532 33.5237L39.5901 33.5426L39.6412 32.775L39.8038 34.4334L40.0453 34.457L39.7434 31.3252L39.8828 29.2736L40.1847 34.1728L40.1615 34.4665C40.3287 34.4855 40.4959 34.4997 40.6631 34.5186L40.5099 32.9314L40.7096 30.1786L40.9651 34.3054L40.9511 34.5518L41.2206 34.5802L41.202 34.3054L41.2066 34.2296L41.2252 34.585L41.3367 34.5992C41.3785 34.6039 41.4249 34.6087 41.4621 34.6134L41.332 32.2586L41.6386 27.549L41.7594 29.7664L41.8569 34.6418C42.0102 34.6466 42.1496 34.6466 42.2657 34.6323L42.2285 33.969L42.4469 27.1605C42.3865 27.0657 42.3122 26.9804 42.2193 26.9046L42.0799 31.2494L41.9963 29.7617L41.9359 26.7198C41.8058 26.6488 41.6479 26.5824 41.4667 26.5208L41.2206 30.2876L41.0069 26.3787C40.9186 26.355 40.835 26.3313 40.7468 26.3029L40.7235 26.644L40.7003 26.2887C40.6213 26.265 40.5377 26.2413 40.4588 26.2223L40.5935 28.4161L40.3659 31.5384L40.0453 28.2218L39.9989 27.44L40.0871 26.1181C39.9199 26.0755 39.7573 26.0281 39.5901 25.9854L39.7481 27.6106L39.5948 29.8848L39.2046 25.8859C39.1163 25.8622 39.0281 25.8433 38.9398 25.8196L38.7447 28.8756L38.4056 25.6917C38.322 25.6727 38.243 25.6538 38.1594 25.6348L38.6518 30.2828L38.5264 32.2444L37.8296 25.6633L37.8343 25.559C37.746 25.5401 37.6624 25.5211 37.5741 25.5022L37.5927 25.668L37.4534 29.0983L37.026 25.3884C36.9424 25.3742 36.8634 25.3553 36.7798 25.3411L37.3883 30.6335L37.314 32.505L36.4825 25.2842C36.385 25.2653 36.2874 25.251 36.1945 25.2321L36.1806 26.1323L36.0738 25.2131C35.9948 25.1989 35.9112 25.1847 35.8322 25.1752L36.1527 27.9233L36.1156 30.0459L35.5396 25.1326C35.4234 25.1136 35.3073 25.0994 35.1912 25.0805L35.2795 26.2792L35.1447 25.0615C35.0658 25.052 34.9822 25.0426 34.9032 25.0284L35.6836 31.5811L35.874 34.1538C36.0134 34.1585 36.1527 34.1633 36.2921 34.1728L36.2967 33.59L36.3664 34.1775C36.4454 34.1822 36.529 34.187 36.608 34.187L36.3292 31.8037ZM35.6696 28.1981L35.9158 31.5574L36.0738 32.8745L36.0923 31.818L35.6696 28.1981ZM40.8675 28.0133L41.0998 32.2396L41.0858 32.4197L40.835 28.3924L40.8675 28.0133ZM43.0089 31.6663L43.0507 33.6942C43.0368 34.0164 42.981 34.2486 42.8278 34.4049L42.6977 27.9043C42.7302 28.1176 42.7488 28.3639 42.7767 28.6482C42.7999 28.8851 42.8185 29.122 42.8417 29.3637C42.9114 30.1549 42.9718 30.9225 43.0089 31.6663Z" fill="#C75C52"/>
<path fill-rule="evenodd" clip-rule="evenodd" d="M30.0165 14.9979L30.0351 8.4405L30.1048 14.9932L30.1559 14.9885C30.2349 14.9837 30.3045 14.9742 30.3742 14.9695L30.6436 11.0369L30.6854 14.9269C30.7737 14.9126 30.8527 14.8937 30.9223 14.87L30.8527 8.03303L31.1174 4.17627C31.0385 4.2047 30.9549 4.25208 30.8712 4.3042L30.8201 5.01964L30.8155 4.3421C30.7365 4.39422 30.6576 4.45581 30.5786 4.51741L30.6158 8.02355L30.3138 12.3968L30.2349 4.80643C30.1884 4.84433 30.142 4.88224 30.1002 4.92014C30.0026 5.00069 29.9051 5.08123 29.8075 5.16178L29.5706 5.3513C29.408 5.47923 29.2362 5.61189 29.0643 5.74456L29.0132 15.1306C29.0922 15.1164 29.1711 15.1069 29.2501 15.0974L29.264 12.6242L29.2594 15.0974C29.3384 15.088 29.4173 15.0737 29.4963 15.0643L29.5009 13.0269L29.5474 15.0548C29.7007 15.0264 29.8586 15.0121 30.0165 14.9979ZM28.1213 14.6094V15.2822C28.2282 15.2585 28.335 15.2396 28.4419 15.2206L28.3582 14.5952L28.3722 10.9517L28.5022 14.3204L28.4976 15.2111C28.5905 15.1922 28.6788 15.178 28.7717 15.1638L28.7391 14.3204L28.7809 5.94829C28.702 6.00515 28.623 6.06674 28.544 6.1236L28.5301 8.99485L28.4233 6.21362C28.335 6.27996 28.2421 6.34155 28.1492 6.40788L28.126 12.8279L27.8519 10.7242L27.8659 6.60214C27.7869 6.65426 27.7079 6.71112 27.629 6.76323L27.6197 8.9522L27.4571 7.72032V6.86747C27.3502 6.93854 27.2434 7.00961 27.1319 7.07594L27.2202 7.73453L27.2063 15.4101L26.9183 13.5576L26.9275 7.19913C26.8486 7.24651 26.7696 7.29389 26.6906 7.34601L26.6814 12.0414L26.1565 8.65371L26.1472 7.6682C26.031 7.73453 25.9103 7.80086 25.7895 7.86719L25.9149 8.6774L25.9614 15.2964L25.6176 13.3633L25.5805 7.98091C25.5015 8.02355 25.4225 8.06145 25.3436 8.1041L25.3714 11.9703L24.8094 8.82428L24.8001 8.36943C24.7025 8.41681 24.6096 8.45945 24.5121 8.50683L24.5725 8.84797L24.6421 13.0743L24.2334 10.8332L24.1962 8.65371C24.0894 8.70109 23.9779 8.74847 23.8664 8.79585L23.8711 8.84323L23.8618 8.79585C23.7874 8.82901 23.7131 8.85744 23.6388 8.89061L23.964 10.6863L24.0058 11.4728L24.0615 14.8037L23.4855 11.7287L23.3462 9.0138C23.2672 9.04223 23.1929 9.07539 23.1139 9.10382L23.1604 9.9851L23.0721 9.51603L23.0489 9.12751C22.9606 9.16068 22.8677 9.19384 22.7748 9.22701L22.8352 9.54446L23.0721 13.6571L22.3057 9.3881C22.1709 9.43548 22.0362 9.47813 21.8969 9.52077L22.2453 13.2259L22.3335 14.7136L21.5903 9.61553C21.5067 9.63922 21.4324 9.66291 21.3627 9.69134L22.4357 17.0258C22.5518 16.9974 22.6866 16.9642 22.8352 16.9168L22.4868 13.2117L22.3568 10.9943L23.1929 15.6376L23.2579 16.7652C23.4205 16.7084 23.5784 16.6468 23.741 16.5899L23.5831 13.5055L24.0894 16.2156L24.094 16.462C24.2287 16.4146 24.3634 16.3672 24.4981 16.3198L24.3031 12.5057L24.67 14.5289L24.6979 16.2535C24.7769 16.2251 24.8558 16.2014 24.9348 16.173L24.9301 15.9598L24.9673 16.1635C25.0416 16.1398 25.1206 16.1114 25.1949 16.0877L24.9069 14.5052L24.8372 10.3168L25.3854 13.3823L25.4039 16.0166C25.4829 15.9929 25.5619 15.9645 25.6408 15.9408L25.6316 14.7705L25.8313 15.8839C25.9567 15.846 26.0821 15.8081 26.2076 15.7702L26.1704 10.2883L26.6814 13.586L26.6767 15.6376C26.7557 15.6139 26.8346 15.5949 26.9136 15.5712V15.1022L26.9833 15.5523C27.1366 15.5144 27.2852 15.4717 27.4385 15.4386L27.4478 9.53024L27.6057 10.7384L27.5918 15.4007C27.6708 15.3817 27.7497 15.3628 27.8287 15.3485L27.838 12.5105L28.1213 14.6094ZM23.1882 11.3781L23.2579 11.7571L23.4623 15.7844L23.4298 15.6044L23.1882 11.3781ZM20.9679 9.85243C21.0375 9.81926 21.1119 9.7861 21.1955 9.75293L21.8783 17.0542C21.7715 17.0305 21.6925 16.9832 21.6275 16.9168L20.9679 9.85243Z" fill="#C75C52"/>
<path fill-rule="evenodd" clip-rule="evenodd" d="M30.0351 23.7254L30.0073 24.3935C30.0909 24.3887 30.1698 24.384 30.2442 24.3745L30.5925 15.5144C30.5182 15.5144 30.4393 15.5191 30.3556 15.5239L30.1048 21.9155L30.1977 15.5381C29.998 15.5523 29.7982 15.576 29.6031 15.5997L29.2315 24.4645C29.2919 24.4598 29.3523 24.4503 29.4127 24.4456L29.4684 24.4409L29.6728 19.5228L29.4824 24.4314C29.566 24.4219 29.6449 24.4172 29.7193 24.4124L29.8958 19.9302L29.84 23.7207L30.0351 23.7254ZM30.5972 15.5144C30.6808 15.5144 30.7598 15.5144 30.8341 15.5239L30.7319 19.338L31.1267 15.5807C31.2429 15.6186 31.3358 15.6802 31.4054 15.7655L31.1871 24.0997C31.1221 24.1708 31.0431 24.2229 30.9456 24.2608L31.1081 17.9924L30.6483 22.3514L30.5972 24.3414C30.5229 24.3508 30.4439 24.3603 30.3603 24.365L30.3974 23.0289L30.3417 23.0242L30.416 22.3324L30.5972 15.5144ZM28.4651 21.4701L28.2653 19.3569L28.0563 24.6162C27.9773 24.6304 27.8984 24.6398 27.8148 24.6541L28.0981 17.5754L27.9866 16.3625L27.7033 23.7633L27.8101 24.6588C27.6847 24.6778 27.5593 24.7014 27.4292 24.7251L27.4664 23.7728L27.2481 21.9107L27.1366 24.7773C27.0576 24.7915 26.9786 24.8057 26.8997 24.8246L27.0715 20.3898L26.6814 17.0732L26.4909 23.4696L26.686 24.8436L26.4537 24.8767V24.9147C26.3748 24.9289 26.2958 24.9478 26.2168 24.9668L26.2586 23.4838L25.9846 21.5364L25.8824 25.0426C25.8034 25.0615 25.7245 25.0805 25.6455 25.0947L25.7895 20.1387L25.3482 17.0543L25.2646 21.2427L25.5805 23.4222L25.3436 23.4553L25.2321 22.6925L25.181 25.1989C24.9812 25.2463 24.7815 25.2984 24.5818 25.3458L24.5771 24.9431L24.5678 25.3506C24.4889 25.3695 24.4099 25.3932 24.3309 25.4121L24.382 22.9199L23.9733 20.1908L24.0336 24.3224L24.1591 25.1942L24.0476 25.2084L24.0522 25.4832L23.7967 24.3414L23.7874 24.2655L23.8153 25.5495L23.5784 25.6159L23.5087 22.3087L22.8445 17.637L22.8909 19.8592L23.2254 25.7154C23.0628 25.758 22.9142 25.7959 22.7841 25.8291L22.7469 24.0808L22.078 17.9498C22.1431 17.8929 22.2174 17.836 22.301 17.7839L22.6912 21.3517L22.6587 19.8592L22.5333 17.6513C22.6819 17.5754 22.8584 17.4996 23.0582 17.4238L23.4716 20.3235L23.4066 17.2959C23.5831 17.2296 23.7596 17.168 23.9361 17.1064L23.9547 18.4141L24.4192 21.508L24.4889 18.1772L24.4796 17.3907L24.4145 16.9358C24.5307 16.8932 24.6422 16.8553 24.7583 16.8174L24.7443 17.5423L25.0695 19.7976L25.1345 16.6847C25.2692 16.6421 25.3993 16.5947 25.534 16.552L25.8406 18.722L25.9103 16.4336C25.9892 16.4099 26.0682 16.3862 26.1518 16.3578L26.0403 20.115L26.3144 22.0624L26.4863 16.2583C26.6024 16.2251 26.7185 16.1919 26.8346 16.1588L27.1505 18.8405L27.2573 16.0451C27.3363 16.0261 27.4153 16.0024 27.4989 15.9835L27.3317 20.3661L27.55 22.2282L27.7915 15.9124C28.0052 15.8603 28.2189 15.8176 28.4372 15.775L28.3675 17.5612L28.5673 19.6744L28.7252 15.7229C28.8553 15.6992 28.9807 15.6755 29.1107 15.6565V15.8555L29.12 15.6518C29.199 15.6376 29.278 15.6281 29.3616 15.6139L29.1293 21.1811L29.1386 24.4551C29.0178 24.4693 28.8924 24.4835 28.7717 24.5024L28.7531 24.5072L28.7809 23.8676L28.7298 23.8723L28.6695 23.2327L28.6184 24.5261C28.5394 24.5356 28.4604 24.5498 28.3815 24.5593L28.4651 21.4701ZM28.846 17.8266L28.702 21.4654L28.7995 22.5172L28.8553 21.1953L28.846 17.8266ZM24.9487 25.09L25.0277 21.2569L24.7351 19.2195L24.8047 24.1281L24.9487 25.09ZM23.6527 18.054L23.741 22.285L23.7689 22.4651L23.7085 18.433L23.6527 18.054ZM21.6275 18.8547L22.0316 25.9428C22.1013 25.9428 22.1802 25.9381 22.2685 25.9286L21.8272 18.2388C21.7204 18.4093 21.66 18.6131 21.6275 18.8547Z" fill="#C75C52"/>
<path fill-rule="evenodd" clip-rule="evenodd" d="M30.0723 36.3712L29.9887 35.8169L29.775 35.85L29.6496 34.8598C29.5799 34.8171 29.4963 34.784 29.3987 34.7556L31.5169 51.7888C31.5216 51.1018 31.5169 50.4384 31.5076 49.7893L30.8945 44.8618L31.5076 49.6661C31.4937 48.7422 31.4612 47.8467 31.4008 46.9607L31.1825 45.2361L31.3636 46.4395C31.2196 44.5301 30.9502 42.6302 30.4718 40.5123C30.2209 39.4036 30.0676 38.2238 30.063 36.845C30.063 36.6792 30.0676 36.5228 30.0723 36.3712ZM29.8679 36.6081L29.9654 37.262H29.9469L29.8679 36.6081ZM30.0258 46.9939L29.4824 44.9471L31.2614 58.9953L31.0245 59.0285L29.984 50.8033L29.84 50.8459L30.7876 58.242L30.5507 58.2751L29.4173 49.4387L28.8971 47.643L30.4021 59.3933C30.3231 59.3791 30.2395 59.3554 30.1559 59.3222L28.4697 46.1695L27.5407 42.9666L28.4093 49.3013L28.8274 50.6232L28.5998 50.699L29.7564 59.1375C29.6682 59.0853 29.5799 59.0332 29.4916 58.9716L28.1724 49.3582L27.5825 47.4866L29.1154 58.6637C29.0132 58.5689 28.9203 58.4694 28.8367 58.3652L27.1598 46.1458L26.2215 43.1798L26.83 47.3255L27.4989 49.4245L27.2713 49.5003L27.0344 48.7659L28.1539 56.4226L27.9773 56.451L28.0935 57.0906C27.968 56.849 27.8426 56.6121 27.7219 56.3752L26.7603 51.097L27.4571 55.8587C27.3456 55.6361 27.2295 55.4181 27.1226 55.2049L26.2354 49.1355L25.3807 46.5153L26.1239 50.5806L26.3887 51.4192L26.2819 51.4524L26.8811 54.7264C26.6256 54.2194 26.3748 53.7172 26.1332 53.2291L25.2739 48.6806L23.8478 44.189L24.2612 46.3685L25.5294 51.9783C25.246 51.386 24.9766 50.7985 24.7165 50.2252L22.3335 41.7584L22.5611 41.692L24.3031 47.8799L24.0243 46.4158L21.5299 35.3857C21.595 35.3573 21.6693 35.3289 21.7529 35.3004L22.7748 39.8252L21.9108 35.2578C21.9851 35.2388 22.0595 35.2246 22.1431 35.2104L23.4716 42.2369L24.8976 46.7286L24.1312 42.6823L23.6109 41.0856L23.8153 41.0145L22.7005 35.1299L22.9374 35.1014L24.3588 42.6159L24.5074 43.0661L23.0535 35.0872L23.2904 35.0588L25.0602 44.7528L26.0264 47.7235L25.5433 44.4306L25.4039 43.6583L24.4238 40.5881L24.6514 40.5123L25.0741 41.8389L23.8246 34.9972L24.0615 34.9735L24.5632 37.7358L24.1591 34.964L24.396 34.9403L25.6873 43.7578L26.3794 45.9278L25.7663 41.7489L25.1299 39.74L25.3575 39.6642L25.5526 40.2754L24.7676 34.9072L25.0045 34.8882L25.9985 41.6968L26.9601 44.7386L25.6037 34.8361C25.6827 34.8314 25.7616 34.8219 25.8406 34.8171L26.3423 38.4891L26.4677 38.4512L26.8532 39.7826L26.1704 34.7935L26.4073 34.7792L27.3084 41.3462L28.2653 44.6343L26.9972 34.7413L27.2341 34.7271L27.5593 37.2525L27.6708 37.2193L28.0099 38.4939L27.5268 34.7082C27.6057 34.7034 27.6847 34.6987 27.7637 34.6987L28.4744 40.2375L28.7902 41.4362L28.0331 35.4568L28.27 35.4236L29.2501 43.1608L29.7936 45.2076L28.8599 37.8211L28.7159 36.9729L28.7531 36.9682L28.4604 34.6703L28.6369 34.6655C28.6602 34.6655 28.6788 34.6655 28.702 34.6655L29.0968 37.7832L29.7007 41.3462L29.0411 36.0585L29.278 36.0301L30.5925 46.6006L31.294 50.7132L31.1128 50.7464L31.4983 53.8261L31.4798 55.5887L30.6994 49.3013L30.6483 49.3155L30.4857 48.6948L31.1918 54.2857L30.9549 54.3141L30.0258 46.9939ZM29.8029 43.3361L30.3649 46.6575L30.5275 47.9699L30.2581 46.9465L29.8029 43.3361ZM28.2514 40.3038L27.6893 38.1764L28.7066 46.1174L29.2269 47.9131L28.2514 40.3038ZM28.7113 42.0474L29.0225 43.2271L29.919 50.3152L29.6496 49.3913L28.7113 42.0474ZM27.9866 47.9604L27.0901 41.4077L26.4584 39.233L27.3967 46.0937L27.9866 47.9604ZM27.694 54.8353L27.2666 51.9214L27.1691 51.9546L27.694 54.8353ZM27.1552 51.1681L26.5977 47.3729L25.9707 45.4161L26.8532 50.2442L27.1552 51.1681ZM25.8731 50.5521L26.1472 51.9878L25.8963 50.6232L25.8731 50.5521ZM24.7211 44.4543L25.5061 48.6096L25.5619 48.7801L24.8372 44.8144L24.7211 44.4543ZM21.163 38.1101L22.8166 45.4161C23.0164 46.0131 23.2347 46.6148 23.4669 47.2166L21.0143 36.3807C21.019 36.6318 21.0468 36.9303 21.0793 37.2857C21.1026 37.5652 21.1304 37.84 21.163 38.1101Z" fill="#C75C52"/>
<path fill-rule="evenodd" clip-rule="evenodd" d="M29.3012 34.078L30.2488 25.8954L29.5381 32.8177L29.4127 33.5L29.4684 33.5094L29.4127 34.059C29.5056 34.0401 29.5845 34.0164 29.6589 33.9927L29.775 32.8508L30.5647 28.5392L30.0305 33.7463C30.1884 33.5663 30.2767 33.3104 30.351 32.9361L31.1081 25.578L31.1732 25.2368C31.1128 25.1373 31.0338 25.0663 30.9316 25.0189L30.8759 25.5448L30.0862 29.8564L30.5925 24.9431C30.4625 24.9289 30.3045 24.9336 30.128 24.9383L29.264 32.3723L29.9422 24.9478C29.8679 24.9525 29.7843 24.9573 29.7007 24.9668C29.5892 24.9762 29.4777 24.9857 29.3662 24.9999L28.2746 34.1491C28.3536 34.1443 28.4325 34.1443 28.5162 34.1396L29.0132 29.9512L28.5254 34.1396H28.5533C28.6276 34.1396 28.6973 34.1349 28.767 34.1301L29.2036 30.3823L28.8645 34.1254C29.0271 34.1159 29.1711 34.1017 29.3012 34.078ZM27.6568 31.8037L27.6197 29.6811L27.0901 34.2012L26.8486 34.2154L27.5871 27.8949L27.5639 26.6772L26.7185 34.0306L26.7278 34.2249C26.6395 34.2296 26.5466 34.2344 26.4584 34.2438L26.4816 34.0259L26.4073 32.1544L26.1657 34.2628L25.9242 34.2817L26.3469 30.6192L26.2122 27.2837L25.534 33.6374L25.5758 34.3007C25.4597 34.3102 25.3389 34.3196 25.2228 34.3291L25.2971 33.6279L25.1717 31.6663L24.8883 34.3575L24.6468 34.3812L25.0834 30.2639L24.8883 27.151L24.4842 31.3205L24.6328 33.5189L24.3959 33.5379L24.3448 32.7703L24.1823 34.4286L23.9407 34.4523L24.2427 31.3205L24.1033 29.2689L23.8014 34.168L23.8246 34.4618C23.6574 34.4807 23.4901 34.4949 23.3229 34.5139L23.4762 32.9267L23.2765 30.1739L23.021 34.3007L23.0349 34.5471L22.7655 34.5755L22.7841 34.3007L22.7794 34.2249L22.7609 34.5802L22.6494 34.5944C22.6076 34.5992 22.5658 34.6039 22.524 34.6087L22.654 32.2539L22.3474 27.5442L22.2267 29.7616L22.1291 34.6371C21.9712 34.6418 21.8365 34.6418 21.7204 34.6276L21.7575 33.9643L21.5392 27.1557C21.5996 27.061 21.6739 26.9757 21.7668 26.8999L21.9062 31.2447L21.9898 29.7569L22.0502 26.7151C22.1802 26.644 22.3382 26.5777 22.5193 26.5161L22.7655 30.2828L22.9792 26.374C23.0674 26.3503 23.1511 26.3266 23.2393 26.2981L23.2579 26.6251L23.2811 26.2697C23.3601 26.246 23.4437 26.2223 23.5227 26.2034L23.388 28.3971L23.6156 31.5195L23.9361 28.2028L23.9825 27.4211L23.8943 26.0992C24.0615 26.0565 24.2241 26.0091 24.3913 25.9665L24.2334 27.5916L24.3867 29.8659L24.7768 25.867C24.8651 25.8433 24.9534 25.8243 25.0416 25.8007L25.2367 28.8567L25.5758 25.6727C25.6594 25.6538 25.7384 25.6348 25.822 25.6159L25.3296 30.2639L25.455 32.2254L26.1518 25.6443L26.1472 25.5401C26.2354 25.5211 26.319 25.5022 26.4073 25.4832L26.3887 25.649L26.528 29.0794L26.9554 25.3695C27.039 25.3553 27.118 25.3363 27.2016 25.3221L26.5931 30.6145L26.6674 32.486L27.4989 25.2653C27.5964 25.2463 27.694 25.2321 27.7869 25.2131L27.8008 26.1134L27.903 25.2037C27.982 25.1894 28.0656 25.1752 28.1445 25.1658L27.824 27.9138L27.8612 30.0365L28.4372 25.1231C28.5533 25.1042 28.6694 25.0899 28.7856 25.071L28.6973 26.2697L28.8413 25.0615C28.9203 25.052 29.0039 25.0426 29.0829 25.0284L28.3025 31.5811L28.112 34.1538C27.9727 34.1585 27.8333 34.1633 27.694 34.1728L27.6893 33.59L27.6197 34.1775C27.5407 34.1822 27.4617 34.187 27.3781 34.187L27.6568 31.8037ZM28.3164 28.1981L28.0702 31.5574L27.9123 32.8745L27.8937 31.818L28.3164 28.1981ZM23.1185 28.0133L22.8863 32.2396L22.9002 32.4197L23.1511 28.3924L23.1185 28.0133ZM20.9771 31.6663L20.9353 33.6942C20.9493 34.0164 21.005 34.2486 21.1583 34.4049L21.2884 27.9043C21.2558 28.1176 21.2373 28.3639 21.2094 28.6482C21.1908 28.8851 21.1676 29.122 21.1444 29.3637C21.0747 30.1549 21.0143 30.9225 20.9771 31.6663Z" fill="#C75C52"/>
<path fill-rule="evenodd" clip-rule="evenodd" d="M43.218 8.57788C43.9565 8.79109 44.7044 9.08959 45.0481 9.80977C45.3686 10.4826 45.1596 11.1933 44.997 11.8708C44.6951 13.1122 44.4675 14.3678 44.3096 15.6328C43.9472 18.4804 43.9194 20.911 44.0727 24.0286C44.1609 25.8575 44.2399 26.7388 44.4071 28.5439C44.4303 28.7808 44.4536 29.0177 44.4768 29.2546C44.5836 30.3586 44.6765 31.4673 44.6951 32.5807C44.7137 33.8458 44.6719 36.1201 44.5558 37.3851C44.4025 39.0292 44.1238 40.6544 43.7243 42.2605C42.3168 47.932 39.3579 53.3286 36.5197 58.4409C36.2503 58.9242 35.8555 59.3317 35.3817 59.6539C35.6139 59.4264 35.8136 59.1706 35.9669 58.891C38.2245 54.8258 40.5563 50.5805 42.1403 46.1647C42.6141 44.8807 43.0229 43.5777 43.348 42.2605C43.7475 40.6544 44.0216 39.0292 44.1795 37.3851C44.3003 36.1248 44.3421 33.8458 44.3188 32.5807C44.3003 31.472 44.2074 30.3633 44.1005 29.2546C44.0773 29.0177 44.0541 28.7808 44.0309 28.5439C43.8636 26.7388 43.7847 25.8622 43.6964 24.0286C43.5431 20.9062 43.571 18.4804 43.9333 15.6328C44.0912 14.3678 44.3189 13.1122 44.6208 11.8708C44.7834 11.1885 44.9924 10.4826 44.6719 9.80977C44.6022 9.66289 44.5139 9.53496 44.4164 9.41651C44.1238 9.02326 43.6871 8.78162 43.218 8.61105V8.57788Z" fill="#CFA284"/>
<path fill-rule="evenodd" clip-rule="evenodd" d="M20.731 8.57788C19.9878 8.79109 19.2352 9.08959 18.8915 9.80977C18.571 10.4826 18.78 11.1933 18.9426 11.8708C19.2445 13.1122 19.4721 14.3678 19.6347 15.6328C19.997 18.4804 20.0296 20.911 19.8716 24.0286C19.7787 25.8575 19.7044 26.7388 19.5325 28.5439C19.5093 28.7808 19.4861 29.0177 19.4629 29.2546C19.356 30.3586 19.2631 31.4673 19.2445 32.5807C19.226 33.8458 19.2678 36.1201 19.3885 37.3851C19.5465 39.0292 19.8205 40.6544 20.2247 42.2605C21.6368 47.932 24.6143 53.3286 27.4664 58.4409C27.7358 58.9242 28.1353 59.3317 28.6137 59.6539C28.3815 59.4264 28.1817 59.1706 28.0238 58.891C25.757 54.8258 23.4112 50.5805 21.8179 46.1647C21.3441 44.8807 20.9307 43.5777 20.6056 42.2605C20.2061 40.6544 19.9274 39.0292 19.7694 37.3851C19.6487 36.1248 19.6069 33.8458 19.6301 32.5807C19.6487 31.472 19.7416 30.3633 19.8484 29.2546C19.8716 29.0177 19.8948 28.7808 19.9181 28.5439C20.0853 26.7388 20.1643 25.8622 20.2572 24.0286C20.4151 20.9062 20.3826 18.4804 20.0203 15.6328C19.8577 14.3678 19.6301 13.1122 19.3281 11.8708C19.1609 11.1885 18.9565 10.4826 19.277 9.80977C19.3467 9.66289 19.435 9.53496 19.5325 9.41651C19.8252 9.02326 20.2665 8.78162 20.7356 8.61105V8.57788H20.731Z" fill="#CFA284"/>
</g>
</svg>
