<svg width="64" height="64" viewBox="0 0 64 64" fill="none" xmlns="http://www.w3.org/2000/svg">
<g clip-path="url(#clip0)">
<path d="M52 25.2598C51.5874 27.5306 51.3681 29.827 51.2263 32.1235C51.1747 32.9984 51.1296 33.8732 51.1038 34.7481V34.7545C50.9813 38.7363 51.078 42.7181 50.9426 46.7C50.8652 49.0286 50.7105 51.3572 50.3946 53.6601C50.2012 55.0367 49.9819 56.4584 49.6338 57.835C49.5886 58.0215 49.5371 58.2016 49.4855 58.3817C49.3179 58.4975 49.1567 58.6069 48.989 58.7098C47.6802 59.5396 46.2102 60.1443 44.6886 60.5174C43.5603 60.8004 42.3997 60.9548 41.2521 60.9805C40.9168 60.9934 40.588 60.987 40.2527 60.9741C38.2669 60.8905 36.3327 60.4016 34.5661 59.5718C33.8827 59.2566 33.225 58.8835 32.5932 58.4589C32.4836 58.3882 32.374 58.311 32.2708 58.2402C32.1934 58.0987 32.1225 57.9572 32.0451 57.8157C31.1425 56.0724 30.3366 54.3034 29.8014 52.38C29.0406 49.6783 29.0729 47.028 29.3759 44.2556C29.6596 41.6761 30.2592 37.7585 27.9059 35.9188C26.8549 35.0954 25.4687 34.8252 24.2179 34.4521C22.8446 34.0405 21.4778 33.5902 20.1238 33.1013C17.8736 32.3101 15.7202 31.3773 13.5861 30.3738C13.47 30.3224 13.354 30.2645 13.2379 30.213C13.2186 30.168 13.1992 30.123 13.1799 30.0779C12.677 28.9522 12.3417 27.7557 12.1612 26.5271C12.058 25.8517 12.0064 25.1569 12 24.4686C12 24.1406 12.0064 23.8125 12.0258 23.4909C12.0903 22.3587 12.2772 21.2587 12.5674 20.1845C12.6705 19.7985 12.7866 19.419 12.922 19.0459C14.3404 14.9611 17.2676 11.4038 20.6783 8.73428C20.7363 8.68926 20.7879 8.65066 20.8459 8.60563C21.0522 8.44481 21.2714 8.284 21.4842 8.12318C23.3669 6.76588 25.5461 5.57584 27.8221 4.82965C28.9955 4.45012 30.1947 4.18638 31.3939 4.07059C32.4191 3.9741 33.4442 3.98696 34.4565 4.13492C34.6886 4.16708 34.9207 4.21211 35.1528 4.25714H35.1593C35.4881 4.45655 35.804 4.67526 36.107 4.90684C37.029 5.60157 37.8672 6.43138 38.6344 7.31909C40.3559 9.31966 41.697 11.5968 43.1734 13.7711C43.9923 14.974 44.8756 16.1447 45.8878 17.1997C46.8227 18.1775 47.9059 18.9558 48.9568 19.8049C49.9433 20.6026 50.8395 21.5032 51.3681 22.6739C51.3681 22.6803 51.3681 22.6803 51.3746 22.6868C51.697 23.4137 51.8839 24.1792 51.9678 24.9639V24.9704C51.9807 25.0604 51.9935 25.1634 52 25.2598Z" fill="#F0A771"/>
<g opacity="0.08">
<path opacity="0.08" d="M29.1373 21.0723C30.1947 22.2623 31.4262 23.536 33.0123 23.6325C34.9787 23.7547 36.6551 21.7992 36.6873 19.8372C36.7195 17.8688 35.4558 16.0612 33.844 14.9226C32.2386 13.784 30.3108 13.1922 28.4281 12.6262C26.9774 12.1887 25.5332 11.7513 24.0825 11.3139C23.2895 11.0759 21.5616 10.7414 21.4584 12.0215C21.3811 12.9156 22.9671 14.1507 23.4958 14.7425C25.372 16.8524 27.2547 18.9624 29.1373 21.0723Z" fill="white"/>
<path opacity="0.08" d="M34.0503 41.0584C33.1025 41.6695 32.922 42.9625 32.8704 44.0882C32.6706 48.3402 32.9349 52.708 34.5661 56.6384C34.8691 57.3653 35.2237 58.0857 35.7782 58.639C36.3327 59.1922 37.1193 59.5653 37.8994 59.4623C38.7956 59.3401 39.5113 58.6004 39.853 57.7577C40.1947 56.9214 40.2141 55.9887 40.2012 55.0881C40.1561 52.8431 38.9052 37.9193 34.0503 41.0584Z" fill="white"/>
<path opacity="0.08" d="M44.9272 24.8287C44.5274 25.6135 44.4307 26.5398 44.708 27.376C45.3463 29.2801 46.0426 31.1327 46.481 33.1204C47.3837 37.218 47.7189 41.4379 47.4675 45.6255C47.4481 45.9472 47.4288 46.2817 47.5577 46.5712C47.6867 46.8671 48.022 47.0986 48.325 46.9957C48.6345 46.8928 48.7634 46.5261 48.8343 46.2109C50.0658 40.6917 48.5313 34.8251 50.0465 29.3573C50.4526 27.8971 51.0974 26.3468 50.5494 24.9316C49.9626 23.4135 47.9768 22.6737 46.4875 23.3299C45.7911 23.6386 45.256 24.1854 44.9272 24.8287Z" fill="white"/>
<path opacity="0.08" d="M18.5957 23.697C17.1837 23.2338 15.4107 23.0215 14.392 24.1022C13.4636 25.0864 13.657 26.7461 14.4629 27.8267C15.2688 28.9074 16.539 29.5378 17.7705 30.0846C21.1554 31.577 24.7208 32.7478 28.4088 33.063C29.0148 33.1144 29.795 33.0372 29.9755 32.4518C30.1367 31.9372 29.6854 31.4548 29.2792 31.101C25.9329 28.232 22.8897 25.1057 18.5957 23.697Z" fill="white"/>
<path opacity="0.08" d="M35.7137 30.773C35.3656 31.7701 35.5977 32.8893 36.1006 33.8156C36.6035 34.742 37.3514 35.5074 38.0864 36.2601C38.7827 36.9741 39.479 37.6817 40.1754 38.3957C40.6138 38.8396 41.2134 39.3285 41.7937 39.0904C42.3288 38.8717 42.4578 38.1899 42.4771 37.6109C42.5351 35.3145 41.9484 33.0051 40.7943 31.0239C39.6338 29.0362 36.7324 27.859 35.7137 30.773Z" fill="white"/>
</g>
<g opacity="0.2">
<path opacity="0.2" d="M34.5725 59.5527C34.566 59.5656 34.5596 59.572 34.5596 59.5785C33.8762 59.2633 33.2185 58.8902 32.5867 58.4656C32.4771 58.3949 32.3675 58.3177 32.2643 58.2469C32.1869 58.1054 32.116 57.9639 32.0386 57.8223C31.136 56.0791 30.3301 54.3101 29.7949 52.3867C29.0341 49.685 29.0664 47.0347 29.3694 44.2623C29.6531 41.6827 30.2527 37.7652 27.8994 35.9255C26.8484 35.1021 25.4622 34.8319 24.2114 34.4588C22.8381 34.0471 21.4713 33.5969 20.1173 33.108C17.8736 32.3103 15.7201 31.3776 13.586 30.3741C13.47 30.3226 13.3539 30.2647 13.2379 30.2133C13.2185 30.1682 13.1992 30.1232 13.1798 30.0782C12.6769 28.9525 12.3417 27.756 12.1611 26.5273C12.3094 26.7654 12.4706 26.9969 12.6447 27.2221C14.1727 29.2291 16.5003 30.6185 18.8987 31.4998C21.871 32.5934 25.0431 33.0308 28.1057 33.8477C29.3887 34.1887 30.7362 34.6583 31.5228 35.7261C32.1805 36.6138 32.3288 37.791 32.2127 38.891C32.0967 39.9909 31.7356 41.0459 31.4648 42.1137C30.0012 47.8324 31.0522 54.1429 34.2695 59.0896C34.3662 59.244 34.4693 59.3984 34.5725 59.5527Z" fill="#C47B4E"/>
<path opacity="0.2" d="M41.3359 60.5816C41.9419 57.5325 41.5551 54.5799 41.1553 51.5437C40.7298 48.3466 40.3107 45.156 39.8852 41.959C39.9368 42.3256 40.5235 42.9368 40.7105 43.2841C41.0006 43.8245 41.2456 44.3905 41.4519 44.9759C41.813 46.018 42.1418 47.0923 42.4513 48.1472C43.1992 50.7267 43.7408 53.3706 44.0631 56.0401C44.2308 57.391 44.3404 58.7676 44.5983 60.0991C44.6241 60.2407 44.6563 60.3822 44.6885 60.5237C43.5602 60.8067 42.3997 60.9611 41.2521 60.9869C41.2778 60.8518 41.3101 60.7167 41.3359 60.5816Z" fill="#C47B4E"/>
<path opacity="0.2" d="M23.8182 21.5225C23.7601 21.9021 23.3475 22.1465 22.9671 22.1465C22.5802 22.1465 22.2256 21.9664 21.8839 21.7927C20.1367 20.8535 18.4732 19.7085 16.5712 19.1553C15.5525 18.853 14.4307 18.7565 13.3926 18.943C13.2379 18.9688 13.0831 19.0074 12.9284 19.046C14.3468 14.9612 17.274 11.4039 20.6847 8.73438C20.588 8.96595 20.5042 9.20396 20.4397 9.4484C19.9884 10.9987 20.0657 12.7355 20.4913 14.3115C21.1167 16.6144 22.3868 18.6793 23.586 20.7506C23.715 20.9822 23.8633 21.2459 23.8182 21.5225Z" fill="#C47B4E"/>
<path opacity="0.2" d="M51.3746 22.6804C51.0135 22.243 50.5944 21.8442 50.1496 21.4839C49.8143 21.2073 49.4661 20.9565 49.1115 20.7249C47.6286 19.7536 45.991 19.0202 44.5596 17.9717C42.548 16.4986 41.0393 14.4595 39.6273 12.401C38.2153 10.349 36.8485 8.23262 35.0496 6.50866C34.2244 5.71744 33.2895 5.00985 32.2772 4.47593C31.9871 4.32155 31.697 4.18646 31.3939 4.06424C32.4191 3.96775 33.4442 3.98062 34.4565 4.12857C34.6886 4.16073 34.9207 4.20576 35.1528 4.25079H35.1592C35.4881 4.4502 35.804 4.66891 36.107 4.90049C37.029 5.59522 37.8672 6.42504 38.6344 7.31275C40.3559 9.31331 41.6969 11.5905 43.1734 13.7647C43.9922 14.9676 44.8755 16.1384 45.8878 17.1933C46.8227 18.1711 47.9058 18.9495 48.9568 19.7986C49.9432 20.5962 50.8394 21.4968 51.3681 22.6676C51.3746 22.674 51.3746 22.674 51.3746 22.6804Z" fill="#C47B4E"/>
</g>
<path d="M51.9678 24.9642C51.8775 24.1794 51.697 23.4075 51.3746 22.6871C51.3746 22.6806 51.3746 22.6806 51.3681 22.6742C50.8395 21.5035 49.9433 20.6029 48.9568 19.8052C47.9059 18.9561 46.8227 18.1778 45.8878 17.2C44.8756 16.145 43.9923 14.9743 43.1734 13.7714C41.697 11.5971 40.3559 9.31995 38.6344 7.31938C37.8736 6.43167 37.0355 5.60186 36.107 4.90713C35.804 4.67555 35.4881 4.45684 35.1592 4.25743C35.1592 4.25743 35.1592 4.25743 35.1528 4.25743C34.9207 4.20597 34.6886 4.16737 34.4565 4.13521C33.4442 3.98725 32.4191 3.96796 31.3939 4.07088C27.5899 4.43111 23.7924 6.32875 20.8459 8.60592C20.7879 8.65095 20.7363 8.68955 20.6783 8.73457C17.2676 11.4106 14.3404 14.9678 12.922 19.0462C12.3224 20.7637 11.9871 22.5777 12 24.4625C12.0064 25.1572 12.058 25.8455 12.1612 26.5209C12.3417 27.7496 12.677 28.9461 13.1799 30.0718C13.1992 30.1168 13.2186 30.1618 13.2379 30.2069C13.354 30.2648 13.47 30.3227 13.5861 30.3741C15.7202 31.3776 17.8736 32.3104 20.1109 33.108C21.4649 33.5905 22.8317 34.0407 24.205 34.4589C25.4558 34.8384 26.8485 35.1086 27.893 35.9255C30.2527 37.7717 29.6531 41.6828 29.363 44.2623C29.06 47.0348 29.0277 49.685 29.7885 52.3868C30.3301 54.3037 31.136 56.0791 32.0322 57.8224C32.1032 57.9639 32.1805 58.1119 32.2579 58.2469C32.3675 58.3177 32.4707 58.3949 32.5803 58.4656C33.2121 58.8838 33.8698 59.2569 34.5532 59.5785C36.3262 60.4083 38.254 60.8972 40.2398 60.9808C40.5687 60.9937 40.9039 61.0001 41.2392 60.9873C42.3868 60.9615 43.5474 60.8071 44.6757 60.5241C46.1973 60.151 47.6609 59.5463 48.9761 58.7165C49.1438 58.6072 49.3114 58.4978 49.4726 58.3885C49.5242 58.2083 49.5693 58.0218 49.6209 57.8417C49.969 56.4651 50.1947 55.0435 50.3817 53.6669C50.6976 51.3575 50.8523 49.0353 50.9297 46.7067C51.0651 42.7249 50.9684 38.743 51.0909 34.7612V34.7548C51.1167 33.8799 51.1618 33.0051 51.2134 32.1302C51.3552 29.8338 51.5745 27.5309 51.9871 25.2666C51.9935 25.1636 51.9806 25.0607 51.9678 24.9642ZM51.626 26.6625V26.6689C50.1044 35.0828 51.1167 43.7348 50.1818 52.2195C50.0271 53.6347 49.8143 55.0435 49.5306 56.4394C49.4146 57.0119 49.2727 57.5779 49.1309 58.144C47.706 58.9996 46.1844 59.675 44.5983 60.0931C43.5409 60.3697 42.4578 60.537 41.3359 60.5756C40.9813 60.5884 40.6138 60.5884 40.2463 60.5691C38.1831 60.4855 36.1393 59.958 34.263 59.0768C33.6183 58.7744 32.9929 58.4335 32.3933 58.0475C31.5938 56.3107 30.8652 54.5353 30.3172 52.7213C29.8852 51.2996 29.5693 49.8137 29.479 48.3277C29.3952 46.8868 29.5693 45.4459 29.724 44.0178C29.9948 41.5606 30.4139 38.3249 28.7118 36.2472C28.0219 35.398 27.0032 34.9606 25.9845 34.6261C24.6048 34.1823 23.2057 33.7899 21.8259 33.3332C19.0342 32.4004 16.236 31.3776 13.5151 30.2197C13.1154 29.2613 12.8253 28.2513 12.6447 27.2221C12.1612 24.4818 12.4513 21.5806 13.3862 18.9368C13.657 18.1649 13.9794 17.4123 14.3598 16.6982C15.7524 14.048 17.7382 11.7386 20.0077 9.79597C20.1496 9.67375 20.2914 9.55796 20.4333 9.43574C22.7995 7.48663 25.5074 5.87846 28.4732 5.04221C29.7111 4.69485 30.9942 4.50187 32.2708 4.47614C33.3153 4.45041 34.3598 4.54047 35.3849 4.74631C38.4603 6.99775 40.53 10.5872 42.6512 13.7006C44.1083 15.8427 45.7073 17.7789 47.764 19.3742C48.5957 20.0239 49.4726 20.6672 50.1496 21.4842C50.3043 21.6643 50.4462 21.8572 50.5751 22.0567C51.3424 23.2274 51.6067 24.6362 51.6325 26.0192C51.6325 26.2315 51.6325 26.4438 51.626 26.6625Z" fill="#C47B4E"/>
<path opacity="0.05" d="M48.8794 52.824C48.8214 53.641 48.7182 54.4772 48.3314 55.1977C47.9445 55.9246 47.216 56.5164 46.3972 56.5228C45.5074 56.5357 44.7208 55.8667 44.3275 55.069C43.9342 54.2714 43.844 53.3644 43.7472 52.4831C43.3862 49.1702 42.8446 45.8831 42.1096 42.6346C41.8066 41.2773 41.0844 39.6177 39.6918 39.6499C38.8472 39.6692 38.1509 40.3896 37.8865 41.1808C37.6222 41.9785 37.6866 42.8405 37.7576 43.6767C38.0541 47.2276 38.3507 50.7848 38.6473 54.3357C38.7182 55.217 38.7892 56.124 38.4732 56.9474C38.1573 57.7707 37.3385 58.4719 36.4616 58.3432C35.3591 58.1889 34.824 56.9281 34.5661 55.8474C33.8569 52.869 33.657 49.7621 33.9729 46.7194C34.392 42.6604 35.6686 38.2861 33.7215 34.6903C32.432 32.3102 29.9626 30.8114 27.4803 29.7114C22.8833 27.6722 17.8994 26.598 13.4378 24.25C13.1218 24.0828 12.5867 23.8126 12.0322 23.4781C12.0967 22.346 12.2837 21.246 12.5738 20.1717C14.45 20.2489 16.842 21.4003 18.0219 22.153C19.118 22.8541 20.1173 23.7483 21.3423 24.1921C22.5674 24.636 24.147 24.488 24.882 23.4138C25.7331 22.1658 25.0303 20.4869 24.3855 19.1167C23.3411 16.9039 22.5029 14.5946 21.8775 12.2273C21.5293 10.9086 21.2779 9.42913 21.4906 8.11043C23.3733 6.75313 25.5525 5.56309 27.8285 4.81689C27.8543 4.82333 27.8865 4.82976 27.9123 4.84263C31.6131 5.91045 34.1921 9.17825 36.3069 12.3946C38.4217 15.6045 40.4655 19.0846 43.7795 21.0401C45.3527 21.9729 47.2805 22.6354 48.1186 24.2565C48.9632 25.8968 48.3572 27.8652 47.9832 29.6792C46.4294 37.2762 49.4339 45.0919 48.8794 52.824Z" fill="white"/>
</g>
<defs>
<clipPath id="clip0">
<rect width="40" height="57" fill="white" transform="translate(12 4)"/>
</clipPath>
</defs>
</svg>
